<?xml version="1.0" encoding="utf-8"?>
<!-- Generator: Adobe Illustrator 21.1.0, SVG Export Plug-In . SVG Version: 6.00 Build 0)  -->
<svg version="1.1" xmlns="http://www.w3.org/2000/svg" xmlns:xlink="http://www.w3.org/1999/xlink" x="0px" y="0px"
	 viewBox="0 0 793.6 595.3" style="enable-background:new 0 0 793.6 595.3;" xml:space="preserve">
<style type="text/css">
	.st0{fill:url(#sky_1_);}
	.st1{fill:#FFFFFF;}
	.st2{fill:#FFFDFC;}
	.st3{fill:#22433B;}
	.st4{fill:#4E7B5D;}
	.st5{fill:#8EBF78;}
	.st6{fill:#263926;}
	.st7{fill:none;stroke:#222D22;stroke-width:0.5;stroke-miterlimit:10;}
	.st8{fill:#628162;}
	.st9{fill:#62A991;}
	.st10{fill:#498C50;}
	.st11{fill:#C6CDAF;}
	.st12{fill:#4C9B7E;}
	.st13{fill:#65AF94;}
	.st14{fill:#4B7661;}
	.st15{fill:#5F8265;}
	.st16{fill:#3A5848;}
	.st17{fill:#3A584A;}
	.st18{fill:#3B5748;}
	.st19{fill:#4B7662;}
	.st20{fill:#4A7759;}
</style>
<g id="head">
	<linearGradient id="sky_1_" gradientUnits="userSpaceOnUse" x1="396.791" y1="560.1415" x2="396.791" y2="5.8074">
		<stop  offset="0" style="stop-color:#FFFFFF"/>
		<stop  offset="0.2877" style="stop-color:#62D4EE"/>
		<stop  offset="0.6072" style="stop-color:#54CAEC"/>
		<stop  offset="1" style="stop-color:#30ADE6"/>
	</linearGradient>
	<rect id="sky" class="st0" width="793.6" height="560.9"/>
	<g>
		<g id="cloud">
			<path class="st1" d="M793.4,138.2c-3.7-0.9-7.4,1.8-11.1,1.3c-0.6-0.1-1.3-0.3-1.7-0.7c-3.4,0.1-6.9,0.2-10.3,0.1
				c-3.2-0.1-6.3,0.4-9.5,0.3c-1,0-2.1-0.1-3-0.4c-0.7-0.2-1.4-0.6-2.1-1c-0.7-0.4-1.5-1.1-2.2-1.3c-0.7-0.2-1.5-0.1-2.2-0.1
				c-1.7,0-3.4-0.1-5.1-0.1c-2.1-0.1-4.5,0.2-6.6-0.2c-0.7-0.1-1.4-0.4-2-0.7c-0.6-0.3-1.1-0.7-1.7-0.9c-2.8-1.1-6.5-0.2-9.5,0.1
				c-3.6,0.4-7.5-0.5-10.9-1.5c-0.4-0.1-0.7-0.2-1-0.4c-0.6-0.5-0.6-1.6-0.1-2.2c0.5-0.7,1.3-1,2.1-1.3c2-0.6,4.1-0.4,6.2-0.5
				c5.2-0.3,9.8-2.2,14.7-3.5c1.9-0.5,4.2-0.5,6.2-0.7c2.7-0.2,5.3-0.4,8-0.7c3.4-0.3,6.7-1.1,10-1.8c1.7-0.4,3.5-0.5,5.2-1
				c2.4-0.7,1.3-0.8,1.7-3.1c0.2-1,0.7-1.9,1.6-2.3c0.6-0.3,1.5-0.4,1.6-1.1c0.1-0.3,0-0.6-0.1-0.8c-0.3-1.3-0.4-2.8,0.2-4
				c0.6-1.2,1.9-2.2,3.2-2.1c-0.3-1.1-0.4-2.3-0.1-3.3c0.7-2.4,5-4.9,7-6.2c3.2-2,7.9-3.2,11.7-3.4L793.4,138.2z"/>
			<path class="st1" d="M605.9,53.4c0,0-19.2-1.8-5.5-10.5c0,0,18.8-12.5,29.5-9.8c0,0,14.2-4.2,18.8,3c0,0,19,0.5,21.2,11
				c0,0,14.5-7,17.8-2.5c0,0,11.8,0.9,8,8.8c0,0-4.6,6.1-0.5,5.3c1.2-0.2,4,1.5,5.1,1.9c1.8,0.7,3.7,1.4,5.5,2
				c3.7,1.3,7.4,2.2,11.2,3c0.9,0.2,2.1,0.6,2.2,1.5c0.1,0.6-0.3,1.1-0.7,1.6c-2.1,2-6.3,1.1-9,1.1c-3.4-0.1-6.8-0.1-10.2-0.2
				c-4.7-0.1-9.4-0.2-14.1-0.3c-0.4,0-2,1.2-2.5,1.3c-3.1,1.1-6.4,1.1-9.7,1.3c-10,0.5-20.1-0.1-30.1-0.4
				c-2.7-0.1-16.7,0.6-17.5-3.2c0,0-23.5,3.8-23.9-6.4l-64.1-0.6c0,0-6.2-2.3,0-5.5c14.3-0.4,28.5-0.7,42.8-1.1
				C588.7,54.7,597.3,54.1,605.9,53.4z"/>
			<path class="st1" d="M273.3,155.7c-4.8-5.3,4.9-6.5,7.9-7.3c16.4-4.4,32.8-9.1,49.2-13.6c0,0-2.3-18.4,14.9-16.5
				c0,0,6-2.6,9.5,1.6c0,0,13.7-1.9,10.9,9.1c2.6-1.2,5.3-2.4,7.7-3.9c2.7-1.7,4.2-4.8,6.9-6.4c3.2-1.9,7.5-2.7,11.1-3
				c5.2-0.4,8.5,1.6,13.2,3.1c0,0,7.2,3.3,6,9.8c0,0,11.2-0.6,9.5,7.1c0,0,1.6,4-12.3,10.1c0,0,9.3,4.4,6.5,7.9
				c0,0,13.5,1.2,12.8,5.3c-0.3,1.8-1.2,2.1-3.1,2.5c-5.2,1.1-10.6,0.5-15.9-0.1c-5.4-0.6-10.6-0.7-16-0.6
				c-12.1,0.1-24.3,0.3-36.4,0.4c-15.9,0.2-31.8-0.5-47.7,0.5c-13.4,0.8-26.8,3.2-40.2,1.2c-1.1-0.2-3.7-1.3-4.1-2.3
				C262.4,157,271.4,156.1,273.3,155.7z"/>
			<path class="st1" d="M38.4,58.4c-1.3,0.3-1.8-3.6-1.6-4.3c1.4-3.9,7.5-4,10.8-4.5c5.6-0.8,11.2-1.8,16.8-2.9
				c2.8-0.5,5.6-1,8.4-1.6c1.9-0.4,5.7-0.2,6.9-1.9c0.3-0.5,0.5-1.4,0.7-2c2.3-5.3,7.4-8.2,13.1-8.2c0,0-1.9-4.1,10.8-2.8
				c5.3-0.4,10.7-0.5,16-0.3c4.7,0.1,20.1-0.3,21.6,6.1c0.9,4-3.9,8.5,0.9,11.8c0,0,6.3,4.2,0,6.9c0,0,14.8,1.2,12.7,5.9
				c0,0,25.9,1.9,10.7,9c-5.8,0.2-11.6,0.2-17.4,0.2c-5.2,0-10.4-0.2-15.6-0.4c-5.3-0.3-11.4-2.1-16.5-0.7c-1,0.3-2,0.7-3.1,0.9
				c-0.9,0.2-1.9,0.4-2.8,0.4c-7.1,0.5-13.9-1.9-21-1.1c-5,0.5-10.1,0.5-15.2,0.4c-9.8,0-19.9-0.3-29.6-2.6
				c-2.8-0.7-9.9-1.6-11.4-4.5C32.3,59.4,36.5,58.7,38.4,58.4z"/>
			<path class="st2" d="M0,104.7c0,0,0,32.2,0,32.2c1.7-0.2,3.4-0.2,5.1,0c2.3,0.2,3.8,1,5.8,1.9c2.2,1,4.8,1,7.1,1
				c10-0.2,19.9-0.1,29.9-0.9c4.4-0.3,8.9-0.7,13.2-1.6c2.1-0.4,6-0.9,7.5-2.8c0.4-0.5,0.7-1.1,0.5-1.7c0,0,1.1-8-12.7-5.5
				c0,0-25.6-3-25.6-3c-0.9-0.1-2.5-1.7-3.5-2.1c-2.6-1.1-5.3-1.2-7.9,0c0.6-1.9,0.1-4-1.1-5.6s-3.1-2.6-5-3.1
				c-2.5-0.7-5.3-0.8-7.9-0.7c2-0.1,3.3-3.6,2-5.1c-0.3-0.4-0.8-0.6-1.2-0.9c-0.7-0.5-1.3-1.2-2-1.7C3,104.1,1.4,104.3,0,104.7z"/>
		</g>
		<polygon class="st1" points="44.1,55.4 154.2,57.5 155.4,58.8 44.1,60.7 		"/>
	</g>
</g>
<g id="ground">
	<g>
		<path class="st3" d="M686.8,574.1c-36.4,4.2-72.9,7.5-109.4,9.9c-41.8,2.8-84,4.2-125.9,4.4c-2.3,0-4.7,0-7,0
			c-19.3-0.4-43.2-0.7-62.5-0.8c0,0-90.4-5.2-207.7-19.9c0,0-108.3-13-174.4-14.2v41.7h198.1h595.5v-35.3c-8.5,0.5-20,1.4-29.7,2.8
			C738.3,566.5,712.5,571.1,686.8,574.1z"/>
		<path class="st4" d="M382.1,587.5l-121.2-20.3L0,550.6l0,16.7c21.7,0,42.4,0.6,63.8,4c15.9,2.5,31.6,5.9,47.7,7.5
			c16.3,1.6,32.8,2.2,49.1,3.4c33.4,2.5,66.8,4.7,100.2,6.3c25.5,1.2,50.5-0.4,76-0.8C353.4,587.5,365.5,587.4,382.1,587.5z"/>
		<path class="st5" d="M754,556.1l-717.5-7.2l-5.1,0.2L0,550.6l0,2.8c66.1,1.2,174.4,14.2,174.4,14.2S66.1,554.6,0,553.4
			c66.1,1.2,174.4,14.2,174.4,14.2c117.2,14.7,207.7,19.9,207.7,19.9c19.3,0.1,43.2,0.4,62.5,0.8c2.3,0,4.7,0.1,7,0
			c41.9-0.2,84.1-1.6,125.9-4.4c36.5-2.4,73-5.8,109.4-9.9c25.7-2.9,51.4-7.3,77-11.1c9.7-1.4,19.3-2.9,29-4.6v-1.6L754,556.1z"/>
		<path class="st6" d="M0,582.4v12.8h198.1C89.8,575.8,0,582.4,0,582.4z"/>
		<g>
			<path class="st7" d="M0,567.3c21.7,0,42.8,0.6,64.2,4c15.9,2.5,31.6,5.9,47.7,7.5c16.3,1.6,32.8,2.2,49.1,3.4
				c33.4,2.5,66.8,4.7,100.2,6.3c25.5,1.2,50.5-0.4,76-0.8c16.6-0.3,28.6-0.3,45.2-0.2"/>
			<path class="st7" d="M382.5,587.5c19.3,0.1,43.2,0.4,62.5,0.8c2.3,0,4.7,0.1,7,0c41.9-0.2,84.1-1.6,125.9-4.4
				c36.5-2.4,73-5.8,109.4-9.9c25.7-2.9,51.4-7.3,77-11.1c9.7-1.4,19.3-2.9,29-4.6v-1.6"/>
		</g>
		<path class="st7" d="M198.1,595.4C89.8,576,0,582.4,0,582.4"/>
	</g>
</g>
<g id="tree">
	<path class="st8" d="M35.7,526.3l-8.8-12.6c0,0-3.5-4.2-6.7,0l-4.2,5.4c0,0-5.2,5.5,0,4.4l2.4-0.3l-5.4,10.8l-0.8,2.9H17l-2.5,9.6
		l0.2,2.7l3.2,2l14.5-0.8l1.7-3.9c0,0,6.1,1.4,4.5-1.3l-2.8-5.9c0,0,5.1,0,1.2-4.9l-2.4-4.7C34.5,529.5,38.8,530.8,35.7,526.3z"/>
	<path class="st9" d="M0,489.1c0,0,7.6,15.8,8.2,21.3L0,522.6V489.1z"/>
	<path class="st8" d="M5.5,510.7L0,518.1v35.4l15.1-0.8v-19.2l-1.4-11.1l2.7-1.5C16.5,520.8,7.9,506.3,5.5,510.7z"/>
	<path class="st10" d="M63.2,494.2c3.8-0.2,7.5-1.9,10.5-4.2c1.8-1.4,7-5.5,5.6-8.1c2.6,4.9,9.2,7.5,14.5,7.3
		c5.7-0.2,11.1-3.6,13.9-8.5c2.7,4.1,7.6,6.7,12.5,6.6c3.1,0,6.1-1,8.6-2.8c1.7-1.2,5.1-3.9,3.7-5.9c3.1,4.2,8.6,6.7,13.8,6.4
		c5.3-0.3,10.3-3.3,13.1-7.8c1.4,1.3,3.8,1.7,5.6,1.1c-1.6-9.6-4.7-18.8-10.7-26.5c-2.8-3.6-6.2-6.7-10.2-9c-0.3-0.2-4.7-2-4.7-2.1
		c-2.2-41.6-27.3-40.5-27.3-40.5c-36.8,1.5-48.1,68.5-48.1,68.5c0,0.2-1.3,0.8-1.5,0.9c-3.9,2.5-12.2,9.1-12.8,14.1
		C48.9,490.2,58.3,494.5,63.2,494.2z"/>
	<path class="st11" d="M167.1,501.5c-0.3-7.5-0.7-15.4-2.1-23.1c-1.8,0.5-4.2,0.1-5.6-1.1c-2.7,4.5-7.8,7.6-13.1,7.8
		c-5.2,0.3-10.7-2.2-13.8-6.4c1.5,2-2,4.7-3.7,5.9c-2.5,1.8-5.5,2.8-8.6,2.8c-4.9,0-9.8-2.5-12.5-6.6c-2.8,4.9-8.3,8.3-13.9,8.5
		c-5.3,0.2-11.9-2.4-14.5-7.3c1.4,2.6-3.8,6.7-5.6,8.1c-3,2.4-6.6,4-10.5,4.2c-5,0.3-14.4-4-13.6-10.3c-5.2,9.4-6.9,20.2-7.8,30.4
		c-0.5,5.6-4.3,36,4.9,36c0.2,0,121,0,121,0C168.3,550.2,167.3,506.6,167.1,501.5z"/>
	<path class="st12" d="M194.5,523.5c1.8,0,3.5,0.6,5.3,0.5c1.5,0,2.9-0.4,4.4-0.8c3-0.7,6.1-1.1,9.1-1.2
		c-0.1-14.7-1.6-30.1-7.6-31.8c-9.6-2.8-14.2,13.6-14.2,13.6c-3.1,7.1-5.2,14.3-6.7,20.9C188,525.5,191.2,523.6,194.5,523.5z"/>
	<path class="st13" d="M213.3,522.1c-3.1,0.1-6.1,0.5-9.1,1.2c-1.4,0.3-2.9,0.8-4.4,0.8c-1.8,0-3.5-0.6-5.3-0.5
		c-3.3,0-6.5,2-9.7,1.2c-3.3,14.4-3.4,25.7-3.4,25.7s31.4,0.2,31.5,0.2C212.3,550.7,213.4,536.5,213.3,522.1z"/>
	<g>
		<path class="st10" d="M259.5,478.4c14.8,2.4,24-4.4,24-4.4s14.1,29.7,40.6,7.4c0,0,12.5,0.8,18.7-4.3c0,0,14.3,22,26.8,17.1
			c0,0,5.5,9.8,22.3,0.7c-0.2-6-0.6-11.8-1.2-17c-1.5-13.5-2.3-27.2-7-40.1c-5.1-13.6-15-33.1-31.7-33.8c-5.8-0.2-11.5,1.7-16.5,4.6
			c-0.5,0.3-6.8,4.8-6.8,4.8c-40.4-28.4-69.5,42.7-69.5,42.7c-4.3,7.9-8,20.6-11,34C259.5,486.1,259.5,478.4,259.5,478.4z"/>
		<path class="st11" d="M392,494.9c-16.8,9.1-22.3-0.7-22.3-0.7c-12.5,4.9-26.8-17.1-26.8-17.1c-6.1,5.1-18.7,4.3-18.7,4.3
			c-26.6,22.2-40.6-7.4-40.6-7.4s-9.2,6.8-24,4.4c0,0-0.1,7.7-11.3,11.7c-6.4,28.7-9.7,61.3-9.7,61.3l143.1,1.4
			C390.7,536.8,392.7,514.4,392,494.9z"/>
	</g>
	<g>
		<path class="st13" d="M446.7,511.2c-8,13.6-18.2,4-18.2,4c-9.1,2.3-11.7-5.2-11.7-5.2s-4.9,1.9-8.9-2.4c0,0-4.5,5.8-11.1,0.3V545
			l4,6.1h44.5l1.2-10C447.3,527.9,447.2,518.2,446.7,511.2z"/>
		<path class="st12" d="M407.9,507.6c4,4.3,8.9,2.4,8.9,2.4s2.6,7.5,11.7,5.2c0,0,10.3,9.6,18.2-4c-0.8-12.2-3.9-18.3-3.9-18.3
			c2.3-15.6,1.6-26.5,1.6-26.5c-1.9-22-14.9-21.1-14.9-21.1c-26.1,0-17.6,40.2-17.6,40.2c-16.4-1-15.1,20.2-15.1,20.2v2.2
			C403.4,513.4,407.9,507.6,407.9,507.6z"/>
	</g>
	<g>
		<path class="st13" d="M575.6,525.1c-2.1,6.9-10.4,4.3-10.4,4.3c-5.5,6.7-14.1,0-14.1,0c-7.1,3.5-14.1-2.7-14.1-2.7
			c-5.3,6.5-14.1,1.4-14.1,1.4s-7.7,15.3-21.5,0.6c-0.3,1.1-0.5,2.2-0.7,3.3c-0.3,1.9-2.9,21.6-1.7,21.6c0,0,77.7,0.8,77.7,0.8
			S578.8,535.2,575.6,525.1z"/>
		<path class="st12" d="M523.1,528.1c0,0,8.7,5.1,14.1-1.4c0,0,6.9,6.2,14.1,2.7c0,0,8.5,6.7,14.1,0c0,0,8.3,2.6,10.4-4.3
			c-0.6-1.9-1.3-3.4-2.3-4.5c0,0-3.6-14.7-18.4-19.4c0,0,2-17.9-15-19.2c0,0-19,5-17.4,23.6c0-0.5-10.4,5.2-11.1,5.7
			c-5.4,4.4-8.2,10.9-9.8,17.5C515.4,543.4,523.1,528.1,523.1,528.1z"/>
	</g>
	<g>
		<path class="st11" d="M719,498.6c-10.7,5.2-22.1-7.7-22.1-7.7c-17.1,17.8-33.8,2.8-33.8,2.8c-30,16-46.1-4.5-46.1-4.5
			s-18,18.8-28,13.9c-6.5,25.5-5.1,51.3-5.1,51.3l138.2,2C726.2,517,719,498.6,719,498.6z"/>
		<path class="st10" d="M616.9,489.1c0,0,16,20.6,46.1,4.5c0,0,16.7,15,33.8-2.8c0,0,11.5,12.9,22.1,7.7l-0.2-30.4
			c2.8-61.4-31.4-65.2-31.4-65.2c-35.2-6.6-49.5,50.9-49.5,50.9c-29.1,0.3-42.7,24.6-48.9,49.2C599,507.9,616.9,489.1,616.9,489.1z"
			/>
	</g>
	<g>
		<path class="st13" d="M779.9,508.5c0,0-3.5,3.7-11.9,0c0,0-3.3,8.2-11.8,6.1c-0.1,1.9-0.1,3.8-0.1,5.9l-1.7,36.3h39.2v-46.6
			C789.5,515.1,779.9,508.5,779.9,508.5z"/>
		<path class="st12" d="M772.9,481.9c0,0-15.2-5.8-16.6,32.7c8.4,2.1,11.8-6.1,11.8-6.1c8.4,3.7,11.9,0,11.9,0s9.6,6.6,13.7,1.8
			v-63.3C793.6,446.9,774.3,451,772.9,481.9z"/>
	</g>
	<path class="st14" d="M546.3,554.4c-0.6-1,0.6-2.1,1.7-2.6c1.1-0.5,2.3-1.5,1.7-2.5c-0.2-0.4-2.1,0.2-1.2-1.6
		c0.5-1,2.3-1.4,3.3-1.1c0.7,0.2,1.5,0.7,2.2,0.3c0.3-0.2,0.5-0.6,0.7-0.9c0.7-0.9,2-1.1,3.1-0.8c1.1,0.2,2.1,0.8,3.2,1.1
		c2.3,0.8,2.8-0.3,4.6-1.2c1.6-0.8,3.7-0.4,5.5,0c1.9,0.4,4,1.1,5.8,0.3c1.6-0.7,2.8-2.5,4.7-1.7c0.9,0.4,1.3,1.4,2.1,1.8
		c0.2,0.1-0.1-3.1-0.1-3.2c0-0.4,0-0.7,0.2-1c0.2-0.4,0.7-0.5,1.1-0.5c0.4,0,0.9,0,1.3,0c1.4,0,2.4-1.2,3.8-1.4
		c1.8-0.4,3.7-0.3,5.5-0.5c0.5,0,1-0.1,1.5-0.2c0.5-0.2,1-0.5,1.5-0.6c0.9-0.2,1.8,0.1,2.6,0.6c0.7,0.4,1.3,0.9,1.6,1.6
		c0.3,0.7,0.2,1.5,0.5,2.3c0.8,2.5,6.8-0.3,8.9,0.6c0.7,0.3,1.3,0.8,2.1,1.1c1.6,0.7,3.6,0.1,5.2-0.6c1.6-0.8,3.2-1.7,5-1.9
		s3.8,1,3.9,2.8c0.5-1.1,2.3-0.3,2.8,0.8c0.5,1.1,0.5,2.5,1.5,3.3c1.5,1.1,3.7-0.3,5.4,0.5c1.1,0.5,1.6,1.8,2.6,2.3
		c0.6,0.3,1.2,0.2,1.8,0.3c1.8,0.3,3.3,2,3.9,3.7L546.3,554.4z"/>
	<path class="st15" d="M690.5,526.1l-5.9,12.3c-0.2,0.3,0.1,0.7,0.4,0.7h2.6l-2.9,6.6c-0.2,0.5,0.1,1,0.7,1h1.3l-2.4,9.6l6.7,0
		v-30.1C691,525.9,690.6,525.8,690.5,526.1z"/>
	<path class="st15" d="M691,526.1l5.9,12.3c0.2,0.3-0.1,0.7-0.4,0.7h-2.6l2.9,6.6c0.2,0.5-0.1,1-0.7,1h-1.3l2.4,9.7l-6.7-0.1v-30.1
		C690.5,525.9,690.8,525.8,691,526.1z"/>
	<path class="st15" d="M679,535l-9.6,12.5c0,0-2,3.3,1.8,2.9l-2.4,5.4l12.6,0.2v-1.9c0,0,4.3,1.4,1.4-2.6c0-0.8-0.4-1.8-0.6-2.5
		c-0.2-0.6-0.4-1.3-0.6-1.9c-0.1-0.5-0.5-1.2-0.5-1.7c0,0.1,0.2,0.1,0.3,0.1c0.2-0.1,0.4-0.1,0.6-0.2c0.2-0.1,0.4-0.1,0.6-0.3
		c0.5-0.4,0.3-1.1,0.2-1.8c-0.6-2.1-1-4.3-1.1-6.5c-0.1-0.8,0.3-2.8-0.7-3.2C680.2,533.3,679.4,534.6,679,535z"/>
	<path class="st16" d="M700.7,572.2c0.4-1.7,1.7-4.1,3.4-4.3c0.6-0.1,1.2,0,1.7-0.2c1.3-0.5,1.8-2,2.8-3c2-1.9,5.2-1,7.9-1.3
		c0.4,0,0.9-0.1,1.3-0.3c0.6-0.3,1.1-0.8,1.5-1.3c1.1-1.3,2.3-2.5,3.5-3.7c0.6-0.6,1.2-1.2,2-1.3c1.9-0.4,3,1.6,4.6,2.1
		c3.3,1,6.6-1.3,10-0.9c1.8,0.2,3.6,1,4.6,2.6c0.3,0.4,0.5,0.9,0.9,1.2c0.5,0.3,1.1,0.3,1.7,0.2c0.9-0.2,1.7-0.6,2.3-1.3
		c0.9-1.2-0.2-3.9,1.2-4.5c0.6-0.3,1.3-0.1,1.9,0.1c0.2-1.4,3-3.4,4.3-3.5c2-0.1,1.3,1.9,2.9,2.5c0.2,0.1,0.5,0.1,0.7,0.1
		c1.3,0,3.5-0.1,4.7-0.7c1.5-0.7,1.9-2.6,3.4-3.3c1.5-0.7,4.2-0.5,5.3,0.8c0.4,0.4,0.6,1,1,1.3c2,1.6,5.3-1.9,6.5-3.1
		c1.5-1.5,3.5-3.1,5.5-2.3c0.3,0.1,0.6,0.3,0.8,0.6c0.8,0.9,1,2.2,1.3,3.3c0.3,1.2,3.8,2.9,5,2.9v5.2L700.7,572.2z"/>
	<path class="st17" d="M554.8,585.3c1.3-0.6,0.9-0.6,1.3-1.3c0.9-1.7,3.1-2.6,5-2c0.3-1.9,1.2-3.6,2.6-4.9c1.3-1.2,3.1,0.8,4.4,1.3
		c2.3,1,7,1.3,9.4,0.4c0.8-0.3,1.1-1.1,1.8-1.6c1.1-0.8,2.7-0.3,4.1,0.2c1.8,0.6,2.7,0.3,4-0.8c1.2-1.1,1.6-3.2,3.7-1.6
		c1.5,1.2,1.2,3.6,3.4,3.4c3.7-0.3,6.2,3.6,9.9,3.6l-27.1,1.9L554.8,585.3z"/>
	<path class="st18" d="M82.1,558.3c-1.6-0.4-3.3-1.2-4.9-1.6c-1.1-0.3-2.3-0.8-3.4-1c-1.3-0.2-2.4,0-3.6-0.7
		c-0.4-0.3-0.8-0.6-1.2-0.9c-1.1-0.8-2.6-1-3.9-0.8c-1.2,0.2-2.1,0.9-3.2-0.2c-0.4-0.5-0.9-1-1.5-1.1c-0.9-0.1-1.5,0.9-2.4,1.1
		c-0.7,0.1-2-0.1-2.8-0.2c-0.9-0.1-1.8-0.2-2.7-0.2c-0.4,0-0.9-0.1-1.3-0.2c-0.7-0.2-1.5-0.8-2.2-0.4c-0.8,0.7-3.5,1.9-4.5,1.2
		c-0.4-0.3-0.7-0.7-0.9-1.2c-1-1.6-2.5-2.9-4.3-3.6c-0.3-0.1-0.7-0.2-1-0.2c-0.4,0.1-0.7,0.5-1.1,0.7c-0.6,0.4-2.1,0.6-2.6-0.1
		c-0.7-1.2,0.9-3-1.5-3.2c-0.7-0.1-1.4,0.3-1.8,0.9c-0.1,0.1-0.1,0.3-0.3,0.3c-0.2,0.1-0.4,0-0.7-0.1c-0.7-0.3-2-0.6-2.8-0.3
		c-0.5,0.2-0.8,0.8-1.3,1c-0.6,0.2-1.2-0.3-1.8-0.3c-1.2-0.1-2,1.5-3.2,1.4c-0.7-0.1-1.2-0.7-1.9-0.7c-1,0-1.6,1.2-2.5,1.6
		c-1.5,0.7-3.1-0.8-4.7-1c-0.4,1.9-1.7,3.4-3.1,1.5c-0.9-1.2-2.3-3-3.9-1.3C4,550,0.8,548,0,550l0,3.4L82.1,558.3z"/>
	<path class="st19" d="M93.6,550.2c0,0,79.2,0,79.2,0c0.2-0.4-1-2.7-1.3-3.1c-0.7-0.9-1.8-1.5-2.9-1.5c-0.9,0-1.8,0.3-2.7,0.1
		c-0.6-0.2-1.1-0.6-1.6-0.9c-1.6-1-3.6-1.3-5.3-0.8c-0.1,0.2-0.2,0.4-0.3,0.6c-0.8,0.6-1.6,1.2-2.5,1.5c-1.2,0.4-3.5,0-4.3-1.1
		c-0.3-0.5-0.5-1.1-0.8-1.6c-0.6-0.7-1.6-1.7-2.4-2c-0.5-0.2-1.1-0.2-1.7-0.2c-0.6,0-1.2,0.1-1.7,0.3c-1.1,0.4-1.7,1.5-1.7,2.6
		c0,1.1,0.8,2.2-0.1,3.2c-0.9,0.9-2.7-0.5-3.1-1.3c-0.3-0.6-0.5-1.4-0.9-2c-0.7-0.8-1.8-0.9-2.8-1.3c-0.8-0.4-1.5-1.2-2.2-1.7
		c-3.2-2.4-3.3,1.8-5.2,2.8c-0.8,0.4-1.8,0.3-2.5-0.2c-0.9-0.7-1.2-1.8-1.9-2.6c-0.7-0.7-1.7-1-2.7-1c-1,0-1.9,0.2-2.9,0.5
		c-0.8,0.2-1.6,0.5-2,1.1c-0.3,0.5-0.4,1.1-0.5,1.7c-0.2,1-1.6,3.5-2.5,1.5c-0.1-0.2-0.1-0.5-0.3-0.7c-0.3-0.4-0.9-0.5-1.4-0.4
		s-0.9,0.5-1.4,0.6c-1.3,0.4-2.8-0.3-3.9,0.5c-0.2,0.1-0.4,0.3-0.6,0.4c-0.7,0.2-1.3-0.6-2.1-0.5c-0.5,0-0.9,0.4-1.3,0.6
		c-2.2,1-3.6-0.4-5.4,1.7C96.7,548.3,95.6,550.2,93.6,550.2z"/>
	<path class="st20" d="M303,552.1c-0.1-1.2,0.1-2.7,0-3.9c1.1-0.6,2.3-0.9,3.6-0.7c-0.2-2,2.1-3.9,4.1-3.2c1.4,0.5,2.3,1.9,3.4,2.8
		c1.1,1,3.1,1.4,3.9,0.2c0.4-0.6,0.4-1.3,0.5-1.9c0.7-4.1,6.1-5.5,10.2-4.6c4.1,0.8,8,2.9,12.2,2.3c2.9-0.4,6.4-2,8.5,0
		c0.8,0.8,1.4,2.1,2.5,2.1c0.8,0,1.4-0.7,2.1-0.8c1.5-0.4,2.7,1.2,3.8,2.3c2.5,2.4,6.8,2.6,9.5,0.4c1.5-1.2,3.1-3.3,5-2.6
		c0.1-1.7,0.4-3.8,1.9-4.4c2.7-1.1,4.5,3.3,7.2,4.1c1,0.3,2.2,0.1,3.3,0.5c1.6,0.5,2.6,2.1,3.8,3.2c1.3,1.1,3.6,1.6,4.4,0.1
		c0.4-0.8,0.2-1.7,0.4-2.5c0.8-3.2,5.8-2.2,8.6-3.8c0.9-0.5,1.6-1.4,2.6-1.9c1.8-1,4.1-0.5,5.7,0.6c1.7,1.1,2.9,2.8,4,4.5
		c0.8,1.1,1.6,2.3,2.4,3.4c1.4-1.7,4.3-0.9,6.2,0.2s4.4,2.4,6.3,1.3c0.7-1,1-2.2,1.1-3.4c3.4-0.9,6.9,2.5,10.2,1.3
		c2.8-1,3.6-4.7,6-6.5c1.9-1.4,4.5-1.4,6.7-0.5c2.2,0.9,3.9,2.5,5.5,4.3c0.8,0.8,1.6,1.7,2.7,2c0.8,0.2,1.7,0.1,2.5,0.2
		c3.1,0.3,5.2,3.1,8.1,4.1c2,0.7,4.2,0.3,6.3,0.4c2.1,0.1,4,0.1,4.9,2L303,552.1"/>
	<path class="st15" d="M723.3,516.7c0,0-2.1-4.7-4.3,0l-10.5,18.5c0,0-3.8,6.1,2.9,5l-3.6,7.2c0,0-1.8,2.2,2.5,2.1l-2.9,6.6h54.3
		l-2.5-9.6c0,0,4.6,1,0-4.2h3.1c0,0,3.8,0.1,0.7-4.1l-4.9-7.5c0,0,8,0.4,3.4-4.1l-15.6-18.2c0,0-2.5-3.1-4.8,0L730,526.7
		c0,0-0.3,1.5-1.5,0L723.3,516.7z"/>
</g>
</svg>
