<?xml version="1.0" encoding="utf-8"?>
<!-- Generator: Adobe Illustrator 16.0.0, SVG Export Plug-In . SVG Version: 6.00 Build 0)  -->
<!DOCTYPE svg PUBLIC "-//W3C//DTD SVG 1.1//EN" "http://www.w3.org/Graphics/SVG/1.1/DTD/svg11.dtd">
<svg version="1.1" id="Layer_1" xmlns="http://www.w3.org/2000/svg" xmlns:xlink="http://www.w3.org/1999/xlink" x="0px" y="0px"
	 width="184.25px" height="184.25px" viewBox="0 0 184.25 184.25" enable-background="new 0 0 184.25 184.25" xml:space="preserve">
<g>
	<circle fill="#00814A" cx="92.125" cy="93.127" r="87.13"/>
	<circle fill="#00A35B" cx="91.572" cy="91.984" r="82.575"/>
	<g>
		<path fill="#4E5653" d="M62.976,106.62c-0.706,2.988-2.053,5.285-4.041,6.889c-2.045,1.59-4.467,2.385-7.264,2.385
			c-2.532-0.059-4.645-0.678-6.338-1.855c-1.723-1.133-2.974-2.443-3.754-3.93c-0.235-0.486-0.449-0.949-0.641-1.391
			c-0.176-0.457-0.323-1.031-0.441-1.723c-0.221-1.295-0.331-3.782-0.331-7.464c0-3.738,0.11-6.24,0.331-7.507
			c0.236-1.267,0.596-2.289,1.082-3.069c0.78-1.486,2.031-2.812,3.754-3.975c1.693-1.178,3.806-1.781,6.338-1.811
			c3.105,0.029,5.638,0.949,7.596,2.76c1.958,1.826,3.194,4.086,3.709,6.779H57.81c-0.398-1.295-1.119-2.399-2.164-3.313
			c-1.09-0.868-2.414-1.317-3.975-1.347c-1.148,0.029-2.135,0.258-2.959,0.685c-0.84,0.441-1.517,0.994-2.031,1.656
			c-0.634,0.691-1.053,1.582-1.26,2.672c-0.234,1.148-0.354,3.305-0.354,6.469c0,3.166,0.119,5.308,0.354,6.427
			c0.207,1.117,0.626,2.023,1.26,2.715c0.515,0.662,1.191,1.199,2.031,1.611c0.824,0.486,1.811,0.73,2.959,0.73
			c2.738,0,4.783-1.465,6.139-4.395H62.976z"/>
		<path fill="#4E5653" d="M66.421,83.434h4.88v27.581h15.679v4.615H66.421V83.434z"/>
		<path fill="#4E5653" d="M91.571,83.434h4.881v32.196h-4.881V83.434z"/>
		<path fill="#4E5653" d="M124.937,106.62c-0.707,2.988-2.053,5.285-4.041,6.889c-2.046,1.59-4.467,2.385-7.265,2.385
			c-2.532-0.059-4.644-0.678-6.337-1.855c-1.723-1.133-2.974-2.443-3.754-3.93c-0.236-0.486-0.449-0.949-0.641-1.391
			c-0.177-0.457-0.324-1.031-0.441-1.723c-0.221-1.295-0.332-3.782-0.332-7.464c0-3.738,0.111-6.24,0.332-7.507
			c0.235-1.267,0.596-2.289,1.082-3.069c0.78-1.486,2.031-2.812,3.754-3.975c1.693-1.178,3.805-1.781,6.337-1.811
			c3.106,0.029,5.639,0.949,7.597,2.76c1.957,1.826,3.193,4.086,3.709,6.779h-5.166c-0.398-1.295-1.119-2.399-2.164-3.313
			c-1.09-0.868-2.415-1.317-3.976-1.347c-1.147,0.029-2.134,0.258-2.958,0.685c-0.84,0.441-1.518,0.994-2.032,1.656
			c-0.633,0.691-1.052,1.582-1.259,2.672c-0.235,1.148-0.354,3.305-0.354,6.469c0,3.166,0.118,5.308,0.354,6.427
			c0.207,1.117,0.626,2.023,1.259,2.715c0.515,0.662,1.192,1.199,2.032,1.611c0.824,0.486,1.811,0.73,2.958,0.73
			c2.738,0,4.784-1.465,6.14-4.395H124.937z"/>
		<path fill="#4E5653" d="M128.382,83.434h4.88v16.583h0.089l13.248-16.583h5.785l-10.312,12.697l11.394,19.499h-5.785
			l-8.766-15.745l-5.653,5.94v9.805h-4.88V83.434z"/>
	</g>
	<g>
		<path fill="#FFFFFF" d="M18.425,99.281c0-45.848,37.166-83.015,83.015-83.015c16.093,0,31.065,4.655,43.787,12.582
			C130.756,16.576,112.056,9.141,91.596,9.141C45.747,9.141,8.58,46.308,8.58,92.156c0,29.755,15.706,55.779,39.228,70.433
			C29.852,147.362,18.425,124.669,18.425,99.281z"/>
	</g>
	
		<ellipse transform="matrix(0.759 -0.6511 0.6511 0.759 -19.5439 39.6961)" fill="#FFFFFF" cx="43.849" cy="46.248" rx="21.268" ry="15.055"/>
	<g>
		<path fill="#F9EA5E" d="M61.646,104.544c-0.706,2.988-2.053,5.285-4.041,6.891c-2.045,1.59-4.467,2.385-7.264,2.385
			c-2.533-0.059-4.645-0.678-6.338-1.855c-1.723-1.133-2.974-2.443-3.754-3.93c-0.235-0.486-0.449-0.949-0.641-1.393
			c-0.176-0.455-0.324-1.029-0.441-1.721c-0.221-1.296-0.331-3.784-0.331-7.464c0-3.738,0.11-6.242,0.331-7.508
			c0.235-1.266,0.596-2.289,1.082-3.068c0.78-1.487,2.031-2.813,3.754-3.975c1.693-1.178,3.805-1.782,6.338-1.812
			c3.105,0.029,5.638,0.95,7.596,2.761c1.957,1.825,3.194,4.085,3.709,6.779h-5.166c-0.398-1.297-1.119-2.4-2.164-3.313
			c-1.09-0.869-2.414-1.318-3.975-1.348c-1.148,0.029-2.135,0.258-2.959,0.685c-0.84,0.442-1.517,0.994-2.031,1.656
			c-0.634,0.692-1.053,1.583-1.26,2.672c-0.235,1.148-0.354,3.306-0.354,6.47s0.118,5.307,0.354,6.426
			c0.207,1.118,0.626,2.024,1.26,2.716c0.515,0.662,1.191,1.199,2.031,1.611c0.824,0.486,1.811,0.729,2.959,0.729
			c2.738,0,4.783-1.465,6.139-4.395H61.646z"/>
		<path fill="#F9EA5E" d="M65.091,81.359h4.88v27.58h15.678v4.615H65.091V81.359z"/>
		<path fill="#F9EA5E" d="M90.241,81.359h4.881v32.195h-4.881V81.359z"/>
		<path fill="#F9EA5E" d="M123.606,104.544c-0.707,2.988-2.053,5.285-4.041,6.891c-2.046,1.59-4.467,2.385-7.265,2.385
			c-2.532-0.059-4.645-0.678-6.337-1.855c-1.723-1.133-2.975-2.443-3.754-3.93c-0.236-0.486-0.449-0.949-0.641-1.393
			c-0.177-0.455-0.324-1.029-0.441-1.721c-0.221-1.296-0.332-3.784-0.332-7.464c0-3.738,0.111-6.242,0.332-7.508
			c0.235-1.266,0.596-2.289,1.082-3.068c0.779-1.487,2.031-2.813,3.754-3.975c1.692-1.178,3.805-1.782,6.337-1.812
			c3.106,0.029,5.638,0.95,7.597,2.761c1.957,1.825,3.193,4.085,3.709,6.779h-5.167c-0.397-1.297-1.118-2.4-2.164-3.313
			c-1.089-0.869-2.414-1.318-3.975-1.348c-1.147,0.029-2.134,0.258-2.958,0.685c-0.84,0.442-1.518,0.994-2.032,1.656
			c-0.633,0.692-1.053,1.583-1.259,2.672c-0.235,1.148-0.354,3.306-0.354,6.47s0.118,5.307,0.354,6.426
			c0.206,1.118,0.626,2.024,1.259,2.716c0.515,0.662,1.192,1.199,2.032,1.611c0.824,0.486,1.811,0.729,2.958,0.729
			c2.738,0,4.784-1.465,6.139-4.395H123.606z"/>
		<path fill="#F9EA5E" d="M127.052,81.359h4.879v16.584h0.089l13.249-16.584h5.785l-10.313,12.698l11.395,19.497h-5.785
			l-8.766-15.743l-5.654,5.939v9.804h-4.879V81.359z"/>
	</g>
	<g opacity="0.35">
		<path fill="#FFFFFF" d="M44.89,52.017c27.664-31.656,77.059-37.965,107.65-5.221c10.737,11.494,18.41,23.57,21.237,37.944
			c-0.891-18.522-9.278-36.099-22.929-50.71C120.257,1.285,70.728,16.396,40.913,35.403c-24.523,15.633-25.986,57.066-20.76,83.645
			C19.048,96.063,28.56,70.701,44.89,52.017z"/>
	</g>
</g>
</svg>
