<?xml version="1.0" encoding="utf-8"?>
<!-- Generator: Adobe Illustrator 16.0.0, SVG Export Plug-In . SVG Version: 6.00 Build 0)  -->
<!DOCTYPE svg PUBLIC "-//W3C//DTD SVG 1.1//EN" "http://www.w3.org/Graphics/SVG/1.1/DTD/svg11.dtd">
<svg version="1.1" id="Layer_1" xmlns="http://www.w3.org/2000/svg" xmlns:xlink="http://www.w3.org/1999/xlink" x="0px" y="0px"
	 width="184.25px" height="184.25px" viewBox="0 0 184.25 184.25" enable-background="new 0 0 184.25 184.25" xml:space="preserve">
<g>
	<circle fill="#00814A" cx="93.124" cy="92.125" r="87.13"/>
	<circle fill="#00A35B" cx="92.572" cy="90.982" r="82.575"/>
	<g>
		<path fill="#FFFFFF" d="M19.424,98.281c0-45.848,37.167-83.016,83.016-83.016c16.092,0,31.064,4.656,43.787,12.582
			C131.756,15.576,113.055,8.141,92.596,8.141C46.747,8.141,9.58,45.307,9.58,91.156c0,29.754,15.706,55.777,39.228,70.434
			C30.851,146.361,19.424,123.67,19.424,98.281z"/>
	</g>
	
		<ellipse transform="matrix(0.759 -0.6511 0.6511 0.759 -18.6512 40.1038)" fill="#FFFFFF" cx="44.849" cy="45.247" rx="21.267" ry="15.055"/>
	<g opacity="0.35">
		<path fill="#FFFFFF" d="M45.889,51.016c27.665-31.656,77.059-37.965,107.65-5.219c10.738,11.492,18.41,23.568,21.238,37.943
			c-0.891-18.523-9.279-36.098-22.93-50.711C121.256,0.285,71.727,15.396,41.912,34.402c-24.523,15.633-25.986,57.066-20.759,83.645
			C20.048,95.063,29.56,69.701,45.889,51.016z"/>
	</g>
	<g>
		<path fill="#3C75AA" d="M80.96,70.451c0.36-5.211,1.71-9.994,5.979-13.455c2.569-2.086,5.616-3.045,8.833-3.551
			c2.115-0.332,4.248-0.395,6.383-0.404c3.6-0.016,7.201,0.006,10.803-0.014c0.525-0.002,0.768,0.064,0.764,0.699
			c-0.031,4.758-0.031,9.516-0.002,14.273c0.004,0.641-0.209,0.742-0.785,0.746c-2.982,0.02-5.967-0.131-8.945,0.096
			c-0.408,0.031-0.816,0.105-1.213,0.205c-1.855,0.465-2.793,1.535-3.008,3.443c-0.076,0.688-0.125,1.383-0.131,2.076
			c-0.02,2.52,0.008,5.041-0.035,7.561c-0.01,0.631,0.193,0.758,0.783,0.754c4.191-0.025,8.385-0.002,12.576-0.023
			c0.629-0.004,0.865,0.031,0.773,0.818c-0.535,4.596-0.992,9.199-1.465,13.801c-0.107,1.041-0.088,1.043-1.094,1.043
			c-3.574-0.002-7.15,0.016-10.725-0.02c-0.668-0.008-0.852,0.146-0.852,0.838c0.023,14.559,0.02,29.115,0.016,43.674
			c0,1.15,0.148,1.006-1.037,1.006c-5.658,0.004-11.317-0.01-16.975,0.016c-0.647,0.004-0.806-0.176-0.806-0.813
			c0.019-14.557,0.016-29.115,0.013-43.672c0-1.189,0.132-1.014-1.022-1.023c-2.083-0.016-4.165-0.018-6.248-0.027
			c-0.266-0.551-0.766-0.271-1.149-0.277c-0.52-0.008-0.72-0.141-0.717-0.699c0.02-4.578,0.021-9.156-0.001-13.734
			c-0.003-0.596,0.202-0.732,0.759-0.729c2.572,0.025,5.144-0.008,7.716,0.025c0.649,0.01,0.821-0.193,0.817-0.828
			C80.941,78.32,80.957,74.387,80.96,70.451z"/>
		<path fill="#5B7CAB" d="M80.96,70.451c-0.003,3.936-0.019,7.869,0.005,11.805c0.004,0.635-0.168,0.838-0.817,0.828
			c-2.572-0.033-5.144,0-7.716-0.025c-0.557-0.004-0.762,0.133-0.759,0.729c0.022,4.578,0.021,9.156,0.001,13.734
			c-0.002,0.559,0.198,0.691,0.717,0.699c0.383,0.006,0.883-0.273,1.149,0.277c-2.137,0.139-2.135,0.139-2.135-1.936
			c0.001-4.313,0.015-8.627-0.016-12.939c-0.005-0.658,0.206-0.805,0.817-0.799c2.619,0.029,5.238-0.01,7.856,0.029
			c0.642,0.01,0.757-0.207,0.754-0.787c-0.019-3.313-0.006-6.623,0.009-9.936C80.828,71.57,80.792,71,80.96,70.451z"/>
	</g>
</g>
</svg>
