<?xml version="1.0" encoding="utf-8"?>
<!-- Generator: Adobe Illustrator 16.0.0, SVG Export Plug-In . SVG Version: 6.00 Build 0)  -->
<!DOCTYPE svg PUBLIC "-//W3C//DTD SVG 1.1//EN" "http://www.w3.org/Graphics/SVG/1.1/DTD/svg11.dtd">
<svg version="1.1" id="Layer_1" xmlns="http://www.w3.org/2000/svg" xmlns:xlink="http://www.w3.org/1999/xlink" x="0px" y="0px"
	 width="232.44px" height="212.6px" viewBox="0 0 232.44 212.6" enable-background="new 0 0 232.44 212.6" xml:space="preserve">
<g>
	<g>
		<g>
			<path fill="#F0DEC7" d="M227.262,96.4c0.715-6.729-0.912-13.826-5.631-20.033l-25.578-33.646
				c-5.371-7.064-13.734-19.045-22.608-19.045H59.38c-9.185,0-17.803,12.275-23.132,19.756L12.284,77.08
				c-4.313,6.057-5.598,12.83-4.917,19.281c-0.117,0.67-0.4,1.281-0.4,1.984v24.221c0,6.105,4.951,11.055,11.057,11.055h198.395
				c6.106,0,11.057-4.949,11.057-11.055V97.451C227.475,97.078,227.297,96.764,227.262,96.4z"/>
			<path d="M216.418,136.334H18.023c-7.593,0-13.77-6.172-13.77-13.764V98.35c0-0.816,0.186-1.486,0.318-1.984
				c-0.716-7.443,1.15-14.762,5.503-20.869l23.961-33.637c6.061-8.516,14.889-20.902,25.345-20.902h114.063
				c9.607,0,17.699,10.742,23.611,18.578l26.739,35.188c4.794,6.299,6.936,13.742,6.209,21.527l0.186,1.197v25.123
				C230.188,130.162,224.012,136.334,216.418,136.334z M59.381,26.387c-7.657,0-15.822,11.463-20.7,18.303L14.497,78.646
				c-3.574,5.016-5.106,11.039-4.433,17.434l0.042,0.381l-0.069,0.371c-0.058,0.33-0.143,0.658-0.228,0.977L9.683,122.57
				c0,4.592,3.743,8.334,8.34,8.334h198.395c4.598,0,8.341-3.742,8.341-8.334V97.447c-0.09-0.148-0.164-0.455-0.196-0.773
				l-0.031-0.275l0.031-0.287c0.695-6.543-1.065-12.811-5.09-18.102l-26.756-35.207c-4.926-6.533-12.369-16.416-19.273-16.416
				H59.381z"/>
		</g>
		<path fill="#FFFFFF" d="M36.813,205.307"/>
		<g>
			<path fill="#F0DEC7" d="M34.607,198.367l-15.076-64.746H212.5l-14.701,64.676c-1.275,5.611-5.786,9.539-10.956,9.539H45.547
				C40.402,207.836,35.906,203.945,34.607,198.367z"/>
			<path d="M186.842,210.557H45.547c-6.41,0-11.994-4.762-13.584-11.57l-15.849-68.082h199.784l-15.455,67.998
				C198.889,205.762,193.295,210.557,186.842,210.557z M37.254,197.756c1.007,4.338,4.422,7.371,8.292,7.371h141.295
				c3.897,0,7.318-3.055,8.309-7.434l13.951-61.359H22.954L37.254,197.756z"/>
		</g>
	</g>
	<g>
		<path fill="#EC8E3C" d="M119.066,44.064h-3.234c-6.977,0-12.685-5.707-12.685-12.686l0,0c0-10.695,5.708-12.684,12.685-12.684
			h3.234c6.977,0,12.83,1.242,12.686,12.684l0,0C131.752,38.357,126.043,44.064,119.066,44.064z"/>
		<g>
			<g>
				<polygon fill="#EC8E3C" points="97.354,134.615 99.405,206.867 131.805,206.867 137.547,134.615 				"/>
			</g>
			<polygon fill="#EC8E3C" points="94.679,132.668 93.581,89.449 105.958,48.486 109.494,44.064 125.702,44.064 128.943,49.074 
				141.321,89.301 138.883,132.668 			"/>
			<path fill="#EC8E3C" d="M106.706,21.176c0,0-14.445-11.305-26.91-15.252c0,0-8.458-2.555-12.242,3.715
				c0,0-8.681,21.129-8.458,33.201c0,0,2.449,8.127,16.472,5.34c0,0,11.352-13.598,27.601-15.92
				C103.167,32.26,102.699,23.033,106.706,21.176z"/>
			<path fill="#EC8E3C" d="M109.183,44.064c0,0-19.952,14.439-15.619,37.547c0,0-7.133-9.877-14.365-12.348
				c0,0-7.056-2.117-15.17,3.176c0,0,4.535-32.988,39.84-40.219"/>
			<path fill="#EC8E3C" d="M125.702,44.064c0,0,19.952,14.439,15.619,37.547c0,0,7.132-9.877,14.364-12.348
				c0,0,7.057-2.117,15.17,3.176c0,0-4.535-32.988-39.84-40.219"/>
			<path fill="#EC8E3C" d="M128.043,20.723c0,0,13.879-9.967,26.344-13.752c0,0,8.459-2.447,12.242,3.563
				c0,0,8.682,20.256,8.459,31.83c0,0-2.449,7.789-16.471,5.119c0,0-10.617-13.877-26.865-16.104
				C131.752,31.379,132.05,22.504,128.043,20.723z"/>
		</g>
	</g>
	<g id="bow_outline_9_">
		<g>
			<path d="M164.105,49.398c-1.686,0-3.589-0.18-5.742-0.584l-0.508-0.096l-0.313-0.412c-0.106-0.139-10.493-13.457-25.976-15.578
				l-1.209-0.17l0.037-1.221c0.068-2.066-0.324-8.229-2.9-9.373L125.33,21l1.926-1.379c0.572-0.414,14.199-10.139,26.738-13.945
				c0.408-0.117,9.513-2.65,13.787,4.135c0.455,1.029,8.891,20.85,8.663,32.578l-0.063,0.381
				C176.285,43.088,174.159,49.398,164.105,49.398z M159.365,46.238c11.125,1.898,13.93-3.117,14.369-4.125
				c0.091-11.199-8.266-30.85-8.351-31.051c-3.112-4.898-10.54-2.82-10.62-2.789c-9.725,2.949-20.504,9.873-24.406,12.504
				c2.29,2.533,2.699,7.178,2.752,9.438C147.664,32.717,157.441,43.885,159.365,46.238z"/>
		</g>
		<g>
			<path d="M138.873,87.33l1.113-5.969c4.119-21.963-14.889-36.057-15.08-36.193l1.591-2.207
				c0.19,0.139,17.896,13.234,16.733,34.158c2.848-3.203,7.359-7.551,12.016-9.143c0.318-0.115,6.32-1.844,13.69,1.814
				c-1.962-8.039-9.899-30.445-38.192-36.246l0.541-2.652c35.838,7.34,40.869,41.029,40.918,41.369l0.402,2.938l-2.492-1.623
				c-7.439-4.855-13.78-3.096-14.045-3.012c-6.676,2.281-13.574,11.75-13.643,11.846L138.873,87.33z"/>
		</g>
		<g>
			<path d="M96.014,87.33l-3.552-4.92c-0.069-0.096-6.967-9.564-13.701-11.867c-0.218-0.063-6.548-1.834-13.988,3.033l-2.492,1.623
				l0.403-2.938c0.048-0.34,5.08-34.029,40.917-41.369l0.541,2.652C75.85,39.346,67.912,61.752,65.95,69.791
				c7.37-3.617,13.362-1.908,13.638-1.834c4.692,1.6,9.215,5.959,12.068,9.162c-1.167-20.924,16.543-34.02,16.734-34.158
				l1.591,2.207c-0.191,0.137-19.2,14.23-15.08,36.193L96.014,87.33z"/>
		</g>
		<g>
			<path d="M70.065,50.131c-10.059,0-12.174-6.564-12.27-6.895l-0.058-0.371c-0.223-12.215,8.202-32.863,8.558-33.744
				c3.526-5.873,10.615-5.482,13.892-4.506c12.572,3.998,26.755,15.027,27.354,15.494l1.744,1.367l-2.009,0.934
				c-2.593,1.197-2.863,7.625-2.752,9.787l0.058,1.23l-1.225,0.18c-15.557,2.217-26.639,15.314-26.745,15.441l-0.308,0.371
				l-0.472,0.096C73.67,49.939,71.756,50.131,70.065,50.131z M60.446,42.602c0.403,0.996,3.155,6.383,14.401,4.336
				c1.967-2.227,12.317-13.244,26.941-15.832c0.01-2.354,0.334-7.297,2.683-9.904c-3.892-2.875-15.212-10.859-25.085-13.988
				c-0.286-0.096-7.492-2.152-10.673,3.129C68.723,10.363,60.34,30.904,60.446,42.602z"/>
		</g>
		<g>
			<path d="M140.166,134.023H93.353l-1.135-44.752l12.678-41.633l3.945-4.932h17.598l3.802,5.971l12.449,40.455l-0.01,0.244
				L140.166,134.023z M96.003,131.309H137.6l2.354-41.836l-12.253-39.809l-2.736-4.242h-14.82l-2.964,3.711l-12.237,40.5
				L96.003,131.309z"/>
		</g>
		<g>
			<path d="M119.068,45.422h-3.234c-7.747,0-14.045-6.299-14.045-14.041c0-12.449,7.508-14.041,14.045-14.041h3.234
				c3.982,0,8.044,0.383,10.795,3.172c2.249,2.27,3.309,5.832,3.246,10.891C133.109,39.123,126.811,45.422,119.068,45.422z
				 M115.834,20.055c-6.803,0-11.331,1.932-11.331,11.326c0,6.246,5.085,11.326,11.331,11.326h3.234
				c6.246,0,11.326-5.08,11.326-11.326c0.053-4.305-0.754-7.232-2.461-8.961c-2.052-2.078-5.472-2.365-8.865-2.365H115.834z"/>
		</g>
		<path d="M133.057,208.223H98.087l-2.126-74.963h43.055L133.057,208.223z M100.728,205.508h29.825l5.525-69.533H98.75
			L100.728,205.508z"/>
		<g>
			<path fill="#D55431" d="M131.872,25.568c0,0,4.923-3.381,10.878-3.951"/>
			<path d="M132.488,26.623c3.188-2.111,6.826-3.293,10.586-3.828c1.551-0.219,0.891-2.574-0.65-2.355
				c-3.947,0.561-7.822,1.857-11.168,4.074C129.951,25.379,131.173,27.496,132.488,26.623L132.488,26.623z"/>
		</g>
		<g>
			<path fill="#D55431" d="M132.533,28.549c0,0,6.406-3.412,12.385-3.598"/>
			<path d="M133.15,29.604c3.653-1.893,7.664-3.115,11.768-3.432c1.558-0.119,1.57-2.563,0-2.443
				c-4.546,0.35-8.951,1.668-13.001,3.766C130.521,28.219,131.755,30.328,133.15,29.604L133.15,29.604z"/>
		</g>
		<g>
			<path d="M131.578,38.125c5.115,1.018,12.412,2.648,15.502,7.209c0.878,1.293,2.996,0.072,2.11-1.234
				c-3.522-5.195-11.124-7.17-16.963-8.33C130.691,35.465,130.035,37.818,131.578,38.125L131.578,38.125z"/>
		</g>
		<g>
			<path fill="#D55431" d="M129.717,39.215c0,0,4.093,1.82,7.484,5.986"/>
			<path d="M129.1,40.27c2.848,1.338,5.175,3.459,7.238,5.797c1.043,1.18,2.765-0.553,1.728-1.729
				c-2.185-2.475-4.714-4.76-7.732-6.178C128.918,37.494,127.676,39.6,129.1,40.27L129.1,40.27z"/>
		</g>
		<g>
			<path fill="#D55431" d="M102.625,25.568c0,0-4.923-3.381-10.877-3.951"/>
			<path d="M103.241,24.514c-3.347-2.217-7.22-3.514-11.169-4.074c-1.538-0.219-2.203,2.135-0.649,2.355
				c3.76,0.535,7.399,1.719,10.585,3.828C103.322,27.494,104.547,25.379,103.241,24.514L103.241,24.514z"/>
		</g>
		<g>
			<path fill="#D55431" d="M101.576,28.195c0,0-5.13-1.959-11.108-2.145"/>
			<path d="M101.901,27.018c-3.672-1.346-7.547-1.945-11.433-2.189c-1.57-0.098-1.564,2.346,0,2.443
				c3.672,0.23,7.318,0.832,10.783,2.102C102.73,29.916,103.368,27.555,101.901,27.018L101.901,27.018z"/>
		</g>
		<g>
			<path d="M102.774,35.77c-5.832,1.16-13.442,3.137-16.963,8.33c-0.885,1.305,1.231,2.529,2.11,1.234
				c3.104-4.578,10.359-6.186,15.502-7.209C104.965,37.82,104.313,35.465,102.774,35.77L102.774,35.77z"/>
		</g>
		<g>
			<path fill="#D55431" d="M104.78,39.215c0,0-4.093,1.82-7.485,5.986"/>
			<path d="M104.164,38.16c-3.019,1.418-5.548,3.703-7.732,6.178c-1.037,1.174,0.685,2.908,1.728,1.729
				c2.063-2.338,4.39-4.459,7.238-5.797C106.819,39.602,105.58,37.494,104.164,38.16L104.164,38.16z"/>
		</g>
		<g>
			<line fill="#D55431" x1="16.542" y1="89.301" x2="218.36" y2="89.301"/>
			<path d="M16.542,90.387c67.273,0,134.546,0,201.819,0c1.397,0,1.399-2.172,0-2.172c-67.272,0-134.546,0-201.819,0
				C15.144,88.215,15.142,90.387,16.542,90.387L16.542,90.387z"/>
		</g>
	</g>
</g>
</svg>
