<?xml version="1.0" encoding="utf-8"?>
<!-- Generator: Adobe Illustrator 16.0.0, SVG Export Plug-In . SVG Version: 6.00 Build 0)  -->
<!DOCTYPE svg PUBLIC "-//W3C//DTD SVG 1.1//EN" "http://www.w3.org/Graphics/SVG/1.1/DTD/svg11.dtd">
<svg version="1.1" id="Layer_1" xmlns="http://www.w3.org/2000/svg" xmlns:xlink="http://www.w3.org/1999/xlink" x="0px" y="0px"
	 width="311.81px" height="212.6px" viewBox="0 0 311.81 212.6" enable-background="new 0 0 311.81 212.6" xml:space="preserve">
<g>
	<g>
		<path fill="#F0DEC7" d="M269.751,61.224H143.46l-30.78,54.143l15.008,78.804c1.293,6.787,5.769,11.525,10.892,11.525H279.24
			c5.146,0,9.638-4.781,10.907-11.613l14.635-78.716L269.751,61.224z"/>
	</g>
	<path d="M279.239,208.405H138.58c-6.442,0-12.015-5.641-13.558-13.723l-15.196-79.788l32.052-56.384h129.354l36.416,56.3
		l-14.836,79.767C291.308,202.722,285.724,208.405,279.239,208.405z M115.531,115.85l14.825,77.815
		c1.045,5.482,4.428,9.311,8.224,9.311h140.659c3.765,0,7.227-3.945,8.239-9.395l14.434-77.647l-33.638-51.995H145.038
		L115.531,115.85z"/>
	<g>
		<path fill="#F0DEC7" d="M163.22,13.518c-4.955-4.278-11.496-6.897-19.031-6.568l-40.854,1.786
			c-8.577,0.375-22.713,0.42-27.605,7.475l-62.888,90.686c-5.063,7.303-0.057,20.922,2.953,29.282l13.539,37.605
			c2.437,6.768,7.114,11.523,12.618,14.539c0.469,0.463,0.797,1.023,1.357,1.412l19.256,13.354c4.854,3.367,11.52,2.16,14.887-2.695
			L186.834,42.662c3.366-4.855,2.16-11.52-2.694-14.887l-19.967-13.846C163.876,13.723,163.528,13.69,163.22,13.518z"/>
	</g>
	<path d="M68.638,207.706c-2.635,0-5.291-0.775-7.619-2.387l-19.258-13.361c-0.646-0.445-1.088-0.965-1.41-1.357
		c-6.305-3.51-11.104-9.047-13.574-15.896l-13.537-37.604c-3.42-9.491-8.43-23.394-2.629-31.751l62.885-90.69
		c5.323-7.667,18.335-8.187,27.836-8.558l42.742-1.866c7.693-0.403,14.788,2.068,20.6,6.946l1.023,0.498l19.989,13.871
		c2.942,2.036,4.915,5.101,5.552,8.621c0.642,3.531-0.127,7.084-2.169,10.032L79.683,201.946
		C77.079,205.69,72.89,207.706,68.638,207.706z M145.462,9.633c-0.381,0-0.768,0.011-1.155,0.032l-42.758,1.855
		c-7.89,0.318-19.814,0.795-23.59,6.235l-62.885,90.691c-4.204,6.055,0.408,18.865,3.165,26.511l13.648,37.9
		c2.015,5.59,5.943,10.117,11.368,13.076l0.604,0.455c0.238,0.234,0.451,0.488,0.657,0.732l19.597,13.744
		c3.605,2.48,8.59,1.59,11.109-2.016L184.604,41.108c1.214-1.75,1.676-3.871,1.293-5.971c-0.381-2.089-1.553-3.913-3.303-5.132
		l-19.969-13.85c-0.026,0.074-0.397-0.074-0.779-0.297l-0.398-0.287C156.937,11.68,151.428,9.633,145.462,9.633z"/>
	<g id="bow_1_">
		<g>
			<g>
				<polygon fill="#EC8E3C" points="190.153,116.576 192.194,204.515 224.449,204.515 230.165,116.576 				"/>
			</g>
			<g>
				<path fill="#EC8E3C" d="M48.35,50.677c0,0-0.272-16.529,3.592-28.525c0,0,2.717-8.074,9.581-7.77c0,0,20.891,4.266,29.97,10.824
					c0,0,4.844,6.241-5.011,15.918c0,0-16.887,0.789-27.614,12.48C58.867,53.605,51.974,48.474,48.35,50.677z"/>
			</g>
			<g>
				<path fill="#EC8E3C" d="M65.617,65.409c0,0,22.479-7.902,38.463,8.283c0,0-3.921-11.117-1.897-18.229
					c0,0,2.207-6.776,10.889-10.311c0,0-28.728-14.581-53.941,9.501"/>
			</g>
			<g>
				<path fill="#EC8E3C" d="M56.51,78.542c0,0,0.479,23.823,21.24,33.118c0,0-11.786,0.225-17.737,4.613
					c0,0-5.572,4.443-5.84,13.813c0,0-23.726-21.793-10.01-53.85"/>
			</g>
			<g>
				<path fill="#EC8E3C" d="M36.945,67.892c0,0-16.952,5.252-26.963,12.985c0,0-6.694,5.316-3.796,11.781
					c0,0,12.012,18.55,21.734,25.031c0,0,7.811,2.533,13.326-10.15c0,0-4.553-16.524,2.561-30.722
					C43.808,76.817,36.214,72.101,36.945,67.892z"/>
			</g>
			<g>
				<polygon fill="#EC8E3C" points="118.956,138.923 83.989,115.969 58.245,83.543 56.681,78.294 65.617,65.409 71.388,65.593 
					110.193,77.931 143.327,103.779 				"/>
			</g>
			<g>
				<path fill="#EC8E3C" d="M61.958,70.685l-1.782,2.57c-3.847,5.547-11.532,6.938-17.079,3.092l0,0
					c-8.504-5.897-6.938-11.533-3.092-17.079l1.783-2.571c3.846-5.547,8.063-9.515,17.079-3.092l0,0
					C64.414,57.452,65.806,65.138,61.958,70.685z"/>
			</g>
		</g>
	</g>
	<g>
		<path fill="#D55431" d="M54.313,50.305c0,0,0.025-5.778,2.855-10.825"/>
		<path d="M55.535,50.305c0.083-3.579,1.104-7.015,2.688-10.209c0.697-1.404-1.41-2.644-2.109-1.233
			c-1.775,3.58-2.93,7.423-3.022,11.442C53.056,51.878,55.499,51.877,55.535,50.305L55.535,50.305z"/>
	</g>
	<g>
		<path fill="#D55431" d="M57.048,51.423c0,0,0.818-6.975,3.967-11.83"/>
		<path d="M58.27,51.423c0.507-3.933,1.802-7.801,3.8-11.214c0.797-1.359-1.314-2.591-2.109-1.232
			c-2.238,3.822-3.567,8.056-4.134,12.446C55.626,52.978,58.071,52.963,58.27,51.423L58.27,51.423z"/>
	</g>
	<g>
		<path d="M64.318,59.291c3.642-3.517,8.915-8.3,14.263-8.265c1.572,0.011,1.574-2.433,0-2.443c-6.086-0.04-11.833,4.966-15.99,8.98
			C61.458,58.658,63.187,60.384,64.318,59.291L64.318,59.291z"/>
	</g>
	<g>
		<path fill="#D55431" d="M63.974,59.542c0,0,3.704-2.25,8.887-2.649"/>
		<path d="M64.591,60.597c2.529-1.457,5.395-2.131,8.27-2.482c1.541-0.188,1.561-2.635,0-2.443
			c-3.309,0.404-6.585,1.136-9.504,2.816C61.995,59.272,63.224,61.384,64.591,60.597L64.591,60.597z"/>
	</g>
	<g>
		<path fill="#D55431" d="M38.188,73.559c0,0-5.403,2.049-9.139,6.469"/>
		<path d="M37.863,72.38c-3.731,1.488-6.958,3.85-9.677,6.784c-1.068,1.151,0.656,2.884,1.728,1.728
			c2.411-2.602,5.277-4.831,8.599-6.155C39.956,74.162,39.327,71.797,37.863,72.38L37.863,72.38z"/>
	</g>
	<g>
		<path fill="#D55431" d="M39.698,75.841c0,0-4.386,2.998-7.829,7.648"/>
		<path d="M39.082,74.786c-3.093,2.178-5.737,4.881-8.077,7.84c-0.965,1.221,0.753,2.962,1.729,1.728
			c2.205-2.79,4.66-5.4,7.582-7.457C41.591,75.998,40.372,73.878,39.082,74.786L39.082,74.786z"/>
	</g>
	<g>
		<path d="M46.567,78.656c-2.284,5.26-5.061,12.46-2.896,18.131c0.556,1.455,2.918,0.823,2.356-0.649
			c-1.912-5.005,0.611-11.556,2.649-16.247C49.298,78.462,47.193,77.216,46.567,78.656L46.567,78.656z"/>
	</g>
	<g>
		<path fill="#D55431" d="M50.226,79.369c0,0-0.81,4.258,0.633,9.252"/>
		<path d="M49.048,79.043c-0.554,3.336-0.152,6.642,0.633,9.901c0.369,1.527,2.725,0.881,2.356-0.649
			c-0.671-2.781-1.108-5.744-0.634-8.603C51.658,78.155,49.305,77.494,49.048,79.043L49.048,79.043z"/>
	</g>
	<g>
		<line fill="#D55431" x1="41.397" y1="177.138" x2="152.668" y2="16.681"/>
		<path d="M42.335,177.685c37.09-53.485,74.18-106.97,111.271-160.455c0.798-1.151-1.083-2.238-1.876-1.097
			c-37.09,53.485-74.18,106.97-111.27,160.456C39.661,177.739,41.543,178.827,42.335,177.685L42.335,177.685z"/>
	</g>
	<g>
		<line fill="#FFFFFF" x1="304.782" y1="115.367" x2="136.415" y2="115.367"/>
		<rect x="136.417" y="112.656" width="168.363" height="5.43"/>
	</g>
	<path d="M50.042,79.888c-2.752,0-5.424-0.837-7.719-2.428c-9.927-6.883-7.047-13.754-3.432-18.972l1.781-2.566
		c2.201-3.171,4.757-6.204,8.506-6.851c3.107-0.52,6.49,0.604,10.477,3.436c2.965,2.047,4.963,5.165,5.615,8.76
		s-0.133,7.211-2.2,10.191l-1.781,2.566c-2.063,2.979-5.175,4.983-8.771,5.641C51.691,79.814,50.864,79.888,50.042,79.888z
		 M50.685,51.66c-0.355,0-0.705,0.021-1.039,0.085c-2.768,0.477-4.879,3.032-6.745,5.726l-1.781,2.566
		c-3.733,5.388-4.692,10.032,2.752,15.197c2.38,1.654,5.286,2.279,8.165,1.76c2.879-0.53,5.371-2.132,7.021-4.518l1.786-2.566
		c1.654-2.386,2.275-5.281,1.756-8.165c-0.52-2.874-2.121-5.366-4.507-7.021C55.202,52.667,52.769,51.66,50.685,51.66z"/>
	<path d="M29.634,119.264c-1.225,0-2.025-0.244-2.131-0.275l-0.334-0.16c-9.847-6.564-21.623-24.666-22.121-25.429
		c-2.736-6.056,1.49-11.517,4.093-13.585c10.101-7.805,26.702-13,27.402-13.213l2.121-0.657l-0.382,2.185
		c-0.414,2.396,3.605,5.896,6.24,7.529l1.051,0.657l-0.552,1.103c-6.787,13.553-2.508,29.598-2.466,29.756l0.127,0.467l-0.19,0.436
		C38.271,117.789,32.656,119.264,29.634,119.264z M28.489,116.443c1.044,0.232,6.797,1.008,11.325-9.025
		c-0.694-2.832-3.717-17.094,2.259-30.127c-1.871-1.314-5.567-4.263-6.373-7.551c-4.471,1.518-16.988,6.108-24.889,12.206
		C10.594,82.126,5,86.697,7.429,92.105C7.444,92.105,19.146,110.08,28.489,116.443z"/>
	<path d="M119.317,140.78l-1.108-0.721l-35.282-23.245L56.946,83.94l-1.75-5.875l9.725-14.03l6.883,0.266l39.221,12.556
		l34.146,26.65L119.317,140.78z M84.915,114.947l33.681,22.122l22.885-33.013L109.55,79.146L71.156,66.941l-4.847-0.148
		l-8.145,11.738l1.305,4.381L84.915,114.947z"/>
	<path d="M55.446,133.092l-2.19-2.016c-0.244-0.223-24.274-22.82-10.339-55.366l2.491,1.061c-10.79,25.218,2.413,44.051,7.688,50.18
		c1.22-7.783,5.849-11.568,6.066-11.738c3.828-2.82,9.713-4.029,13.833-4.539c-17.2-10.647-17.837-31.877-17.842-32.1l2.714-0.063
		c0.006,0.233,0.732,23.097,20.441,31.91l5.535,2.48l-6.066,0.117c-0.116,0-11.432,0.266-16.961,4.348
		c-0.165,0.139-5.043,4.189-5.287,12.758L55.446,133.092z"/>
	<path d="M107.366,78.966l-4.253-4.316c-15.181-15.355-36.829-8.038-37.048-7.953l-0.9-2.566c0.223-0.074,20.323-6.925,36.326,5.461
		c-0.965-4.04-1.904-9.957-0.61-14.496c0.101-0.308,2.021-6.002,8.924-9.873c-7.545-2.885-29.629-8.802-49.735,10.414l-1.877-1.973
		c25.615-24.443,55.191-9.873,55.494-9.725l2.65,1.348l-2.752,1.123c-7.942,3.234-10.026,9.227-10.111,9.481
		c-1.866,6.554,1.846,17.243,1.883,17.359L107.366,78.966z"/>
	<path d="M59.04,55.435l-0.985-0.732c-1.606-1.188-6.692-4.221-8.998-2.873l-2.026,1.229l-0.037-2.364
		c-0.01-0.679-0.232-16.883,3.654-28.961c0.127-0.383,3.021-8.718,10.477-8.718c0.154,0,0.303,0,0.457,0.011
		c1.076,0.201,21.495,4.422,30.705,11.071l0.275,0.275c0.229,0.286,5.467,7.317-5.133,17.721l-0.365,0.371l-0.52,0.021
		c-0.164,0.011-16.464,0.911-26.676,12.046L59.04,55.435z M50.509,48.775c3.076,0,6.485,1.951,8.177,3.055
		c10.005-10.16,24.226-11.793,27.195-12.026c7.667-7.741,5.19-12.726,4.624-13.638C81.66,19.931,61.453,15.752,61.252,15.71
		c-0.091,0-0.181,0-0.266,0c-5.35,0-7.735,6.797-7.763,6.871c-3,9.321-3.451,21.645-3.51,26.236
		C49.974,48.786,50.239,48.775,50.509,48.775z"/>
	<path d="M150.683,112.176c0-16.021,0-2.041,0-18.063c0-1.396-2.172-1.399-2.172,0c0,16.022,0,2.042,0,18.063
		C148.511,113.572,150.683,113.574,150.683,112.176L150.683,112.176z"/>
	<path d="M268.952,112.176c0.629-16.984,1.257-33.967,1.885-50.952c0.052-1.397-2.12-1.396-2.172,0
		c-0.628,16.984-1.256,33.968-1.885,50.952C266.729,113.572,268.9,113.57,268.952,112.176L268.952,112.176z"/>
	<path d="M225.724,205.87h-34.853l-2.104-90.647h42.848L225.724,205.87z M193.522,203.155h29.656l5.541-85.218h-37.176
		L193.522,203.155z"/>
	<g>
		<line fill="#D55431" x1="267.866" y1="112.176" x2="269.751" y2="61.224"/>
	</g>
	<g>
		<line fill="#D55431" x1="149.597" y1="112.176" x2="149.597" y2="96.91"/>
	</g>
</g>
</svg>
