<?xml version="1.0" encoding="utf-8"?>
<!-- Generator: Adobe Illustrator 16.0.0, SVG Export Plug-In . SVG Version: 6.00 Build 0)  -->
<!DOCTYPE svg PUBLIC "-//W3C//DTD SVG 1.1//EN" "http://www.w3.org/Graphics/SVG/1.1/DTD/svg11.dtd">
<svg version="1.1" id="Layer_1" xmlns="http://www.w3.org/2000/svg" xmlns:xlink="http://www.w3.org/1999/xlink" x="0px" y="0px"
	 width="311.81px" height="212.6px" viewBox="0 0 311.81 212.6" enable-background="new 0 0 311.81 212.6" xml:space="preserve">
<g>
	<path fill="#F0DEC7" d="M269.912,61.028H143.621l-30.781,54.144l15.008,78.803c1.293,6.789,5.77,11.525,10.892,11.525H279.4
		c5.146,0,9.638-4.781,10.908-11.611l14.634-78.717L269.912,61.028z"/>
</g>
<path d="M279.399,208.209H138.74c-6.441,0-12.015-5.641-13.558-13.721l-15.196-79.789l32.053-56.384h129.354l36.416,56.298
	l-14.836,79.768C291.468,202.525,285.885,208.209,279.399,208.209z M115.691,115.654l14.826,77.814
	c1.044,5.482,4.427,9.313,8.223,9.313h140.659c3.765,0,7.228-3.945,8.24-9.396l14.433-77.646l-33.638-51.995H145.199
	L115.691,115.654z"/>
<g>
	<path fill="#F0DEC7" d="M163.379,13.323c-4.953-4.278-11.494-6.897-19.029-6.568l-40.854,1.786
		c-8.578,0.375-22.714,0.42-27.606,7.475l-62.888,90.687c-5.063,7.302-0.057,20.921,2.953,29.283l13.539,37.604
		c2.438,6.77,7.115,11.525,12.619,14.541c0.469,0.461,0.797,1.023,1.356,1.412l19.256,13.354c4.854,3.365,11.52,2.158,14.886-2.695
		L186.994,42.465c3.367-4.854,2.16-11.519-2.694-14.886l-19.966-13.846C164.037,13.528,163.688,13.495,163.379,13.323z"/>
</g>
<path d="M68.799,207.51c-2.636,0-5.293-0.773-7.62-2.387l-19.258-13.361c-0.646-0.445-1.087-0.965-1.41-1.357
	c-6.305-3.51-11.103-9.045-13.573-15.896L13.4,136.904c-3.42-9.49-8.432-23.393-2.631-31.75l62.886-90.69
	c5.323-7.667,18.335-8.187,27.837-8.558l42.742-1.866c7.693-0.403,14.787,2.067,20.6,6.946l1.022,0.498l19.989,13.871
	c2.943,2.035,4.916,5.101,5.552,8.621c0.642,3.531-0.127,7.084-2.169,10.032L79.843,201.752
	C77.24,205.494,73.051,207.51,68.799,207.51z M145.623,9.438c-0.382,0-0.769,0.011-1.156,0.032l-42.758,1.855
	c-7.889,0.318-19.814,0.795-23.59,6.235l-62.885,90.691c-4.205,6.055,0.408,18.865,3.166,26.512l13.648,37.9
	c2.014,5.588,5.943,10.115,11.367,13.074l0.605,0.457c0.238,0.232,0.45,0.488,0.656,0.73l19.598,13.744
	c3.605,2.482,8.59,1.592,11.108-2.016L184.765,40.913c1.214-1.75,1.675-3.871,1.294-5.971c-0.383-2.089-1.554-3.913-3.304-5.133
	l-19.968-13.85c-0.027,0.074-0.398-0.074-0.779-0.297l-0.398-0.286C157.098,11.485,151.588,9.438,145.623,9.438z"/>
<g id="bow_6_">
	<g>
		<g>
			<polygon fill="#EC8BB9" points="190.314,116.381 192.355,204.32 224.609,204.32 230.326,116.381 			"/>
		</g>
		<g>
			<path fill="#EC8BB9" d="M48.51,50.482c0,0-0.271-16.529,3.592-28.525c0,0,2.717-8.075,9.582-7.77c0,0,20.889,4.266,29.969,10.823
				c0,0,4.844,6.242-5.011,15.919c0,0-16.886,0.789-27.614,12.48C59.027,53.41,52.135,48.279,48.51,50.482z"/>
		</g>
		<g>
			<path fill="#EC8BB9" d="M65.777,65.213c0,0,22.48-7.902,38.463,8.283c0,0-3.921-11.117-1.896-18.229
				c0,0,2.207-6.777,10.888-10.311c0,0-28.728-14.582-53.941,9.5"/>
		</g>
		<g>
			<path fill="#EC8BB9" d="M56.67,78.346c0,0,0.479,23.824,21.24,33.119c0,0-11.785,0.225-17.736,4.613c0,0-5.573,4.443-5.84,13.811
				c0,0-23.727-21.793-10.011-53.848"/>
		</g>
		<g>
			<path fill="#EC8BB9" d="M37.105,67.697c0,0-16.952,5.251-26.963,12.985c0,0-6.693,5.316-3.796,11.781
				c0,0,12.013,18.55,21.733,25.031c0,0,7.812,2.533,13.328-10.152c0,0-4.553-16.522,2.56-30.72
				C43.968,76.622,36.374,71.906,37.105,67.697z"/>
		</g>
		<g>
			<polygon fill="#EC8BB9" points="119.117,138.729 84.149,115.773 58.406,83.348 56.842,78.099 65.777,65.213 71.548,65.398 
				110.354,77.736 143.488,103.583 			"/>
		</g>
		<g>
			<path fill="#EC8BB9" d="M62.119,70.489l-1.783,2.571c-3.846,5.547-11.531,6.938-17.078,3.091l0,0
				c-8.504-5.896-6.939-11.531-3.092-17.079l1.782-2.57c3.847-5.547,8.063-9.516,17.079-3.092l0,0
				C64.574,57.256,65.966,64.942,62.119,70.489z"/>
		</g>
	</g>
</g>
<g>
	<path fill="#D55431" d="M54.475,50.11c0,0,0.024-5.778,2.855-10.826"/>
	<path d="M55.695,50.11c0.083-3.58,1.105-7.015,2.689-10.209c0.696-1.404-1.41-2.644-2.109-1.233
		c-1.775,3.58-2.93,7.423-3.023,11.442C53.216,51.683,55.659,51.682,55.695,50.11L55.695,50.11z"/>
</g>
<g>
	<path fill="#D55431" d="M57.209,51.227c0,0,0.818-6.974,3.967-11.829"/>
	<path d="M58.43,51.227c0.508-3.932,1.803-7.8,3.801-11.213c0.796-1.359-1.314-2.591-2.109-1.233
		c-2.238,3.823-3.568,8.057-4.135,12.446C55.786,52.783,58.231,52.768,58.43,51.227L58.43,51.227z"/>
</g>
<g>
	<path d="M64.479,59.095c3.643-3.517,8.915-8.3,14.263-8.265c1.573,0.01,1.574-2.434,0-2.443c-6.086-0.04-11.833,4.965-15.99,8.98
		C61.618,58.461,63.347,60.188,64.479,59.095L64.479,59.095z"/>
</g>
<g>
	<path fill="#D55431" d="M64.135,59.347c0,0,3.703-2.251,8.887-2.649"/>
	<path d="M64.751,60.402c2.53-1.457,5.396-2.132,8.271-2.483c1.541-0.188,1.56-2.634,0-2.442c-3.309,0.404-6.586,1.136-9.504,2.816
		C62.155,59.077,63.385,61.189,64.751,60.402L64.751,60.402z"/>
</g>
<g>
	<path fill="#D55431" d="M38.349,73.363c0,0-5.403,2.05-9.138,6.47"/>
	<path d="M38.023,72.185c-3.73,1.487-6.957,3.85-9.677,6.784c-1.067,1.151,0.656,2.884,1.728,1.728
		c2.411-2.602,5.277-4.831,8.6-6.155C40.116,73.966,39.486,71.602,38.023,72.185L38.023,72.185z"/>
</g>
<g>
	<path fill="#D55431" d="M39.859,75.645c0,0-4.387,2.998-7.83,7.649"/>
	<path d="M39.242,74.59c-3.093,2.178-5.738,4.881-8.076,7.84c-0.965,1.221,0.752,2.961,1.727,1.728c2.206-2.79,4.66-5.4,7.584-7.458
		C41.752,75.802,40.532,73.683,39.242,74.59L39.242,74.59z"/>
</g>
<g>
	<path d="M46.729,78.461c-2.285,5.258-5.062,12.459-2.896,18.13c0.556,1.454,2.918,0.823,2.355-0.649
		c-1.91-5.006,0.613-11.557,2.65-16.248C49.459,78.266,47.354,77.021,46.729,78.461L46.729,78.461z"/>
</g>
<g>
	<path fill="#D55431" d="M50.386,79.172c0,0-0.81,4.258,0.634,9.252"/>
	<path d="M49.208,78.848c-0.554,3.336-0.152,6.641,0.634,9.901c0.368,1.527,2.725,0.881,2.355-0.649
		c-0.67-2.781-1.107-5.744-0.633-8.603C51.818,77.959,49.465,77.298,49.208,78.848L49.208,78.848z"/>
</g>
<g>
	<line fill="#D55431" x1="41.559" y1="176.941" x2="152.828" y2="16.486"/>
	<path d="M42.496,177.49c37.09-53.486,74.18-106.971,111.27-160.457c0.799-1.15-1.083-2.238-1.875-1.096
		c-37.09,53.485-74.18,106.97-111.271,160.455C39.822,177.545,41.703,178.631,42.496,177.49L42.496,177.49z"/>
</g>
<g>
	<line fill="#FFFFFF" x1="304.942" y1="115.172" x2="136.575" y2="115.172"/>
	<rect x="136.577" y="112.461" width="168.363" height="5.43"/>
</g>
<path d="M50.203,79.693c-2.752,0-5.424-0.837-7.721-2.428c-9.926-6.883-7.046-13.755-3.43-18.972l1.781-2.566
	c2.201-3.171,4.756-6.204,8.505-6.851c3.107-0.52,6.49,0.604,10.478,3.436c2.964,2.047,4.963,5.165,5.615,8.76
	s-0.133,7.211-2.201,10.19l-1.781,2.566c-2.063,2.98-5.175,4.984-8.77,5.642C51.852,79.619,51.025,79.693,50.203,79.693z
	 M50.845,51.464c-0.355,0-0.705,0.021-1.039,0.085c-2.769,0.477-4.878,3.032-6.745,5.726l-1.781,2.566
	c-3.732,5.388-4.692,10.032,2.752,15.196c2.381,1.654,5.287,2.28,8.166,1.761c2.879-0.53,5.371-2.132,7.02-4.518l1.787-2.566
	c1.654-2.386,2.275-5.281,1.755-8.165c-0.52-2.874-2.12-5.366-4.507-7.021C55.362,52.471,52.929,51.464,50.845,51.464z"/>
<path d="M29.795,119.068c-1.225,0-2.025-0.244-2.132-0.275l-0.334-0.16c-9.847-6.564-21.622-24.666-22.121-25.429
	c-2.735-6.056,1.489-11.517,4.093-13.585c10.102-7.805,26.703-13.001,27.402-13.213l2.121-0.657l-0.381,2.185
	c-0.414,2.396,3.605,5.896,6.24,7.529l1.05,0.657l-0.552,1.103c-6.787,13.553-2.508,29.598-2.465,29.757l0.127,0.466l-0.191,0.436
	C38.432,117.594,32.816,119.068,29.795,119.068z M28.649,116.248c1.044,0.232,6.798,1.006,11.325-9.025
	c-0.694-2.832-3.717-17.094,2.26-30.127c-1.872-1.315-5.568-4.263-6.374-7.551c-4.47,1.517-16.988,6.108-24.889,12.206
	c-0.218,0.181-5.812,4.751-3.383,10.159C7.604,91.91,19.307,109.885,28.649,116.248z"/>
<path d="M119.478,140.584l-1.108-0.721l-35.281-23.244l-25.98-32.875l-1.75-5.875l9.725-14.03l6.882,0.266l39.221,12.556
	l34.147,26.648L119.478,140.584z M85.076,114.752l33.68,22.121l22.885-33.012l-31.93-24.91L71.316,66.745l-4.846-0.148l-8.145,11.74
	l1.305,4.379L85.076,114.752z"/>
<path d="M55.605,132.896l-2.189-2.016c-0.244-0.223-24.273-22.82-10.339-55.366l2.491,1.061
	c-10.789,25.218,2.413,44.051,7.689,50.18c1.219-7.783,5.848-11.568,6.065-11.738c3.828-2.822,9.714-4.029,13.833-4.539
	c-17.2-10.647-17.836-31.877-17.842-32.1l2.715-0.063c0.006,0.233,0.732,23.097,20.44,31.91l5.536,2.48l-6.066,0.117
	c-0.117,0-11.432,0.266-16.962,4.348c-0.165,0.139-5.042,4.189-5.286,12.758L55.605,132.896z"/>
<path d="M107.526,78.771l-4.253-4.316c-15.18-15.355-36.83-8.038-37.047-7.953l-0.901-2.566c0.223-0.074,20.323-6.925,36.326,5.461
	c-0.965-4.04-1.903-9.957-0.61-14.496c0.102-0.308,2.021-6.002,8.924-9.873c-7.545-2.885-29.629-8.802-49.734,10.414l-1.878-1.973
	c25.616-24.443,55.192-9.873,55.494-9.725l2.651,1.347l-2.752,1.124c-7.943,3.234-10.027,9.227-10.111,9.48
	c-1.867,6.554,1.845,17.243,1.882,17.36L107.526,78.771z"/>
<path d="M59.201,55.239l-0.986-0.731c-1.606-1.188-6.691-4.221-8.998-2.874l-2.025,1.23l-0.037-2.365
	c-0.011-0.679-0.233-16.882,3.653-28.961c0.128-0.382,3.022-8.717,10.478-8.717c0.154,0,0.303,0,0.456,0.011
	c1.076,0.201,21.495,4.422,30.705,11.071l0.276,0.275c0.228,0.286,5.467,7.317-5.133,17.721l-0.366,0.371l-0.52,0.021
	c-0.165,0.01-16.464,0.911-26.676,12.046L59.201,55.239z M50.67,48.58c3.075,0,6.484,1.951,8.176,3.054
	c10.006-10.159,24.227-11.792,27.195-12.025c7.668-7.741,5.191-12.726,4.624-13.638c-8.845-6.235-29.052-10.413-29.253-10.456
	c-0.09,0-0.18,0-0.266,0c-5.35,0-7.735,6.798-7.762,6.872c-3.002,9.321-3.452,21.644-3.51,26.235
	C50.135,48.59,50.399,48.58,50.67,48.58z"/>
<path d="M150.842,111.98c0-16.021,0-2.043,0-18.063c0-1.397-2.171-1.399-2.171,0c0,16.02,0,2.042,0,18.063
	C148.671,113.377,150.842,113.379,150.842,111.98L150.842,111.98z"/>
<path d="M269.113,111.98c0.628-16.984,1.256-33.968,1.885-50.952c0.052-1.397-2.12-1.396-2.172,0
	c-0.629,16.983-1.257,33.968-1.885,50.952C266.89,113.377,269.062,113.375,269.113,111.98L269.113,111.98z"/>
<path d="M225.884,205.676h-34.853l-2.104-90.648h42.848L225.884,205.676z M193.684,202.961h29.655l5.54-85.219h-37.174
	L193.684,202.961z"/>
<g>
	<line fill="#D55431" x1="268.027" y1="111.98" x2="269.912" y2="61.029"/>
</g>
<g>
	<line fill="#D55431" x1="149.756" y1="111.98" x2="149.756" y2="96.713"/>
</g>
</svg>
