<?xml version="1.0" encoding="utf-8"?>
<!-- Generator: Adobe Illustrator 16.0.0, SVG Export Plug-In . SVG Version: 6.00 Build 0)  -->
<!DOCTYPE svg PUBLIC "-//W3C//DTD SVG 1.1//EN" "http://www.w3.org/Graphics/SVG/1.1/DTD/svg11.dtd">
<svg version="1.1" id="Layer_1" xmlns="http://www.w3.org/2000/svg" xmlns:xlink="http://www.w3.org/1999/xlink" x="0px" y="0px"
	 width="232.44px" height="212.6px" viewBox="0 0 232.44 212.6" enable-background="new 0 0 232.44 212.6" xml:space="preserve">
<g>
	<g>
		<g>
			<path fill="#F0DEC7" d="M227.196,95.911c0.715-6.728-0.912-13.826-5.631-20.032l-25.578-33.646
				c-5.371-7.064-13.734-19.045-22.608-19.045H59.315c-9.186,0-17.804,12.275-23.133,19.756L12.219,76.59
				c-4.313,6.057-5.598,12.831-4.917,19.282c-0.117,0.67-0.4,1.28-0.4,1.983v24.22c0,6.105,4.95,11.057,11.057,11.057h198.395
				c6.106,0,11.057-4.951,11.057-11.057V96.962C227.409,96.589,227.231,96.274,227.196,95.911z"/>
			<path d="M216.353,135.846H17.958c-7.594,0-13.771-6.172-13.771-13.766V97.86c0-0.816,0.186-1.484,0.317-1.983
				c-0.715-7.444,1.151-14.762,5.504-20.869L33.97,41.37c6.061-8.516,14.89-20.902,25.346-20.902h114.063
				c9.607,0,17.699,10.743,23.611,18.579l26.739,35.187c4.794,6.299,6.936,13.743,6.209,21.527l0.186,1.198v25.122
				C230.123,129.674,223.946,135.846,216.353,135.846z M59.315,25.897c-7.656,0-15.822,11.464-20.7,18.304L14.432,78.157
				c-3.573,5.016-5.106,11.039-4.433,17.434l0.042,0.382l-0.069,0.371C9.914,96.672,9.829,97,9.744,97.319L9.617,122.08
				c0,4.592,3.743,8.336,8.341,8.336h198.395c4.598,0,8.341-3.744,8.341-8.336V96.958c-0.09-0.148-0.165-0.456-0.196-0.774
				l-0.031-0.275l0.031-0.286c0.695-6.543-1.065-12.811-5.09-18.103l-26.756-35.207c-4.926-6.532-12.369-16.416-19.273-16.416
				H59.315z"/>
		</g>
		<path fill="#FFFFFF" d="M36.747,204.818"/>
		<g>
			<path fill="#F0DEC7" d="M34.542,197.879l-15.076-64.746h192.969l-14.701,64.674c-1.275,5.613-5.786,9.541-10.956,9.541H45.481
				C40.337,207.348,35.841,203.455,34.542,197.879z"/>
			<path d="M186.776,210.066H45.481c-6.41,0-11.994-4.762-13.584-11.57l-15.849-68.08h199.784l-15.455,67.996
				C198.823,205.273,193.229,210.066,186.776,210.066z M37.188,197.268c1.008,4.336,4.422,7.369,8.293,7.369h141.295
				c3.897,0,7.317-3.055,8.309-7.434l13.951-61.357H22.889L37.188,197.268z"/>
		</g>
	</g>
	<g>
		<path fill="#E03C35" d="M119.001,43.576h-3.234c-6.977,0-12.685-5.708-12.685-12.685l0,0c0-10.696,5.708-12.686,12.685-12.686
			h3.234c6.977,0,12.83,1.243,12.686,12.686l0,0C131.687,37.868,125.978,43.576,119.001,43.576z"/>
		<g>
			<g>
				<polygon fill="#E03C35" points="97.289,134.125 99.34,206.377 131.739,206.377 137.481,134.125 				"/>
			</g>
			<polygon fill="#E03C35" points="94.613,132.178 93.515,88.959 105.892,47.997 109.429,43.576 125.637,43.576 128.878,48.585 
				141.256,88.812 138.817,132.178 			"/>
			<path fill="#E03C35" d="M106.64,20.686c0,0-14.445-11.305-26.91-15.252c0,0-8.458-2.555-12.242,3.715
				c0,0-8.681,21.129-8.458,33.202c0,0,2.448,8.126,16.472,5.34c0,0,11.352-13.599,27.601-15.92
				C103.102,31.771,102.634,22.543,106.64,20.686z"/>
			<path fill="#E03C35" d="M109.118,43.576c0,0-19.953,14.438-15.619,37.547c0,0-7.133-9.878-14.365-12.348
				c0,0-7.056-2.117-15.17,3.175c0,0,4.535-32.987,39.84-40.219"/>
			<path fill="#E03C35" d="M125.637,43.576c0,0,19.952,14.438,15.619,37.547c0,0,7.132-9.878,14.364-12.348
				c0,0,7.057-2.117,15.17,3.175c0,0-4.535-32.987-39.84-40.219"/>
			<path fill="#E03C35" d="M127.978,20.233c0,0,13.879-9.967,26.344-13.75c0,0,8.459-2.449,12.242,3.561
				c0,0,8.682,20.256,8.459,31.83c0,0-2.449,7.791-16.471,5.119c0,0-10.617-13.876-26.865-16.102
				C131.687,30.891,131.984,22.014,127.978,20.233z"/>
		</g>
	</g>
	<g id="bow_outline_7_">
		<g>
			<path d="M164.04,48.909c-1.686,0-3.589-0.18-5.742-0.583l-0.509-0.096l-0.313-0.413c-0.106-0.138-10.493-13.457-25.976-15.578
				l-1.209-0.17l0.037-1.22c0.068-2.067-0.324-8.229-2.9-9.374l-2.164-0.965l1.926-1.379c0.572-0.413,14.199-10.138,26.738-13.945
				c0.408-0.116,9.513-2.65,13.787,4.136c0.455,1.029,8.891,20.849,8.663,32.578l-0.063,0.381
				C176.22,42.599,174.094,48.909,164.04,48.909z M159.3,45.749c11.125,1.898,13.93-3.117,14.369-4.125
				c0.091-11.198-8.266-30.849-8.351-31.05c-3.112-4.899-10.541-2.821-10.62-2.789c-9.725,2.948-20.504,9.873-24.406,12.503
				c2.29,2.534,2.698,7.179,2.752,9.438C147.599,32.228,157.376,43.395,159.3,45.749z"/>
		</g>
		<g>
			<path d="M138.808,86.841l1.113-5.97c4.119-21.963-14.889-36.056-15.08-36.193l1.591-2.206
				c0.19,0.138,17.896,13.234,16.733,34.157c2.848-3.203,7.36-7.551,12.016-9.141c0.318-0.117,6.32-1.846,13.69,1.813
				c-1.962-8.038-9.899-30.445-38.192-36.246l0.541-2.651c35.838,7.339,40.869,41.029,40.918,41.368l0.402,2.938l-2.492-1.622
				c-7.439-4.856-13.78-3.097-14.045-3.012c-6.676,2.28-13.574,11.75-13.643,11.846L138.808,86.841z"/>
		</g>
		<g>
			<path d="M95.948,86.841l-3.552-4.92c-0.069-0.096-6.968-9.565-13.701-11.867c-0.218-0.063-6.548-1.834-13.987,3.033l-2.492,1.622
				l0.402-2.938c0.049-0.339,5.08-34.029,40.918-41.368l0.541,2.651c-28.293,5.801-36.23,28.208-38.192,36.246
				c7.37-3.616,13.362-1.908,13.638-1.834c4.692,1.602,9.215,5.959,12.068,9.162c-1.167-20.923,16.543-34.02,16.733-34.157
				l1.591,2.206c-0.191,0.138-19.199,14.23-15.08,36.193L95.948,86.841z"/>
		</g>
		<g>
			<path d="M69.999,49.641c-10.059,0-12.174-6.564-12.27-6.894l-0.059-0.371c-0.223-12.216,8.203-32.863,8.559-33.743
				c3.525-5.875,10.615-5.482,13.893-4.508c12.571,3.998,26.755,15.027,27.354,15.494l1.744,1.367l-2.009,0.934
				c-2.593,1.198-2.863,7.625-2.752,9.788l0.058,1.23l-1.225,0.18c-15.557,2.217-26.639,15.313-26.744,15.44L76.24,48.93
				l-0.472,0.096C73.604,49.45,71.69,49.641,69.999,49.641z M60.381,42.112c0.403,0.996,3.155,6.384,14.401,4.337
				c1.967-2.227,12.316-13.245,26.941-15.833c0.01-2.354,0.334-7.296,2.682-9.904c-3.891-2.874-15.211-10.859-25.084-13.987
				c-0.287-0.096-7.492-2.152-10.674,3.128C68.657,9.874,60.274,30.415,60.381,42.112z"/>
		</g>
		<g>
			<path d="M140.101,133.533H93.287l-1.135-44.75l12.678-41.634l3.944-4.932h17.599l3.802,5.971l12.449,40.456l-0.01,0.244
				L140.101,133.533z M95.938,130.818h41.596l2.354-41.834l-12.253-39.81l-2.736-4.242h-14.82l-2.964,3.712L94.878,89.143
				L95.938,130.818z"/>
		</g>
		<g>
			<path d="M119.003,44.932h-3.234c-7.746,0-14.045-6.299-14.045-14.04c0-12.45,7.508-14.041,14.045-14.041h3.234
				c3.982,0,8.044,0.382,10.795,3.171c2.249,2.27,3.309,5.833,3.246,10.891C133.044,38.633,126.744,44.932,119.003,44.932z
				 M115.769,19.566c-6.803,0-11.331,1.931-11.331,11.326c0,6.246,5.085,11.325,11.331,11.325h3.234
				c6.246,0,11.326-5.079,11.326-11.325c0.053-4.306-0.754-7.232-2.461-8.961c-2.052-2.079-5.472-2.365-8.865-2.365H115.769z"/>
		</g>
		<path d="M132.99,207.734H98.022l-2.127-74.965h43.055L132.99,207.734z M100.663,205.02h29.824l5.525-69.535H98.685L100.663,205.02
			z"/>
		<g>
			<path fill="#D55431" d="M131.807,25.08c0,0,4.923-3.382,10.877-3.951"/>
			<path d="M132.423,26.134c3.188-2.111,6.826-3.293,10.586-3.828c1.551-0.22,0.891-2.574-0.65-2.355
				c-3.947,0.561-7.822,1.857-11.168,4.074C129.886,24.889,131.107,27.006,132.423,26.134L132.423,26.134z"/>
		</g>
		<g>
			<path fill="#D55431" d="M132.468,28.06c0,0,6.406-3.413,12.385-3.599"/>
			<path d="M133.085,29.115c3.653-1.893,7.664-3.116,11.768-3.431c1.558-0.12,1.57-2.564,0-2.443
				c-4.547,0.349-8.951,1.666-13.001,3.765C130.455,27.729,131.689,29.838,133.085,29.115L133.085,29.115z"/>
		</g>
		<g>
			<path d="M131.513,37.637c5.115,1.017,12.412,2.647,15.502,7.207c0.878,1.294,2.996,0.073,2.11-1.233
				c-3.522-5.196-11.124-7.17-16.963-8.33C130.626,34.975,129.97,37.331,131.513,37.637L131.513,37.637z"/>
		</g>
		<g>
			<path fill="#D55431" d="M129.651,38.725c0,0,4.093,1.82,7.484,5.987"/>
			<path d="M129.034,39.78c2.848,1.338,5.175,3.459,7.238,5.797c1.043,1.181,2.765-0.553,1.727-1.729
				c-2.184-2.474-4.713-4.76-7.731-6.178C128.853,37.005,127.61,39.111,129.034,39.78L129.034,39.78z"/>
		</g>
		<g>
			<path fill="#D55431" d="M102.56,25.08c0,0-4.924-3.382-10.877-3.951"/>
			<path d="M103.176,24.025c-3.347-2.218-7.22-3.514-11.169-4.074c-1.538-0.219-2.203,2.136-0.649,2.355
				c3.759,0.534,7.399,1.718,10.585,3.828C103.257,27.005,104.481,24.89,103.176,24.025L103.176,24.025z"/>
		</g>
		<g>
			<path fill="#D55431" d="M101.511,27.707c0,0-5.13-1.96-11.108-2.146"/>
			<path d="M101.835,26.529c-3.672-1.346-7.547-1.945-11.433-2.188c-1.57-0.099-1.564,2.345,0,2.442
				c3.672,0.23,7.318,0.833,10.783,2.102C102.665,29.426,103.302,27.066,101.835,26.529L101.835,26.529z"/>
		</g>
		<g>
			<path d="M102.709,35.281c-5.832,1.159-13.442,3.137-16.963,8.33c-0.885,1.305,1.231,2.528,2.11,1.233
				c3.104-4.578,10.358-6.186,15.502-7.208C104.899,37.331,104.247,34.975,102.709,35.281L102.709,35.281z"/>
		</g>
		<g>
			<path fill="#D55431" d="M104.715,38.725c0,0-4.093,1.82-7.485,5.987"/>
			<path d="M104.099,37.67c-3.02,1.418-5.549,3.703-7.732,6.178c-1.037,1.176,0.685,2.91,1.728,1.729
				c2.063-2.338,4.39-4.459,7.237-5.797C106.753,39.112,105.515,37.004,104.099,37.67L104.099,37.67z"/>
		</g>
		<g>
			<line fill="#D55431" x1="16.476" y1="88.812" x2="218.295" y2="88.812"/>
			<path d="M16.476,89.898c67.273,0,134.547,0,201.819,0c1.397,0,1.399-2.172,0-2.172c-67.272,0-134.546,0-201.819,0
				C15.078,87.726,15.076,89.898,16.476,89.898L16.476,89.898z"/>
		</g>
	</g>
</g>
</svg>
