<?xml version="1.0" encoding="utf-8"?>
<!-- Generator: Adobe Illustrator 16.0.0, SVG Export Plug-In . SVG Version: 6.00 Build 0)  -->
<!DOCTYPE svg PUBLIC "-//W3C//DTD SVG 1.1//EN" "http://www.w3.org/Graphics/SVG/1.1/DTD/svg11.dtd">
<svg version="1.1" id="Layer_1" xmlns="http://www.w3.org/2000/svg" xmlns:xlink="http://www.w3.org/1999/xlink" x="0px" y="0px"
	 width="737.01px" height="113.39px" viewBox="0 0 737.01 113.39" enable-background="new 0 0 737.01 113.39" xml:space="preserve">
<g>
	<path fill="#212424" d="M676.777,5.093h-32.443H94.955H62.512c-28.592,0-51.771,23.178-51.771,51.771
		c0,28.591,23.179,51.771,51.771,51.771h32.443h549.379h32.443c28.592,0,51.77-23.18,51.77-51.771
		C728.547,28.271,705.369,5.093,676.777,5.093z M676.4,99.824h-20.742h-11.324H96.242h-1.287H62.89
		c-23.727,0-42.962-19.234-42.962-42.96c0-23.729,19.235-42.963,42.962-42.963h32.065h1.287h548.092h11.324H676.4
		c23.727,0,42.961,19.234,42.961,42.963C719.361,80.59,700.127,99.824,676.4,99.824z"/>
	<path fill="#FFFFFF" d="M676.4,13.901h-20.742h-11.324H96.242h-1.287H62.89c-23.727,0-42.962,19.234-42.962,42.963
		c0,23.726,19.235,42.96,42.962,42.96h32.065h1.287h548.092h11.324H676.4c23.727,0,42.961-19.234,42.961-42.96
		C719.361,33.135,700.127,13.901,676.4,13.901z M677.242,94.748h-17.52h-4.064h-11.324H115.215H96.242h-1.287H62.046
		c-20.923,0-37.884-16.963-37.884-37.884c0-20.924,16.961-37.885,37.884-37.885h32.909h1.287h18.974h529.119h11.324h4.064h17.52
		c20.924,0,37.885,16.961,37.885,37.885C715.127,77.785,698.166,94.748,677.242,94.748z"/>
	<path fill="#00A35B" d="M677.242,18.979h-17.52h-4.064h-11.324H115.215H96.242h-1.287H62.046
		c-20.923,0-37.884,16.961-37.884,37.885c0,20.921,16.961,37.884,37.884,37.884h32.909h1.287h18.974h529.119h11.324h4.064h17.52
		c20.924,0,37.885-16.963,37.885-37.884C715.127,35.94,698.166,18.979,677.242,18.979z"/>
</g>
</svg>
