<?xml version="1.0" encoding="utf-8"?>
<!-- Generator: Adobe Illustrator 16.0.0, SVG Export Plug-In . SVG Version: 6.00 Build 0)  -->
<!DOCTYPE svg PUBLIC "-//W3C//DTD SVG 1.1//EN" "http://www.w3.org/Graphics/SVG/1.1/DTD/svg11.dtd">
<svg version="1.1" id="Layer_1" xmlns="http://www.w3.org/2000/svg" xmlns:xlink="http://www.w3.org/1999/xlink" x="0px" y="0px"
	 width="311.81px" height="212.6px" viewBox="0 0 311.81 212.6" enable-background="new 0 0 311.81 212.6" xml:space="preserve">
<g>
	<path fill="#F0DEC7" d="M270.911,61.224h-126.29l-30.781,54.143l15.008,78.805c1.293,6.787,5.77,11.525,10.892,11.525h140.662
		c5.146,0,9.637-4.781,10.906-11.613l14.635-78.717L270.911,61.224z"/>
</g>
<path d="M280.399,208.405H139.741c-6.441,0-12.015-5.643-13.558-13.723l-15.196-79.789l32.053-56.385h129.354l36.416,56.301
	l-14.836,79.768C292.468,202.722,286.884,208.405,280.399,208.405z M116.692,115.849l14.825,77.816
	c1.045,5.482,4.428,9.311,8.224,9.311h140.659c3.766,0,7.229-3.945,8.24-9.396l14.434-77.646l-33.639-51.994H146.2L116.692,115.849z
	"/>
<g>
	<path fill="#F0DEC7" d="M164.38,13.518c-4.953-4.277-11.494-6.896-19.03-6.568l-40.854,1.787
		c-8.578,0.375-22.714,0.42-27.606,7.475l-62.888,90.685c-5.064,7.303-0.056,20.922,2.954,29.283l13.539,37.605
		c2.437,6.768,7.115,11.523,12.619,14.539c0.469,0.463,0.797,1.023,1.357,1.412l19.256,13.354c4.855,3.367,11.52,2.16,14.886-2.695
		L187.995,42.66c3.367-4.854,2.16-11.518-2.695-14.885L165.335,13.93C165.038,13.723,164.688,13.689,164.38,13.518z"/>
</g>
<path d="M69.798,207.706c-2.635,0-5.292-0.775-7.619-2.387l-19.258-13.361c-0.647-0.445-1.087-0.965-1.41-1.357
	c-6.305-3.51-11.103-9.047-13.574-15.896L14.4,137.101c-3.42-9.492-8.431-23.395-2.63-31.75l62.884-90.69
	c5.324-7.668,18.336-8.188,27.838-8.559l42.742-1.865c7.694-0.404,14.788,2.066,20.598,6.945l1.023,0.498l19.99,13.871
	c2.943,2.035,4.916,5.102,5.551,8.621c0.643,3.531-0.127,7.084-2.168,10.033L80.843,201.946
	C78.24,205.69,74.051,207.706,69.798,207.706z M146.624,9.633c-0.382,0-0.77,0.012-1.156,0.033l-42.758,1.855
	c-7.889,0.318-19.814,0.795-23.59,6.234l-62.885,90.69c-4.205,6.055,0.408,18.865,3.166,26.512l13.648,37.9
	c2.015,5.588,5.944,10.117,11.368,13.076l0.604,0.455c0.239,0.234,0.451,0.488,0.658,0.732l19.597,13.744
	c3.605,2.48,8.59,1.59,11.108-2.016l109.38-157.743c1.215-1.75,1.676-3.871,1.295-5.971c-0.383-2.088-1.555-3.912-3.305-5.133
	l-19.967-13.85c-0.027,0.074-0.398-0.074-0.781-0.297l-0.396-0.285C158.099,11.68,152.589,9.633,146.624,9.633z"/>
<g id="bow_10_">
	<g>
		<g>
			<polygon fill="#0054A6" points="191.313,116.575 193.356,204.515 225.61,204.515 231.327,116.575 			"/>
		</g>
		<g>
			<path fill="#0054A6" d="M49.51,50.677c0,0-0.272-16.528,3.592-28.524c0,0,2.717-8.076,9.582-7.771
				c0,0,20.889,4.268,29.969,10.824c0,0,4.844,6.242-5.012,15.92c0,0-16.885,0.789-27.613,12.479
				C60.028,53.604,53.135,48.474,49.51,50.677z"/>
		</g>
		<g>
			<path fill="#0054A6" d="M66.778,65.409c0,0,22.48-7.902,38.462,8.283c0,0-3.921-11.117-1.896-18.229
				c0,0,2.207-6.777,10.888-10.311c0,0-28.728-14.583-53.941,9.5"/>
		</g>
		<g>
			<path fill="#0054A6" d="M57.67,78.542c0,0,0.479,23.822,21.24,33.119c0,0-11.786,0.225-17.737,4.611
				c0,0-5.573,4.443-5.839,13.813c0,0-23.727-21.793-10.011-53.85"/>
		</g>
		<g>
			<path fill="#0054A6" d="M38.106,67.892c0,0-16.953,5.252-26.963,12.986c0,0-6.694,5.316-3.796,11.781
				c0,0,12.012,18.551,21.734,25.029c0,0,7.811,2.533,13.327-10.15c0,0-4.553-16.523,2.56-30.723
				C44.968,76.815,37.374,72.101,38.106,67.892z"/>
		</g>
		<g>
			<polygon fill="#0054A6" points="120.118,138.923 85.15,115.968 59.407,83.544 57.842,78.294 66.778,65.409 72.548,65.593 
				111.354,77.931 144.489,103.778 			"/>
		</g>
		<g>
			<path fill="#0054A6" d="M63.12,70.685l-1.783,2.57c-3.847,5.547-11.533,6.938-17.08,3.092l0,0
				c-8.503-5.896-6.938-11.533-3.091-17.08l1.783-2.57c3.847-5.547,8.063-9.516,17.079-3.092l0,0
				C65.575,57.452,66.966,65.138,63.12,70.685z"/>
		</g>
	</g>
</g>
<g>
	<path fill="#D55431" d="M55.474,50.306c0,0,0.025-5.778,2.856-10.827"/>
	<path d="M56.696,50.306c0.083-3.58,1.104-7.015,2.689-10.21c0.697-1.404-1.41-2.643-2.109-1.232
		c-1.776,3.58-2.93,7.423-3.023,11.442C54.216,51.878,56.66,51.878,56.696,50.306L56.696,50.306z"/>
</g>
<g>
	<path fill="#D55431" d="M58.209,51.423c0,0,0.818-6.974,3.967-11.829"/>
	<path d="M59.431,51.423c0.507-3.932,1.802-7.8,3.8-11.214c0.796-1.359-1.314-2.59-2.109-1.232
		c-2.238,3.822-3.567,8.056-4.134,12.446C56.787,52.978,59.232,52.962,59.431,51.423L59.431,51.423z"/>
</g>
<g>
	<path d="M65.479,59.29c3.643-3.518,8.915-8.299,14.263-8.264c1.572,0.01,1.574-2.434,0-2.443c-6.087-0.041-11.833,4.965-15.99,8.98
		C62.618,58.657,64.347,60.384,65.479,59.29L65.479,59.29z"/>
</g>
<g>
	<path fill="#D55431" d="M65.135,59.542c0,0,3.704-2.25,8.887-2.65"/>
	<path d="M65.751,60.597c2.53-1.457,5.396-2.131,8.271-2.482c1.541-0.188,1.559-2.635,0-2.443c-3.309,0.404-6.585,1.137-9.504,2.816
		C63.156,59.272,64.385,61.384,65.751,60.597L65.751,60.597z"/>
</g>
<g>
	<path fill="#D55431" d="M39.349,73.558c0,0-5.403,2.051-9.138,6.471"/>
	<path d="M39.024,72.38c-3.731,1.488-6.958,3.85-9.677,6.783c-1.068,1.152,0.656,2.885,1.728,1.729
		c2.411-2.602,5.277-4.83,8.599-6.154C41.117,74.161,40.487,71.798,39.024,72.38L39.024,72.38z"/>
</g>
<g>
	<path fill="#D55431" d="M40.859,75.841c0,0-4.386,2.998-7.83,7.648"/>
	<path d="M40.243,74.786c-3.093,2.176-5.738,4.881-8.077,7.84c-0.965,1.221,0.752,2.961,1.728,1.727
		c2.206-2.789,4.66-5.4,7.583-7.457C42.752,75.997,41.533,73.878,40.243,74.786L40.243,74.786z"/>
</g>
<g>
	<path d="M47.729,78.655c-2.285,5.26-5.062,12.459-2.896,18.131c0.555,1.455,2.918,0.824,2.356-0.648
		c-1.911-5.006,0.612-11.557,2.65-16.248C50.458,78.462,48.354,77.216,47.729,78.655L47.729,78.655z"/>
</g>
<g>
	<path fill="#D55431" d="M51.386,79.368c0,0-0.81,4.258,0.634,9.252"/>
	<path d="M50.208,79.044c-0.553,3.334-0.152,6.641,0.634,9.9c0.368,1.527,2.725,0.881,2.356-0.65
		c-0.67-2.779-1.107-5.742-0.634-8.602C52.819,78.155,50.465,77.493,50.208,79.044L50.208,79.044z"/>
</g>
<g>
	<line fill="#D55431" x1="42.558" y1="177.136" x2="153.829" y2="16.682"/>
	<path d="M43.496,177.685C80.586,124.2,117.676,70.714,154.767,17.229c0.799-1.15-1.084-2.238-1.875-1.096
		c-37.09,53.485-74.181,106.97-111.271,160.456C40.822,177.739,42.704,178.827,43.496,177.685L43.496,177.685z"/>
</g>
<g>
	<line fill="#FFFFFF" x1="305.942" y1="115.366" x2="137.576" y2="115.366"/>
	<rect x="137.578" y="112.657" width="168.363" height="5.43"/>
</g>
<path d="M51.204,79.888c-2.752,0-5.424-0.838-7.72-2.428c-9.926-6.883-7.047-13.754-3.431-18.971l1.782-2.566
	c2.2-3.172,4.756-6.205,8.505-6.852c3.107-0.52,6.49,0.605,10.477,3.436c2.964,2.047,4.963,5.164,5.615,8.76
	s-0.132,7.211-2.201,10.191l-1.781,2.566c-2.063,2.98-5.175,4.984-8.77,5.641C52.853,79.813,52.025,79.888,51.204,79.888z
	 M51.845,51.659c-0.355,0-0.705,0.021-1.04,0.084c-2.768,0.479-4.878,3.033-6.744,5.727l-1.782,2.566
	c-3.733,5.387-4.692,10.033,2.752,15.197c2.381,1.654,5.286,2.279,8.166,1.76c2.879-0.529,5.371-2.131,7.02-4.518l1.787-2.566
	c1.654-2.385,2.274-5.281,1.755-8.166c-0.52-2.873-2.121-5.365-4.507-7.02C56.363,52.667,53.929,51.659,51.845,51.659z"/>
<path d="M30.795,119.263c-1.225,0-2.025-0.244-2.131-0.275l-0.334-0.158c-9.847-6.564-21.623-24.666-22.121-25.43
	c-2.736-6.057,1.49-11.518,4.093-13.586c10.101-7.805,26.702-13,27.402-13.213l2.121-0.656l-0.382,2.184
	c-0.414,2.396,3.605,5.896,6.241,7.529l1.05,0.658l-0.552,1.102c-6.787,13.553-2.508,29.598-2.465,29.758l0.127,0.465l-0.191,0.436
	C39.433,117.79,33.817,119.263,30.795,119.263z M29.65,116.442c1.044,0.232,6.797,1.008,11.326-9.025
	c-0.695-2.83-3.717-17.094,2.259-30.127c-1.872-1.314-5.567-4.264-6.374-7.551c-4.47,1.518-16.989,6.109-24.889,12.207
	c-0.217,0.18-5.811,4.75-3.383,10.158C8.605,92.104,20.307,110.079,29.65,116.442z"/>
<path d="M120.478,140.78l-1.108-0.721l-35.281-23.246L58.107,83.938l-1.75-5.875l9.724-14.029l6.882,0.266l39.222,12.557
	l34.146,26.648L120.478,140.78z M86.077,114.946l33.68,22.121l22.885-33.012l-31.93-24.91L72.317,66.94l-4.846-0.148L59.327,78.53
	l1.304,4.381L86.077,114.946z"/>
<path d="M56.606,133.091l-2.19-2.014c-0.244-0.223-24.273-22.822-10.339-55.367l2.492,1.061
	c-10.79,25.219,2.413,44.051,7.688,50.182c1.219-7.785,5.848-11.57,6.066-11.74c3.828-2.82,9.714-4.029,13.833-4.539
	c-17.2-10.646-17.836-31.877-17.842-32.1l2.715-0.063c0.005,0.232,0.731,23.096,20.44,31.908l5.535,2.482l-6.065,0.115
	c-0.117,0-11.432,0.266-16.962,4.348c-0.165,0.139-5.043,4.189-5.287,12.758L56.606,133.091z"/>
<path d="M108.526,78.966l-4.252-4.316c-15.18-15.355-36.83-8.037-37.047-7.953l-0.901-2.566c0.223-0.074,20.323-6.924,36.325,5.461
	c-0.965-4.039-1.902-9.957-0.609-14.496c0.102-0.307,2.021-6.002,8.924-9.873c-7.545-2.884-29.629-8.802-49.735,10.414l-1.877-1.973
	c25.615-24.442,55.191-9.872,55.493-9.724l2.652,1.347l-2.752,1.123c-7.943,3.234-10.027,9.227-10.111,9.48
	c-1.867,6.555,1.845,17.244,1.882,17.361L108.526,78.966z"/>
<path d="M60.202,55.435l-0.986-0.732c-1.606-1.188-6.691-4.221-8.998-2.873l-2.025,1.23l-0.037-2.365
	c-0.011-0.68-0.233-16.882,3.653-28.962c0.127-0.381,3.022-8.717,10.477-8.717c0.154,0,0.302,0,0.456,0.012
	c1.077,0.201,21.496,4.422,30.706,11.07l0.276,0.275c0.228,0.287,5.466,7.318-5.133,17.721l-0.366,0.371l-0.52,0.021
	c-0.165,0.01-16.464,0.912-26.676,12.046L60.202,55.435z M51.67,48.774c3.076,0,6.485,1.951,8.176,3.055
	C69.852,41.67,84.073,40.037,87.042,39.803c7.668-7.74,5.191-12.725,4.624-13.637c-8.845-6.236-29.052-10.414-29.253-10.457
	c-0.09,0-0.18,0-0.265,0c-5.35,0-7.736,6.799-7.763,6.873c-3.001,9.32-3.452,21.643-3.51,26.235
	C51.135,48.786,51.4,48.774,51.67,48.774z"/>
<path d="M151.842,112.175c0-16.021,0-2.041,0-18.063c0-1.396-2.172-1.398-2.172,0c0,16.021,0,2.041,0,18.063
	C149.67,113.573,151.842,113.575,151.842,112.175L151.842,112.175z"/>
<path d="M270.112,112.175c0.629-16.984,1.258-33.967,1.887-50.951c0.051-1.396-2.121-1.395-2.174,0
	c-0.627,16.984-1.256,33.967-1.883,50.951C267.89,113.573,270.062,113.571,270.112,112.175L270.112,112.175z"/>
<path d="M226.884,205.87h-34.852l-2.105-90.646h42.848L226.884,205.87z M194.683,203.155h29.656l5.541-85.217h-37.174
	L194.683,203.155z"/>
<g>
	<line fill="#D55431" x1="269.028" y1="112.175" x2="270.911" y2="61.224"/>
</g>
<g>
	<line fill="#D55431" x1="150.756" y1="112.175" x2="150.756" y2="96.909"/>
</g>
</svg>
