<?xml version="1.0" encoding="utf-8"?>
<!-- Generator: Adobe Illustrator 16.0.0, SVG Export Plug-In . SVG Version: 6.00 Build 0)  -->
<!DOCTYPE svg PUBLIC "-//W3C//DTD SVG 1.1//EN" "http://www.w3.org/Graphics/SVG/1.1/DTD/svg11.dtd">
<svg version="1.1" id="Layer_1" xmlns="http://www.w3.org/2000/svg" xmlns:xlink="http://www.w3.org/1999/xlink" x="0px" y="0px"
	 width="232.44px" height="212.6px" viewBox="0 0 232.44 212.6" enable-background="new 0 0 232.44 212.6" xml:space="preserve">
<g>
	<g>
		<g>
			<path fill="#F0DEC7" d="M226.01,96.399c0.715-6.727-0.912-13.826-5.631-20.031l-25.58-33.647
				c-5.369-7.064-13.734-19.045-22.607-19.045H58.127c-9.185,0-17.803,12.275-23.132,19.756L11.031,77.079
				c-4.313,6.057-5.598,12.832-4.917,19.283c-0.117,0.67-0.4,1.279-0.4,1.982v24.221c0,6.105,4.951,11.057,11.057,11.057h198.396
				c6.105,0,11.055-4.951,11.055-11.057V97.452C226.221,97.079,226.045,96.763,226.01,96.399z"/>
			<path d="M215.166,136.335H16.77c-7.593,0-13.77-6.172-13.77-13.766V98.349c0-0.816,0.186-1.484,0.318-1.982
				c-0.716-7.445,1.15-14.762,5.503-20.871l23.961-33.636c6.061-8.516,14.889-20.902,25.345-20.902h114.063
				c9.607,0,17.699,10.742,23.611,18.58l26.738,35.185c4.793,6.299,6.936,13.744,6.209,21.527l0.186,1.199v25.121
				C228.936,130.163,222.758,136.335,215.166,136.335z M58.128,26.386c-7.657,0-15.822,11.464-20.7,18.304L13.244,78.646
				C9.67,83.661,8.138,89.685,8.812,96.079l0.042,0.383l-0.069,0.371c-0.058,0.328-0.143,0.656-0.228,0.975L8.43,122.569
				c0,4.592,3.743,8.336,8.34,8.336h198.396c4.598,0,8.34-3.744,8.34-8.336V97.448c-0.09-0.148-0.164-0.457-0.195-0.775
				l-0.033-0.275l0.033-0.287c0.693-6.543-1.066-12.809-5.09-18.102l-26.756-35.207c-4.926-6.532-12.371-16.416-19.273-16.416
				H58.128z"/>
		</g>
		<path fill="#FFFFFF" d="M35.56,205.308"/>
		<g>
			<path fill="#F0DEC7" d="M33.354,198.368l-15.076-64.746h192.969l-14.701,64.674c-1.275,5.613-5.787,9.541-10.957,9.541H44.294
				C39.149,207.837,34.653,203.944,33.354,198.368z"/>
			<path d="M185.59,210.556H44.294c-6.41,0-11.994-4.762-13.584-11.57l-15.849-68.08h199.785l-15.457,67.996
				C197.637,205.763,192.043,210.556,185.59,210.556z M36.001,197.757c1.007,4.336,4.422,7.369,8.292,7.369H185.59
				c3.896,0,7.316-3.055,8.309-7.434l13.951-61.357H21.701L36.001,197.757z"/>
		</g>
	</g>
	<g>
		<path fill="#0054A6" d="M117.813,44.065h-3.233c-6.977,0-12.686-5.708-12.686-12.685l0,0c0-10.696,5.708-12.686,12.686-12.686
			h3.233c6.976,0,12.831,1.243,12.685,12.686l0,0C130.498,38.357,124.789,44.065,117.813,44.065z"/>
		<g>
			<g>
				<polygon fill="#0054A6" points="96.102,134.614 98.152,206.866 130.553,206.866 136.293,134.614 				"/>
			</g>
			<polygon fill="#0054A6" points="93.426,132.667 92.328,89.448 104.705,48.486 108.241,44.065 124.449,44.065 127.691,49.075 
				140.068,89.302 137.631,132.667 			"/>
			<path fill="#0054A6" d="M105.453,21.175c0,0-14.445-11.305-26.91-15.252c0,0-8.458-2.555-12.242,3.715
				c0,0-8.681,21.129-8.458,33.202c0,0,2.448,8.126,16.471,5.34c0,0,11.352-13.599,27.601-15.92
				C101.914,32.26,101.446,23.033,105.453,21.175z"/>
			<path fill="#0054A6" d="M107.931,44.065c0,0-19.953,14.438-15.619,37.547c0,0-7.132-9.879-14.365-12.348
				c0,0-7.056-2.117-15.17,3.174c0,0,4.535-32.987,39.84-40.218"/>
			<path fill="#0054A6" d="M124.449,44.065c0,0,19.951,14.438,15.619,37.547c0,0,7.133-9.879,14.365-12.348
				c0,0,7.055-2.117,15.17,3.174c0,0-4.535-32.987-39.84-40.218"/>
			<path fill="#0054A6" d="M126.791,20.722c0,0,13.879-9.967,26.344-13.75c0,0,8.457-2.449,12.242,3.561
				c0,0,8.682,20.256,8.459,31.83c0,0-2.449,7.79-16.473,5.119c0,0-10.617-13.876-26.865-16.102
				C130.498,31.38,130.797,22.503,126.791,20.722z"/>
		</g>
	</g>
	<g id="bow_outline_13_">
		<g>
			<path d="M162.854,49.398c-1.688,0-3.59-0.18-5.742-0.583l-0.51-0.096l-0.313-0.413c-0.105-0.138-10.494-13.457-25.977-15.578
				l-1.209-0.17l0.037-1.22c0.07-2.067-0.322-8.229-2.9-9.374L124.078,21l1.924-1.379c0.572-0.414,14.199-10.138,26.74-13.945
				c0.408-0.116,9.512-2.65,13.785,4.136c0.457,1.029,8.893,20.849,8.664,32.577l-0.063,0.382
				C175.033,43.088,172.906,49.398,162.854,49.398z M158.113,46.238c11.125,1.898,13.93-3.117,14.369-4.125
				c0.09-11.198-8.268-30.849-8.352-31.05c-3.113-4.899-10.541-2.821-10.621-2.789c-9.725,2.948-20.504,9.873-24.406,12.503
				c2.291,2.534,2.699,7.179,2.752,9.438C146.41,32.717,156.188,43.884,158.113,46.238z"/>
		</g>
		<g>
			<path d="M137.619,87.331l1.113-5.971c4.121-21.962-14.889-36.055-15.08-36.193l1.592-2.206
				c0.191,0.138,17.895,13.234,16.734,34.157c2.848-3.201,7.359-7.551,12.014-9.141c0.318-0.117,6.32-1.846,13.691,1.813
				c-1.963-8.038-9.9-30.445-38.193-36.246l0.541-2.651c35.838,7.339,40.871,41.03,40.918,41.368l0.404,2.938l-2.492-1.621
				c-7.439-4.857-13.781-3.098-14.047-3.012c-6.676,2.279-13.574,11.75-13.643,11.846L137.619,87.331z"/>
		</g>
		<g>
			<path d="M94.761,87.331l-3.552-4.92c-0.069-0.096-6.967-9.566-13.701-11.867c-0.217-0.064-6.548-1.834-13.988,3.033l-2.492,1.621
				l0.403-2.938c0.048-0.338,5.08-34.029,40.917-41.368l0.541,2.651c-28.293,5.801-36.23,28.208-38.192,36.246
				c7.37-3.615,13.362-1.908,13.638-1.834c4.692,1.602,9.215,5.961,12.068,9.162c-1.167-20.922,16.543-34.019,16.734-34.157
				l1.591,2.206c-0.191,0.138-19.2,14.23-15.08,36.193L94.761,87.331z"/>
		</g>
		<g>
			<path d="M68.812,50.13c-10.059,0-12.174-6.564-12.27-6.894l-0.058-0.371c-0.223-12.217,8.202-32.863,8.558-33.743
				c3.526-5.875,10.615-5.483,13.892-4.508c12.572,3.998,26.755,15.027,27.354,15.494l1.744,1.367l-2.009,0.934
				c-2.593,1.198-2.863,7.625-2.752,9.788l0.059,1.229l-1.225,0.181c-15.557,2.217-26.639,15.313-26.745,15.44l-0.308,0.371
				l-0.472,0.096C72.417,49.939,70.503,50.13,68.812,50.13z M59.194,42.601c0.403,0.996,3.155,6.384,14.401,4.337
				c1.967-2.227,12.317-13.245,26.941-15.833c0.011-2.354,0.334-7.296,2.683-9.904c-3.892-2.874-15.212-10.859-25.085-13.987
				c-0.286-0.096-7.492-2.153-10.673,3.128C67.47,10.363,59.087,30.904,59.194,42.601z"/>
		</g>
		<g>
			<path d="M138.914,134.022H92.1l-1.135-44.752l12.678-41.632l3.945-4.932h17.598l3.803,5.971l12.449,40.457l-0.012,0.244
				L138.914,134.022z M94.751,131.308h41.597l2.354-41.834l-12.254-39.81l-2.736-4.242h-14.819l-2.964,3.712L93.69,89.632
				L94.751,131.308z"/>
		</g>
		<g>
			<path d="M117.815,45.421h-3.234c-7.747,0-14.045-6.299-14.045-14.04c0-12.45,7.508-14.041,14.045-14.041h3.234
				c3.982,0,8.044,0.382,10.796,3.171c2.248,2.27,3.309,5.833,3.244,10.891C131.855,39.123,125.557,45.421,117.815,45.421z
				 M114.581,20.055c-6.803,0-11.331,1.931-11.331,11.326c0,6.246,5.084,11.325,11.331,11.325h3.234
				c6.245,0,11.325-5.079,11.325-11.325c0.053-4.306-0.752-7.232-2.459-8.961c-2.053-2.079-5.473-2.365-8.866-2.365H114.581z"/>
		</g>
		<path d="M131.803,208.224H96.834l-2.126-74.965h43.053L131.803,208.224z M99.475,205.509h29.826l5.523-69.535H97.498
			L99.475,205.509z"/>
		<g>
			<path fill="#D55431" d="M130.619,25.569c0,0,4.922-3.382,10.877-3.951"/>
			<path d="M131.236,26.624c3.188-2.111,6.824-3.294,10.584-3.828c1.551-0.22,0.891-2.574-0.648-2.355
				c-3.949,0.561-7.824,1.857-11.17,4.074C128.697,25.378,129.92,27.496,131.236,26.624L131.236,26.624z"/>
		</g>
		<g>
			<path fill="#D55431" d="M131.281,28.549c0,0,6.404-3.413,12.383-3.599"/>
			<path d="M131.896,29.604c3.654-1.893,7.664-3.116,11.768-3.432c1.559-0.119,1.57-2.563,0-2.443c-4.545,0.35-8.951,1.667-13,3.766
				C129.268,28.218,130.502,30.328,131.896,29.604L131.896,29.604z"/>
		</g>
		<g>
			<path d="M130.324,38.126c5.115,1.016,12.412,2.647,15.504,7.207c0.877,1.294,2.994,0.073,2.109-1.233
				c-3.523-5.196-11.123-7.17-16.963-8.33C129.439,35.464,128.781,37.819,130.324,38.126L130.324,38.126z"/>
		</g>
		<g>
			<path fill="#D55431" d="M128.463,39.214c0,0,4.094,1.82,7.486,5.987"/>
			<path d="M127.848,40.269c2.846,1.338,5.174,3.459,7.236,5.796c1.043,1.182,2.766-0.552,1.729-1.728
				c-2.184-2.474-4.713-4.76-7.732-6.178C127.666,37.495,126.424,39.6,127.848,40.269L127.848,40.269z"/>
		</g>
		<g>
			<path fill="#D55431" d="M101.372,25.569c0,0-4.923-3.382-10.877-3.951"/>
			<path d="M101.988,24.514c-3.347-2.218-7.22-3.514-11.169-4.074c-1.538-0.219-2.202,2.135-0.649,2.355
				c3.76,0.534,7.399,1.718,10.585,3.828C102.069,27.495,103.294,25.379,101.988,24.514L101.988,24.514z"/>
		</g>
		<g>
			<path fill="#D55431" d="M100.323,28.196c0,0-5.13-1.96-11.108-2.146"/>
			<path d="M100.648,27.018c-3.672-1.346-7.547-1.945-11.433-2.188c-1.57-0.099-1.564,2.345,0,2.442
				c3.672,0.23,7.319,0.832,10.783,2.102C101.477,29.916,102.115,27.555,100.648,27.018L100.648,27.018z"/>
		</g>
		<g>
			<path d="M101.521,35.77c-5.832,1.159-13.442,3.137-16.963,8.33c-0.885,1.305,1.231,2.528,2.11,1.233
				c3.104-4.578,10.359-6.186,15.502-7.208C103.712,37.82,103.06,35.464,101.521,35.77L101.521,35.77z"/>
		</g>
		<g>
			<path fill="#D55431" d="M103.527,39.214c0,0-4.093,1.82-7.485,5.987"/>
			<path d="M102.911,38.16c-3.019,1.418-5.548,3.703-7.732,6.178c-1.037,1.175,0.685,2.91,1.728,1.728
				c2.063-2.337,4.39-4.458,7.238-5.796C105.566,39.601,104.327,37.494,102.911,38.16L102.911,38.16z"/>
		</g>
		<g>
			<line fill="#D55431" x1="15.289" y1="89.302" x2="217.107" y2="89.302"/>
			<path d="M15.289,90.388c67.273,0,134.545,0,201.819,0c1.398,0,1.4-2.172,0-2.172c-67.273,0-134.546,0-201.819,0
				C13.891,88.216,13.889,90.388,15.289,90.388L15.289,90.388z"/>
		</g>
	</g>
</g>
</svg>
