<?xml version="1.0" encoding="utf-8"?>
<!-- Generator: Adobe Illustrator 21.1.0, SVG Export Plug-In . SVG Version: 6.00 Build 0)  -->
<svg version="1.1" xmlns="http://www.w3.org/2000/svg" xmlns:xlink="http://www.w3.org/1999/xlink" x="0px" y="0px"
	 viewBox="0 0 219.5 225.3" style="enable-background:new 0 0 219.5 225.3;" xml:space="preserve">
<style type="text/css">
	.st0{fill:#FFFFFF;}
	.st1{fill:#11622D;}
	.st2{fill:#158C41;}
	.st3{opacity:0.35;}
	.st4{fill:#3D3D39;}
	.st5{fill:#F7F340;}
</style>
<g id="Layer_1">
</g>
<g id="Gift2">
	<g id="green_1_">
		<g id="Layer_8">
		</g>
		<g id="outline">
		</g>
	</g>
	<g id="purple_1_">
	</g>
	<g id="red_2_">
	</g>
	<g id="blue_1_">
	</g>
	<g id="yellow_1_">
	</g>
	<g id="pink_1_">
	</g>
	<g id="red_1_">
	</g>
</g>
<g id="Gift1">
	<g id="green">
		<g id="Layer_6">
		</g>
	</g>
	<g id="blue">
	</g>
	<g id="purple">
	</g>
	<g id="yellow">
	</g>
	<g id="pink">
	</g>
	<g id="orange">
	</g>
	<g id="red">
	</g>
</g>
<g id="CLICK">
	<circle class="st0" cx="111.8" cy="110.1" r="96.3"/>
	<circle class="st1" cx="111.8" cy="109.6" r="87.1"/>
	<circle class="st2" cx="111.3" cy="108.4" r="82.6"/>
	<g>
		<path class="st0" d="M38.1,115.7c0-45.8,37.2-83,83-83c16.1,0,31.1,4.7,43.8,12.6c-14.5-12.3-33.2-19.7-53.6-19.7
			c-45.8,0-83,37.2-83,83c0,29.8,15.7,55.8,39.2,70.4C49.6,163.8,38.1,141.1,38.1,115.7z"/>
	</g>
	<ellipse transform="matrix(0.759 -0.6511 0.6511 0.759 -25.4922 56.4884)" class="st0" cx="63.6" cy="62.7" rx="21.3" ry="15.1"/>
	<g class="st3">
		<path class="st0" d="M64.6,68.4c27.7-31.7,77.1-38,107.7-5.2c10.7,11.5,18.4,23.6,21.2,37.9c-0.9-18.5-9.3-36.1-22.9-50.7
			C140,17.7,90.4,32.8,60.6,51.8c-24.5,15.6-26,57.1-20.8,83.6C38.8,112.5,48.3,87.1,64.6,68.4z"/>
	</g>
	<g>
		<path class="st4" d="M79.6,123.7c0-1.3-0.5-2.4-1.4-3.2c-0.9-0.8-2.6-1.6-4.9-2.2c-3.4-0.9-6-2.2-7.8-3.7c-1.8-1.5-2.8-3.5-2.8-6
			c0-2.5,1-4.6,3-6.3c2-1.6,4.6-2.5,7.8-2.5c3.4,0,6.1,0.9,8.2,2.7c2,1.8,3,4.1,3,6.8l0,0.1h-5.1c0-1.7-0.6-3-1.7-4
			c-1.1-1-2.6-1.5-4.4-1.5c-1.8,0-3.1,0.4-4.1,1.3c-1,0.8-1.4,1.9-1.4,3.2c0,1.2,0.5,2.2,1.6,3c1.1,0.8,2.8,1.5,5.2,2.2
			c3.3,0.9,5.8,2.2,7.5,3.8c1.7,1.6,2.6,3.6,2.6,6.1c0,2.6-1,4.7-3.1,6.2c-2,1.6-4.7,2.3-8.1,2.3c-3.2,0-6-0.9-8.4-2.6
			c-2.4-1.7-3.5-4.1-3.5-7.2l0-0.1H67c0,1.9,0.7,3.3,2,4.3c1.3,1,2.9,1.4,4.8,1.4c1.9,0,3.3-0.4,4.3-1.2
			C79.1,126.1,79.6,125,79.6,123.7z"/>
		<path class="st4" d="M107.8,117.6H95.5v10H110v4.2H90.3v-31.5h19.6v4.2H95.5v8.9h12.3V117.6z"/>
		<path class="st4" d="M139.4,131.7h-5.3l-13.9-22.7l-0.1,0v22.6h-5.3v-31.5h5.3L134,123l0.1,0v-22.6h5.3V131.7z"/>
		<path class="st4" d="M146,131.7v-31.5h10.4c4,0,7.2,1.2,9.7,3.7s3.8,5.7,3.8,9.6v4.8c0,3.9-1.3,7.1-3.8,9.6
			c-2.5,2.5-5.7,3.7-9.7,3.7H146z M151.2,104.5v23.1h5.1c2.5,0,4.5-0.9,6-2.6s2.2-3.9,2.2-6.6v-4.8c0-2.7-0.7-4.8-2.2-6.5
			s-3.5-2.6-6-2.6H151.2z"/>
	</g>
	<g>
		<path class="st5" d="M78.2,121.4c0-1.3-0.5-2.4-1.4-3.2c-0.9-0.8-2.6-1.6-4.9-2.2c-3.4-0.9-6-2.2-7.8-3.7c-1.8-1.5-2.8-3.5-2.8-6
			c0-2.5,1-4.6,3-6.3c2-1.6,4.6-2.5,7.8-2.5c3.4,0,6.1,0.9,8.2,2.7c2,1.8,3,4.1,3,6.8l0,0.1h-5.1c0-1.7-0.6-3-1.7-4
			c-1.1-1-2.6-1.5-4.4-1.5c-1.8,0-3.1,0.4-4.1,1.3c-1,0.8-1.4,1.9-1.4,3.2c0,1.2,0.5,2.2,1.6,3c1.1,0.8,2.8,1.5,5.2,2.2
			c3.3,0.9,5.8,2.2,7.5,3.8c1.7,1.6,2.6,3.6,2.6,6.1c0,2.6-1,4.7-3.1,6.2c-2,1.6-4.7,2.3-8.1,2.3c-3.2,0-6-0.9-8.4-2.6
			c-2.4-1.7-3.5-4.1-3.5-7.2l0-0.1h5.1c0,1.9,0.7,3.3,2,4.3c1.3,1,2.9,1.4,4.8,1.4c1.9,0,3.3-0.4,4.3-1.2
			C77.7,123.8,78.2,122.8,78.2,121.4z"/>
		<path class="st5" d="M106.4,115.3H94.1v10h14.5v4.2H88.8V98h19.6v4.2H94.1v8.9h12.3V115.3z"/>
		<path class="st5" d="M137.9,129.5h-5.3l-13.9-22.7l-0.1,0v22.6h-5.3V98h5.3l13.9,22.7l0.1,0V98h5.3V129.5z"/>
		<path class="st5" d="M144.5,129.5V98h10.4c4,0,7.2,1.2,9.7,3.7s3.8,5.7,3.8,9.6v4.8c0,3.9-1.3,7.1-3.8,9.6
			c-2.5,2.5-5.7,3.7-9.7,3.7H144.5z M149.8,102.2v23.1h5.1c2.5,0,4.5-0.9,6-2.6s2.2-3.9,2.2-6.6v-4.8c0-2.7-0.7-4.8-2.2-6.5
			s-3.5-2.6-6-2.6H149.8z"/>
	</g>
</g>
<g id="Text_box">
</g>
</svg>
