<?xml version="1.0" encoding="utf-8"?>
<!-- Generator: Adobe Illustrator 16.0.0, SVG Export Plug-In . SVG Version: 6.00 Build 0)  -->
<!DOCTYPE svg PUBLIC "-//W3C//DTD SVG 1.1//EN" "http://www.w3.org/Graphics/SVG/1.1/DTD/svg11.dtd">
<svg version="1.1" id="Layer_1" xmlns="http://www.w3.org/2000/svg" xmlns:xlink="http://www.w3.org/1999/xlink" x="0px" y="0px"
	 width="184.25px" height="184.25px" viewBox="0 0 184.25 184.25" enable-background="new 0 0 184.25 184.25" xml:space="preserve">
<circle fill="#00814A" cx="92.637" cy="92.67" r="87.13"/>
<circle fill="#00A35B" cx="92.084" cy="91.527" r="82.574"/>
<g>
	<path fill="#4E5653" d="M63.488,106.164c-0.707,2.988-2.054,5.285-4.041,6.89c-2.046,1.59-4.468,2.385-7.265,2.385
		c-2.532-0.06-4.645-0.677-6.337-1.854c-1.722-1.134-2.974-2.443-3.754-3.931c-0.235-0.485-0.449-0.95-0.64-1.392
		c-0.177-0.456-0.324-1.03-0.442-1.723c-0.221-1.295-0.331-3.783-0.331-7.463c0-3.739,0.11-6.242,0.331-7.508
		c0.236-1.266,0.596-2.289,1.082-3.069c0.78-1.487,2.032-2.812,3.754-3.975c1.693-1.178,3.806-1.781,6.337-1.811
		c3.106,0.029,5.638,0.949,7.596,2.76c1.958,1.825,3.194,4.085,3.709,6.779h-5.167c-0.397-1.295-1.119-2.399-2.164-3.312
		c-1.089-0.869-2.414-1.318-3.975-1.347c-1.148,0.029-2.134,0.258-2.959,0.685c-0.839,0.441-1.516,0.994-2.031,1.656
		c-0.633,0.692-1.053,1.583-1.259,2.672c-0.235,1.147-0.354,3.305-0.354,6.47s0.118,5.307,0.354,6.426
		c0.206,1.119,0.625,2.023,1.259,2.716c0.515,0.663,1.192,1.2,2.031,1.612c0.825,0.485,1.811,0.729,2.959,0.729
		c2.738,0,4.784-1.465,6.139-4.395H63.488z"/>
	<path fill="#4E5653" d="M66.933,82.979h4.88v27.58h15.678v4.615H66.933V82.979z"/>
	<path fill="#4E5653" d="M92.084,82.979h4.88v32.195h-4.88V82.979z"/>
	<path fill="#4E5653" d="M125.449,106.164c-0.707,2.988-2.054,5.285-4.041,6.89c-2.047,1.59-4.468,2.385-7.266,2.385
		c-2.531-0.06-4.644-0.677-6.337-1.854c-1.722-1.134-2.974-2.443-3.753-3.931c-0.236-0.485-0.449-0.95-0.641-1.392
		c-0.178-0.456-0.324-1.03-0.441-1.723c-0.221-1.295-0.332-3.783-0.332-7.463c0-3.739,0.111-6.242,0.332-7.508
		c0.234-1.266,0.596-2.289,1.082-3.069c0.779-1.487,2.031-2.812,3.753-3.975c1.693-1.178,3.806-1.781,6.337-1.811
		c3.107,0.029,5.639,0.949,7.597,2.76c1.958,1.825,3.194,4.085,3.71,6.779h-5.167c-0.397-1.295-1.119-2.399-2.164-3.312
		c-1.089-0.869-2.415-1.318-3.976-1.347c-1.147,0.029-2.134,0.258-2.958,0.685c-0.839,0.441-1.517,0.994-2.032,1.656
		c-0.633,0.692-1.052,1.583-1.258,2.672c-0.236,1.147-0.354,3.305-0.354,6.47s0.117,5.307,0.354,6.426
		c0.206,1.119,0.625,2.023,1.258,2.716c0.516,0.663,1.193,1.2,2.032,1.612c0.824,0.485,1.811,0.729,2.958,0.729
		c2.738,0,4.785-1.465,6.14-4.395H125.449z"/>
	<path fill="#4E5653" d="M128.894,82.979h4.88v16.584h0.089l13.249-16.584h5.785l-10.313,12.697l11.395,19.498h-5.785l-8.767-15.744
		l-5.653,5.939v9.805h-4.88V82.979z"/>
</g>
<g>
	<path fill="#FFFFFF" d="M18.937,98.826c0-45.848,37.167-83.015,83.015-83.015c16.094,0,31.065,4.655,43.787,12.582
		C131.268,16.121,112.567,8.686,92.107,8.686c-45.848,0-83.015,37.167-83.015,83.016c0,29.755,15.706,55.777,39.228,70.434
		C30.364,146.906,18.937,124.215,18.937,98.826z"/>
</g>
<ellipse transform="matrix(0.759 -0.6511 0.6511 0.759 -19.1239 39.9198)" fill="#FFFFFF" cx="44.361" cy="45.792" rx="21.268" ry="15.055"/>
<g>
	<path fill="#F9EA5E" d="M62.158,104.09c-0.707,2.988-2.054,5.284-4.041,6.889c-2.046,1.59-4.468,2.385-7.265,2.385
		c-2.532-0.059-4.645-0.677-6.337-1.854c-1.722-1.134-2.974-2.444-3.754-3.931c-0.235-0.486-0.449-0.949-0.64-1.391
		c-0.177-0.457-0.324-1.031-0.442-1.723c-0.221-1.295-0.331-3.783-0.331-7.464c0-3.739,0.11-6.241,0.331-7.507
		c0.235-1.266,0.596-2.289,1.082-3.069c0.78-1.487,2.032-2.812,3.754-3.975c1.693-1.178,3.805-1.782,6.337-1.811
		c3.106,0.029,5.638,0.95,7.596,2.76c1.958,1.826,3.194,4.085,3.709,6.779h-5.167c-0.397-1.296-1.119-2.4-2.164-3.313
		c-1.089-0.869-2.414-1.317-3.975-1.347c-1.148,0.029-2.135,0.257-2.959,0.684c-0.839,0.442-1.516,0.994-2.031,1.656
		c-0.633,0.692-1.053,1.583-1.259,2.672c-0.236,1.148-0.354,3.305-0.354,6.47s0.118,5.308,0.354,6.426
		c0.206,1.119,0.625,2.024,1.259,2.716c0.515,0.663,1.192,1.2,2.031,1.612c0.824,0.485,1.811,0.729,2.959,0.729
		c2.738,0,4.784-1.464,6.139-4.394H62.158z"/>
	<path fill="#F9EA5E" d="M65.603,80.904h4.88v27.58h15.678v4.615H65.603V80.904z"/>
	<path fill="#F9EA5E" d="M90.754,80.904h4.88v32.195h-4.88V80.904z"/>
	<path fill="#F9EA5E" d="M124.119,104.09c-0.707,2.988-2.054,5.284-4.041,6.889c-2.047,1.59-4.468,2.385-7.266,2.385
		c-2.531-0.059-4.645-0.677-6.337-1.854c-1.722-1.134-2.974-2.444-3.754-3.931c-0.235-0.486-0.448-0.949-0.64-1.391
		c-0.178-0.457-0.324-1.031-0.441-1.723c-0.222-1.295-0.332-3.783-0.332-7.464c0-3.739,0.11-6.241,0.332-7.507
		c0.234-1.266,0.596-2.289,1.081-3.069c0.78-1.487,2.032-2.812,3.754-3.975c1.692-1.178,3.806-1.782,6.337-1.811
		c3.107,0.029,5.639,0.95,7.597,2.76c1.958,1.826,3.194,4.085,3.71,6.779h-5.168c-0.396-1.296-1.118-2.4-2.164-3.313
		c-1.088-0.869-2.414-1.317-3.975-1.347c-1.147,0.029-2.134,0.257-2.958,0.684c-0.839,0.442-1.517,0.994-2.032,1.656
		c-0.633,0.692-1.053,1.583-1.258,2.672c-0.236,1.148-0.354,3.305-0.354,6.47s0.117,5.308,0.354,6.426
		c0.205,1.119,0.625,2.024,1.258,2.716c0.516,0.663,1.193,1.2,2.032,1.612c0.824,0.485,1.811,0.729,2.958,0.729
		c2.738,0,4.785-1.464,6.139-4.394H124.119z"/>
	<path fill="#F9EA5E" d="M127.563,80.904h4.88v16.583h0.088l13.25-16.583h5.785l-10.313,12.697l11.395,19.498h-5.785l-8.767-15.744
		l-5.653,5.94v9.804h-4.88V80.904z"/>
</g>
<g opacity="0.35">
	<path fill="#FFFFFF" d="M45.401,51.561c27.665-31.656,77.06-37.965,107.65-5.22c10.737,11.493,18.41,23.569,21.237,37.944
		c-0.891-18.523-9.277-36.098-22.929-50.71C120.77,0.83,71.24,15.941,41.425,34.948c-24.523,15.633-25.986,57.066-20.759,83.644
		C19.56,95.607,29.072,70.246,45.401,51.561z"/>
</g>
</svg>
