<?xml version="1.0" encoding="utf-8"?>
<!-- Generator: Adobe Illustrator 16.0.0, SVG Export Plug-In . SVG Version: 6.00 Build 0)  -->
<!DOCTYPE svg PUBLIC "-//W3C//DTD SVG 1.1//EN" "http://www.w3.org/Graphics/SVG/1.1/DTD/svg11.dtd">
<svg version="1.1" id="Layer_1" xmlns="http://www.w3.org/2000/svg" xmlns:xlink="http://www.w3.org/1999/xlink" x="0px" y="0px"
	 width="311.81px" height="212.6px" viewBox="0 0 311.81 212.6" enable-background="new 0 0 311.81 212.6" xml:space="preserve">
<g>
	<g>
		<path fill="#F0DEC7" d="M270.752,61.225H144.461l-30.781,54.144l15.008,78.803c1.293,6.789,5.77,11.525,10.892,11.525H280.24
			c5.146,0,9.638-4.781,10.908-11.613l14.634-78.715L270.752,61.225z"/>
	</g>
	<path d="M280.239,208.406H139.58c-6.441,0-12.015-5.641-13.558-13.723l-15.196-79.787l32.053-56.385h129.354l36.416,56.299
		l-14.836,79.768C292.308,202.723,286.725,208.406,280.239,208.406z M116.531,115.85l14.825,77.816
		c1.045,5.482,4.428,9.311,8.224,9.311h140.659c3.765,0,7.228-3.945,8.24-9.395l14.433-77.646l-33.638-51.995H146.039
		L116.531,115.85z"/>
	<g>
		<path fill="#F0DEC7" d="M164.219,13.519c-4.953-4.277-11.494-6.897-19.029-6.567l-40.854,1.785
			c-8.578,0.376-22.714,0.42-27.606,7.475l-62.888,90.687c-5.064,7.301-0.057,20.922,2.953,29.282l13.539,37.605
			c2.438,6.768,7.115,11.523,12.619,14.539c0.469,0.463,0.797,1.025,1.356,1.412l19.256,13.354c4.854,3.367,11.52,2.16,14.886-2.695
			L187.834,42.663c3.367-4.855,2.16-11.52-2.694-14.886L165.174,13.93C164.877,13.725,164.528,13.691,164.219,13.519z"/>
	</g>
	<path d="M69.639,207.707c-2.636,0-5.292-0.775-7.62-2.387l-19.258-13.361c-0.647-0.445-1.087-0.965-1.41-1.357
		c-6.305-3.51-11.103-9.045-13.574-15.896L14.24,137.102c-3.42-9.49-8.432-23.395-2.631-31.75l62.886-90.691
		c5.323-7.666,18.335-8.186,27.837-8.558l42.742-1.866c7.693-0.402,14.787,2.068,20.599,6.946l1.023,0.498l19.989,13.871
		c2.943,2.036,4.916,5.101,5.552,8.621c0.642,3.531-0.127,7.084-2.169,10.032L80.683,201.949
		C78.079,205.691,73.891,207.707,69.639,207.707z M146.463,9.634c-0.382,0-0.77,0.011-1.156,0.032l-42.758,1.855
		c-7.889,0.318-19.814,0.796-23.59,6.236l-62.885,90.689c-4.205,6.057,0.408,18.867,3.166,26.512l13.648,37.9
		c2.014,5.59,5.943,10.117,11.367,13.076l0.604,0.455c0.239,0.234,0.45,0.488,0.657,0.732l19.598,13.744
		c3.605,2.48,8.59,1.59,11.108-2.016L185.604,41.109c1.214-1.75,1.675-3.87,1.294-5.97c-0.382-2.09-1.555-3.914-3.304-5.133
		l-19.968-13.85c-0.027,0.074-0.398-0.074-0.779-0.297l-0.398-0.287C157.938,11.681,152.428,9.634,146.463,9.634z"/>
	<g id="bow">
		<g>
			<g>
				<polygon fill="#00A06F" points="191.153,116.576 193.195,204.518 225.449,204.518 231.166,116.576 				"/>
			</g>
			<g>
				<path fill="#00A06F" d="M49.35,50.679c0,0-0.271-16.53,3.592-28.526c0,0,2.717-8.074,9.582-7.77c0,0,20.889,4.266,29.969,10.824
					c0,0,4.844,6.242-5.011,15.918c0,0-16.886,0.79-27.614,12.481C59.867,53.607,52.975,48.475,49.35,50.679z"/>
			</g>
			<g>
				<path fill="#00A06F" d="M66.617,65.41c0,0,22.48-7.902,38.463,8.283c0,0-3.921-11.117-1.896-18.229
					c0,0,2.207-6.776,10.888-10.311c0,0-28.728-14.581-53.941,9.501"/>
			</g>
			<g>
				<path fill="#00A06F" d="M57.51,78.543c0,0,0.479,23.823,21.24,33.119c0,0-11.785,0.225-17.736,4.613
					c0,0-5.574,4.441-5.84,13.811c0,0-23.727-21.793-10.011-53.849"/>
			</g>
			<g>
				<path fill="#00A06F" d="M37.945,67.893c0,0-16.952,5.252-26.963,12.985c0,0-6.693,5.317-3.796,11.781
					c0,0,12.013,18.551,21.733,25.03c0,0,7.812,2.535,13.328-10.15c0,0-4.553-16.523,2.559-30.721
					C44.807,76.818,37.214,72.102,37.945,67.893z"/>
			</g>
			<g>
				<polygon fill="#00A06F" points="119.957,138.926 84.989,115.969 59.246,83.544 57.682,78.296 66.617,65.41 72.388,65.594 
					111.193,77.932 144.328,103.78 				"/>
			</g>
			<g>
				<path fill="#00A06F" d="M62.959,70.686l-1.783,2.57c-3.846,5.547-11.531,6.938-17.078,3.092l0,0
					c-8.504-5.896-6.939-11.532-3.092-17.079l1.782-2.571c3.847-5.547,8.063-9.515,17.079-3.091l0,0
					C65.414,57.454,66.806,65.139,62.959,70.686z"/>
			</g>
		</g>
	</g>
	<g>
		<path fill="#D55431" d="M55.314,50.307c0,0,0.024-5.779,2.855-10.826"/>
		<path d="M56.535,50.307c0.083-3.58,1.105-7.016,2.689-10.21c0.696-1.404-1.41-2.644-2.109-1.233
			c-1.776,3.58-2.93,7.423-3.023,11.443C54.056,51.879,56.499,51.879,56.535,50.307L56.535,50.307z"/>
	</g>
	<g>
		<path fill="#D55431" d="M58.049,51.424c0,0,0.818-6.975,3.967-11.83"/>
		<path d="M59.27,51.424c0.508-3.933,1.803-7.801,3.801-11.213c0.796-1.36-1.314-2.592-2.109-1.233
			c-2.238,3.823-3.568,8.056-4.135,12.446C56.626,52.979,59.071,52.964,59.27,51.424L59.27,51.424z"/>
	</g>
	<g>
		<path d="M65.318,59.292c3.643-3.517,8.915-8.3,14.263-8.265c1.572,0.011,1.574-2.433,0-2.443c-6.086-0.04-11.833,4.966-15.99,8.98
			C62.457,58.659,64.187,60.385,65.318,59.292L65.318,59.292z"/>
	</g>
	<g>
		<path fill="#D55431" d="M64.975,59.543c0,0,3.703-2.25,8.887-2.649"/>
		<path d="M65.591,60.598c2.53-1.457,5.396-2.131,8.271-2.482c1.541-0.188,1.56-2.634,0-2.443c-3.309,0.404-6.586,1.136-9.504,2.816
			C62.995,59.273,64.225,61.385,65.591,60.598L65.591,60.598z"/>
	</g>
	<g>
		<path fill="#D55431" d="M39.188,73.56c0,0-5.403,2.049-9.138,6.47"/>
		<path d="M38.863,72.381c-3.73,1.488-6.957,3.851-9.677,6.784c-1.067,1.152,0.656,2.884,1.728,1.728
			c2.411-2.602,5.277-4.831,8.6-6.155C40.956,74.163,40.326,71.798,38.863,72.381L38.863,72.381z"/>
	</g>
	<g>
		<path fill="#D55431" d="M40.699,75.842c0,0-4.387,2.998-7.83,7.648"/>
		<path d="M40.082,74.788c-3.093,2.177-5.738,4.88-8.076,7.84c-0.965,1.22,0.752,2.961,1.727,1.728
			c2.206-2.791,4.66-5.401,7.583-7.458C42.592,75.999,41.372,73.879,40.082,74.788L40.082,74.788z"/>
	</g>
	<g>
		<path d="M47.568,78.658c-2.285,5.259-5.062,12.459-2.896,18.13c0.555,1.455,2.918,0.823,2.355-0.649
			c-1.91-5.005,0.612-11.556,2.65-16.247C50.299,78.463,48.193,77.217,47.568,78.658L47.568,78.658z"/>
	</g>
	<g>
		<path fill="#D55431" d="M51.226,79.37c0,0-0.81,4.258,0.634,9.252"/>
		<path d="M50.048,79.044c-0.554,3.336-0.152,6.642,0.634,9.901c0.367,1.528,2.725,0.881,2.355-0.649
			c-0.67-2.781-1.107-5.744-0.633-8.603C52.658,78.156,50.305,77.495,50.048,79.044L50.048,79.044z"/>
	</g>
	<g>
		<line fill="#D55431" x1="42.397" y1="177.139" x2="153.668" y2="16.682"/>
		<path d="M43.336,177.686c37.09-53.484,74.18-106.97,111.27-160.455c0.799-1.151-1.083-2.238-1.875-1.097
			C115.641,69.62,78.551,123.105,41.46,176.59C40.662,177.74,42.543,178.828,43.336,177.686L43.336,177.686z"/>
	</g>
	<g>
		<line fill="#FFFFFF" x1="305.782" y1="115.369" x2="137.415" y2="115.369"/>
		<rect x="137.417" y="112.658" width="168.363" height="5.43"/>
	</g>
	<path d="M51.043,79.89c-2.752,0-5.424-0.838-7.721-2.429c-9.926-6.883-7.046-13.754-3.43-18.972l1.781-2.566
		c2.2-3.171,4.756-6.203,8.505-6.851c3.106-0.52,6.49,0.604,10.478,3.437c2.964,2.046,4.963,5.164,5.615,8.759
		c0.652,3.596-0.133,7.211-2.201,10.191l-1.781,2.566c-2.063,2.979-5.175,4.983-8.77,5.642C52.691,79.816,51.865,79.89,51.043,79.89
		z M51.685,51.661c-0.355,0-0.705,0.021-1.039,0.085c-2.769,0.477-4.878,3.032-6.745,5.727l-1.781,2.566
		c-3.732,5.387-4.692,10.031,2.752,15.196c2.381,1.654,5.286,2.279,8.166,1.76c2.879-0.53,5.371-2.131,7.02-4.518l1.787-2.566
		c1.654-2.386,2.275-5.28,1.755-8.165c-0.52-2.874-2.12-5.366-4.507-7.021C56.202,52.668,53.769,51.661,51.685,51.661z"/>
	<path d="M30.635,119.264c-1.225,0-2.025-0.242-2.132-0.275l-0.334-0.158C18.322,112.266,6.547,94.164,6.048,93.4
		c-2.735-6.055,1.489-11.517,4.093-13.584c10.102-7.806,26.703-13.001,27.402-13.214l2.121-0.657l-0.381,2.185
		c-0.414,2.396,3.605,5.896,6.24,7.529l1.05,0.657l-0.552,1.104c-6.787,13.552-2.508,29.596-2.465,29.756l0.127,0.467l-0.191,0.434
		C39.271,117.791,33.656,119.264,30.635,119.264z M29.489,116.443c1.044,0.234,6.798,1.008,11.325-9.023
		c-0.694-2.832-3.717-17.095,2.26-30.128c-1.872-1.314-5.568-4.263-6.374-7.55c-4.47,1.517-16.988,6.108-24.889,12.205
		C11.594,82.127,6,86.698,8.429,92.106C8.444,92.106,20.146,110.08,29.489,116.443z"/>
	<path d="M120.317,140.781l-1.108-0.721l-35.281-23.246l-25.98-32.874l-1.75-5.875l9.724-14.03l6.883,0.266l39.221,12.556
		l34.147,26.649L120.317,140.781z M85.916,114.949l33.68,22.121l22.885-33.012l-31.93-24.91L72.156,66.942l-4.846-0.148
		l-8.145,11.739l1.305,4.38L85.916,114.949z"/>
	<path d="M56.446,133.094l-2.19-2.016c-0.244-0.223-24.273-22.82-10.339-55.367l2.491,1.061
		c-10.789,25.218,2.413,44.052,7.689,50.181c1.219-7.783,5.848-11.57,6.065-11.74c3.828-2.82,9.714-4.029,13.833-4.537
		c-17.2-10.648-17.836-31.878-17.842-32.101l2.715-0.063c0.006,0.233,0.732,23.097,20.44,31.909l5.536,2.482l-6.066,0.115
		c-0.117,0-11.432,0.266-16.962,4.35c-0.165,0.137-5.042,4.188-5.286,12.756L56.446,133.094z"/>
	<path d="M108.365,78.967l-4.252-4.316c-15.18-15.355-36.83-8.038-37.047-7.953l-0.901-2.566c0.223-0.074,20.323-6.925,36.326,5.462
		c-0.966-4.041-1.903-9.958-0.61-14.497c0.102-0.308,2.021-6.002,8.924-9.873c-7.545-2.884-29.629-8.802-49.735,10.414l-1.877-1.973
		c25.616-24.443,55.191-9.873,55.493-9.725l2.652,1.348l-2.752,1.124c-7.943,3.234-10.027,9.226-10.111,9.48
		c-1.867,6.554,1.845,17.243,1.882,17.359L108.365,78.967z"/>
	<path d="M60.041,55.436l-0.986-0.732c-1.606-1.188-6.691-4.22-8.998-2.873l-2.025,1.229l-0.037-2.364
		c-0.011-0.679-0.233-16.883,3.653-28.961c0.127-0.382,3.022-8.717,10.478-8.717c0.153,0,0.302,0,0.455,0.01
		c1.077,0.202,21.496,4.422,30.706,11.071l0.276,0.276c0.228,0.286,5.467,7.316-5.133,17.72l-0.366,0.371l-0.52,0.021
		C87.379,42.499,71.08,43.4,60.868,54.535L60.041,55.436z M51.51,48.776c3.075,0,6.484,1.951,8.176,3.055
		c10.006-10.159,24.227-11.793,27.195-12.025c7.668-7.742,5.191-12.726,4.624-13.638c-8.845-6.235-29.052-10.414-29.253-10.456
		c-0.09,0-0.18,0-0.266,0c-5.35,0-7.735,6.797-7.762,6.871c-3.002,9.322-3.452,21.645-3.51,26.236
		C50.975,48.787,51.239,48.776,51.51,48.776z"/>
	<path d="M151.682,112.176c0-16.02,0-2.041,0-18.062c0-1.396-2.172-1.399-2.172,0c0,16.021,0,2.042,0,18.062
		C149.51,113.574,151.682,113.576,151.682,112.176L151.682,112.176z"/>
	<path d="M269.953,112.176c0.628-16.983,1.256-33.966,1.885-50.951c0.052-1.397-2.12-1.396-2.172,0
		c-0.629,16.984-1.257,33.968-1.885,50.951C267.729,113.574,269.901,113.572,269.953,112.176L269.953,112.176z"/>
	<path d="M226.724,205.873h-34.853l-2.104-90.648h42.848L226.724,205.873z M194.523,203.158h29.655l5.54-85.219h-37.174
		L194.523,203.158z"/>
	<g>
		<line fill="#D55431" x1="268.867" y1="112.176" x2="270.752" y2="61.225"/>
	</g>
	<g>
		<line fill="#D55431" x1="150.596" y1="112.176" x2="150.596" y2="96.911"/>
	</g>
</g>
</svg>
