<?xml version="1.0" encoding="utf-8"?>
<!-- Generator: Adobe Illustrator 16.0.0, SVG Export Plug-In . SVG Version: 6.00 Build 0)  -->
<!DOCTYPE svg PUBLIC "-//W3C//DTD SVG 1.1//EN" "http://www.w3.org/Graphics/SVG/1.1/DTD/svg11.dtd">
<svg version="1.1" id="Layer_1" xmlns="http://www.w3.org/2000/svg" xmlns:xlink="http://www.w3.org/1999/xlink" x="0px" y="0px"
	 width="232.44px" height="212.6px" viewBox="0 0 232.44 212.6" enable-background="new 0 0 232.44 212.6" xml:space="preserve">
<g>
	<g>
		<path fill="#F0DEC7" d="M227.26,95.399c0.717-6.727-0.912-13.826-5.629-20.031l-25.58-33.647
			c-5.371-7.064-13.734-19.044-22.607-19.044H59.379c-9.185,0-17.803,12.274-23.132,19.756L12.283,76.081
			c-4.314,6.057-5.598,12.83-4.917,19.281c-0.117,0.67-0.4,1.279-0.4,1.984v24.219c0,6.107,4.951,11.057,11.057,11.057h198.394
			c6.107,0,11.057-4.949,11.057-11.057V96.452C227.473,96.079,227.297,95.763,227.26,95.399z"/>
		<path d="M216.418,135.335H18.022c-7.593,0-13.77-6.172-13.77-13.766V97.349c0-0.816,0.186-1.484,0.318-1.982
			c-0.716-7.445,1.151-14.762,5.504-20.869l23.961-33.638c6.061-8.516,14.889-20.901,25.345-20.901h114.062
			c9.609,0,17.699,10.742,23.611,18.579l26.74,35.185c4.793,6.299,6.936,13.744,6.209,21.527l0.186,1.199v25.121
			C230.188,129.163,224.01,135.335,216.418,135.335z M59.379,25.386c-7.656,0-15.822,11.464-20.7,18.304L14.496,77.646
			c-3.573,5.016-5.106,11.039-4.433,17.434l0.042,0.383l-0.069,0.371c-0.058,0.328-0.143,0.658-0.228,0.975l-0.127,24.762
			c0,4.592,3.744,8.336,8.341,8.336h198.396c4.596,0,8.34-3.744,8.34-8.336V96.448c-0.09-0.148-0.164-0.457-0.197-0.775
			l-0.031-0.275l0.031-0.285c0.695-6.543-1.064-12.811-5.09-18.104l-26.754-35.207c-4.926-6.532-12.371-16.416-19.275-16.416H59.379
			z"/>
	</g>
	<path fill="#FFFFFF" d="M36.811,204.308"/>
	<g>
		<path fill="#F0DEC7" d="M34.606,197.368L19.53,132.622h192.968l-14.699,64.674c-1.277,5.613-5.787,9.541-10.957,9.541H45.546
			C40.401,206.837,35.905,202.944,34.606,197.368z"/>
		<path d="M186.842,209.556H45.546c-6.41,0-11.994-4.762-13.584-11.568l-15.848-68.082h199.785l-15.457,67.996
			C198.889,204.763,193.293,209.556,186.842,209.556z M37.253,196.757c1.007,4.338,4.422,7.369,8.292,7.369h141.296
			c3.896,0,7.316-3.053,8.309-7.434l13.949-61.357H22.953L37.253,196.757z"/>
	</g>
</g>
<path fill="#00A06F" d="M119.064,43.066h-3.233c-6.977,0-12.685-5.709-12.685-12.686l0,0c0-10.695,5.708-12.686,12.685-12.686h3.233
	c6.978,0,12.832,1.244,12.686,12.686l0,0C131.75,37.357,126.042,43.066,119.064,43.066z"/>
<g>
	<g>
		<polygon fill="#00A06F" points="97.354,133.614 99.404,205.866 131.805,205.866 137.546,133.614 		"/>
	</g>
	<polygon fill="#00A06F" points="94.678,131.669 93.58,88.448 105.957,47.486 109.493,43.066 125.701,43.066 128.943,48.076 
		141.32,88.302 138.883,131.669 	"/>
	<path fill="#00A06F" d="M106.705,20.176c0,0-14.445-11.306-26.91-15.253c0,0-8.458-2.554-12.242,3.715
		c0,0-8.681,21.129-8.458,33.202c0,0,2.449,8.127,16.471,5.341c0,0,11.352-13.599,27.601-15.921
		C103.166,31.26,102.698,22.034,106.705,20.176z"/>
	<path fill="#00A06F" d="M109.182,43.066c0,0-19.952,14.438-15.619,37.546c0,0-7.133-9.879-14.365-12.348
		c0,0-7.056-2.117-15.17,3.176c0,0,4.535-32.989,39.84-40.22"/>
	<path fill="#00A06F" d="M125.701,43.066c0,0,19.952,14.438,15.619,37.546c0,0,7.133-9.879,14.365-12.348
		c0,0,7.055-2.117,15.17,3.176c0,0-4.535-32.989-39.841-40.22"/>
	<path fill="#00A06F" d="M128.043,19.723c0,0,13.879-9.967,26.344-13.751c0,0,8.458-2.448,12.242,3.562
		c0,0,8.68,20.255,8.457,31.829c0,0-2.447,7.791-16.471,5.12c0,0-10.616-13.877-26.865-16.103
		C131.75,30.38,132.049,21.503,128.043,19.723z"/>
</g>
<g id="bow_outline_2_">
	<g>
		<path d="M164.105,48.399c-1.687,0-3.59-0.181-5.742-0.583l-0.51-0.096l-0.313-0.414c-0.105-0.138-10.493-13.457-25.977-15.578
			l-1.209-0.169l0.037-1.22c0.069-2.068-0.322-8.229-2.9-9.375L125.33,20l1.924-1.379c0.572-0.413,14.199-10.138,26.74-13.944
			c0.408-0.117,9.512-2.651,13.785,4.136c0.456,1.028,8.893,20.849,8.664,32.577l-0.064,0.382
			C176.285,42.089,174.158,48.399,164.105,48.399z M159.365,45.239c11.123,1.897,13.928-3.118,14.369-4.125
			c0.09-11.198-8.267-30.849-8.352-31.051c-3.112-4.899-10.541-2.82-10.62-2.789c-9.725,2.948-20.504,9.873-24.407,12.503
			c2.291,2.535,2.699,7.18,2.752,9.438C147.662,31.717,157.439,42.884,159.365,45.239z"/>
	</g>
	<g>
		<path d="M138.871,86.331l1.113-5.971c4.121-21.961-14.889-36.055-15.079-36.193l1.591-2.206
			c0.191,0.138,17.895,13.235,16.734,34.157c2.847-3.201,7.359-7.549,12.015-9.141c0.317-0.117,6.32-1.846,13.69,1.814
			c-1.962-8.039-9.899-30.447-38.192-36.248l0.541-2.65c35.838,7.338,40.87,41.029,40.917,41.369l0.402,2.938l-2.49-1.623
			c-7.439-4.857-13.781-3.096-14.047-3.012c-6.676,2.279-13.573,11.75-13.643,11.846L138.871,86.331z"/>
	</g>
	<g>
		<path d="M96.013,86.331l-3.553-4.92c-0.069-0.096-6.967-9.566-13.701-11.867c-0.218-0.063-6.548-1.834-13.988,3.033L62.28,74.2
			l0.403-2.938c0.048-0.34,5.08-34.031,40.917-41.369l0.541,2.65c-28.293,5.801-36.23,28.209-38.192,36.248
			c7.37-3.617,13.362-1.91,13.637-1.836c4.693,1.602,9.216,5.961,12.068,9.162c-1.167-20.921,16.543-34.019,16.734-34.157
			l1.591,2.206c-0.191,0.138-19.2,14.231-15.08,36.193L96.013,86.331z"/>
	</g>
	<g>
		<path d="M70.064,49.13c-10.059,0-12.174-6.564-12.27-6.893l-0.059-0.371C57.513,29.65,65.938,9.002,66.294,8.123
			C69.82,2.248,76.909,2.64,80.186,3.616c12.571,3.998,26.755,15.026,27.354,15.493l1.744,1.368l-2.009,0.933
			c-2.593,1.199-2.863,7.625-2.752,9.788l0.058,1.23l-1.225,0.181C87.8,34.825,76.718,47.921,76.612,48.048l-0.308,0.371
			l-0.472,0.096C73.669,48.94,71.755,49.13,70.064,49.13z M60.445,41.601c0.403,0.997,3.155,6.384,14.401,4.338
			c1.967-2.228,12.317-13.246,26.941-15.833c0.01-2.354,0.334-7.296,2.683-9.905c-3.892-2.873-15.212-10.858-25.085-13.987
			c-0.287-0.095-7.492-2.152-10.673,3.129C68.722,9.363,60.339,29.905,60.445,41.601z"/>
	</g>
	<g>
		<path d="M140.165,133.022H93.352l-1.135-44.75l12.678-41.634l3.945-4.931h17.598l3.802,5.97l12.45,40.457l-0.011,0.244
			L140.165,133.022z M96.002,130.308H137.6l2.354-41.834l-12.254-39.81l-2.735-4.241h-14.82l-2.964,3.711L94.942,88.632
			L96.002,130.308z"/>
	</g>
	<g>
		<path d="M119.067,44.422h-3.234c-7.747,0-14.045-6.3-14.045-14.041c0-12.449,7.508-14.04,14.045-14.04h3.234
			c3.981,0,8.044,0.382,10.796,3.171c2.248,2.269,3.309,5.832,3.244,10.891C133.107,38.123,126.809,44.422,119.067,44.422z
			 M115.833,19.056c-6.803,0-11.331,1.93-11.331,11.325c0,6.246,5.085,11.326,11.331,11.326h3.234
			c6.246,0,11.325-5.08,11.325-11.326c0.054-4.306-0.752-7.232-2.459-8.961c-2.053-2.078-5.473-2.364-8.866-2.364H115.833z"/>
	</g>
	<path d="M133.055,207.224H98.086l-2.126-74.965h43.055L133.055,207.224z M100.727,204.509h29.826l5.524-69.535H98.749
		L100.727,204.509z"/>
	<g>
		<path fill="#D55431" d="M131.871,24.569c0,0,4.923-3.382,10.877-3.95"/>
		<path d="M132.488,25.625c3.188-2.112,6.824-3.294,10.584-3.828c1.551-0.221,0.892-2.575-0.648-2.356
			c-3.948,0.562-7.824,1.857-11.17,4.074C129.949,24.378,131.172,26.496,132.488,25.625L132.488,25.625z"/>
	</g>
	<g>
		<path fill="#D55431" d="M132.533,27.55c0,0,6.404-3.413,12.383-3.599"/>
		<path d="M133.149,28.605c3.653-1.894,7.663-3.117,11.767-3.432c1.559-0.12,1.571-2.564,0-2.443c-4.545,0.349-8.95,1.667-13,3.765
			C130.52,27.218,131.754,29.328,133.149,28.605L133.149,28.605z"/>
	</g>
	<g>
		<path d="M131.577,37.126c5.115,1.017,12.411,2.648,15.503,7.207c0.877,1.295,2.995,0.073,2.109-1.232
			c-3.523-5.197-11.123-7.17-16.963-8.331C130.691,34.465,130.033,36.82,131.577,37.126L131.577,37.126z"/>
	</g>
	<g>
		<path fill="#D55431" d="M129.715,38.214c0,0,4.094,1.82,7.485,5.987"/>
		<path d="M129.099,39.269c2.848,1.338,5.175,3.459,7.237,5.797c1.043,1.182,2.766-0.553,1.729-1.728
			c-2.184-2.475-4.713-4.76-7.732-6.179C128.917,36.495,127.676,38.6,129.099,39.269L129.099,39.269z"/>
	</g>
	<g>
		<path fill="#D55431" d="M102.624,24.569c0,0-4.923-3.382-10.877-3.95"/>
		<path d="M103.24,23.514c-3.347-2.218-7.22-3.513-11.169-4.074c-1.538-0.218-2.203,2.136-0.649,2.356
			c3.759,0.534,7.399,1.717,10.585,3.828C103.321,26.495,104.546,24.379,103.24,23.514L103.24,23.514z"/>
	</g>
	<g>
		<path fill="#D55431" d="M101.575,27.197c0,0-5.129-1.96-11.108-2.146"/>
		<path d="M101.899,26.018c-3.672-1.345-7.546-1.945-11.433-2.188c-1.57-0.099-1.564,2.346,0,2.443
			c3.672,0.229,7.318,0.832,10.783,2.102C102.729,28.916,103.366,26.556,101.899,26.018L101.899,26.018z"/>
	</g>
	<g>
		<path d="M102.773,34.77c-5.832,1.159-13.442,3.138-16.963,8.33c-0.885,1.306,1.231,2.529,2.109,1.233
			c3.104-4.578,10.359-6.185,15.503-7.207C104.964,36.82,104.312,34.464,102.773,34.77L102.773,34.77z"/>
	</g>
	<g>
		<path fill="#D55431" d="M104.779,38.214c0,0-4.093,1.82-7.485,5.987"/>
		<path d="M104.163,37.16c-3.02,1.419-5.548,3.704-7.732,6.179c-1.038,1.175,0.684,2.909,1.728,1.728
			c2.063-2.338,4.39-4.459,7.238-5.797C106.818,38.601,105.579,36.494,104.163,37.16L104.163,37.16z"/>
	</g>
	<g>
		<line fill="#D55431" x1="16.54" y1="88.302" x2="218.359" y2="88.302"/>
		<path d="M16.54,89.388c67.273,0,134.546,0,201.819,0c1.396,0,1.4-2.172,0-2.172c-67.273,0-134.546,0-201.819,0
			C15.143,87.216,15.141,89.388,16.54,89.388L16.54,89.388z"/>
	</g>
</g>
</svg>
