<?xml version="1.0" encoding="utf-8"?>
<!-- Generator: Adobe Illustrator 16.0.0, SVG Export Plug-In . SVG Version: 6.00 Build 0)  -->
<!DOCTYPE svg PUBLIC "-//W3C//DTD SVG 1.1//EN" "http://www.w3.org/Graphics/SVG/1.1/DTD/svg11.dtd">
<svg version="1.1" id="Layer_1" xmlns="http://www.w3.org/2000/svg" xmlns:xlink="http://www.w3.org/1999/xlink" x="0px" y="0px"
	 width="232.44px" height="212.6px" viewBox="0 0 232.44 212.6" enable-background="new 0 0 232.44 212.6" xml:space="preserve">
<g>
	<g>
		<g>
			<path fill="#F0DEC7" d="M226.262,96.355c0.715-6.727-0.913-13.826-5.631-20.031l-25.579-33.646
				c-5.371-7.064-13.734-19.045-22.608-19.045H58.379c-9.185,0-17.803,12.275-23.131,19.756L11.284,77.037
				c-4.314,6.057-5.598,12.83-4.917,19.281c-0.117,0.67-0.4,1.279-0.4,1.984v24.219c0,6.107,4.951,11.057,11.057,11.057h198.395
				c6.105,0,11.056-4.949,11.056-11.057V97.408C226.474,97.035,226.297,96.721,226.262,96.355z"/>
			<path d="M215.418,136.291H17.022c-7.593,0-13.77-6.172-13.77-13.764V98.305c0-0.816,0.186-1.484,0.318-1.982
				c-0.716-7.443,1.151-14.762,5.504-20.869l23.961-33.639c6.061-8.516,14.889-20.9,25.345-20.9h114.063
				c9.607,0,17.699,10.742,23.61,18.578l26.739,35.186c4.793,6.301,6.936,13.744,6.209,21.527l0.186,1.199v25.123
				C229.188,130.119,223.011,136.291,215.418,136.291z M58.38,26.344c-7.657,0-15.822,11.463-20.7,18.303L13.497,78.602
				C9.922,83.619,8.39,89.643,9.063,96.037l0.042,0.381l-0.069,0.371c-0.059,0.328-0.143,0.658-0.228,0.977l-0.127,24.762
				c0,4.592,3.744,8.334,8.341,8.334h198.396c4.598,0,8.34-3.742,8.34-8.334V97.404c-0.09-0.148-0.164-0.455-0.195-0.773
				l-0.032-0.277l0.032-0.285c0.694-6.543-1.066-12.811-5.09-18.102L191.717,42.76c-4.926-6.533-12.371-16.416-19.273-16.416H58.38z
				"/>
		</g>
		<path fill="#FFFFFF" d="M35.812,205.264"/>
		<g>
			<path fill="#F0DEC7" d="M33.607,198.324l-15.076-64.746H211.5l-14.701,64.674c-1.275,5.613-5.787,9.541-10.957,9.541H44.547
				C39.402,207.793,34.906,203.902,33.607,198.324z"/>
			<path d="M185.842,210.512H44.546c-6.41,0-11.994-4.76-13.584-11.568l-15.848-68.082h199.785l-15.457,67.996
				C197.889,205.719,192.295,210.512,185.842,210.512z M36.254,197.713c1.007,4.338,4.422,7.369,8.292,7.369h141.295
				c3.896,0,7.316-3.053,8.309-7.434l13.95-61.357H21.954L36.254,197.713z"/>
		</g>
	</g>
	<g>
		<path fill="#EC8BB9" d="M118.065,44.021h-3.233c-6.977,0-12.685-5.707-12.685-12.686l0,0c0-10.695,5.708-12.686,12.685-12.686
			h3.233c6.978,0,12.831,1.244,12.686,12.686l0,0C130.751,38.314,125.043,44.021,118.065,44.021z"/>
		<g>
			<g>
				<polygon fill="#EC8BB9" points="96.354,134.57 98.404,206.824 130.805,206.824 136.547,134.57 				"/>
			</g>
			<polygon fill="#EC8BB9" points="93.678,132.625 92.58,89.404 104.957,48.441 108.494,44.021 124.701,44.021 127.943,49.031 
				140.32,89.258 137.883,132.625 			"/>
			<path fill="#EC8BB9" d="M105.705,21.133c0,0-14.445-11.307-26.91-15.254c0,0-8.458-2.553-12.242,3.715
				c0,0-8.681,21.129-8.458,33.203c0,0,2.449,8.127,16.471,5.34c0,0,11.352-13.598,27.601-15.92
				C102.166,32.217,101.699,22.99,105.705,21.133z"/>
			<path fill="#EC8BB9" d="M108.183,44.021c0,0-19.952,14.439-15.619,37.547c0,0-7.133-9.879-14.365-12.348
				c0,0-7.056-2.117-15.17,3.176c0,0,4.535-32.988,39.84-40.221"/>
			<path fill="#EC8BB9" d="M124.701,44.021c0,0,19.953,14.439,15.619,37.547c0,0,7.133-9.879,14.365-12.348
				c0,0,7.056-2.117,15.17,3.176c0,0-4.535-32.988-39.84-40.221"/>
			<path fill="#EC8BB9" d="M127.043,20.68c0,0,13.879-9.967,26.344-13.752c0,0,8.459-2.447,12.242,3.563
				c0,0,8.682,20.254,8.459,31.83c0,0-2.449,7.789-16.473,5.119c0,0-10.615-13.877-26.864-16.104
				C130.751,31.336,131.049,22.459,127.043,20.68z"/>
		</g>
	</g>
	<g id="bow_outline_5_">
		<g>
			<path d="M163.105,49.355c-1.686,0-3.59-0.182-5.742-0.584l-0.51-0.096l-0.313-0.412c-0.105-0.139-10.492-13.459-25.976-15.578
				l-1.209-0.17l0.037-1.221c0.069-2.068-0.323-8.229-2.9-9.373l-2.163-0.967l1.924-1.377c0.573-0.414,14.2-10.139,26.74-13.945
				c0.408-0.117,9.512-2.652,13.785,4.135c0.457,1.029,8.893,20.85,8.664,32.578l-0.063,0.381
				C175.285,43.045,173.158,49.355,163.105,49.355z M158.365,46.195c11.124,1.898,13.93-3.119,14.369-4.125
				c0.09-11.199-8.266-30.85-8.352-31.051c-3.111-4.9-10.541-2.82-10.62-2.789c-9.724,2.947-20.504,9.873-24.406,12.502
				c2.29,2.535,2.698,7.18,2.752,9.439C146.663,32.674,156.44,43.84,158.365,46.195z"/>
		</g>
		<g>
			<path d="M137.872,87.287l1.113-5.971c4.12-21.961-14.889-36.055-15.079-36.193l1.59-2.205
				c0.191,0.139,17.896,13.234,16.734,34.158c2.848-3.203,7.359-7.551,12.016-9.143c0.317-0.115,6.32-1.844,13.689,1.814
				c-1.961-8.039-9.898-30.445-38.191-36.246l0.541-2.652c35.838,7.338,40.869,41.029,40.917,41.369l0.403,2.938l-2.492-1.623
				c-7.439-4.857-13.781-3.096-14.046-3.012c-6.676,2.279-13.573,11.75-13.644,11.846L137.872,87.287z"/>
		</g>
		<g>
			<path d="M95.014,87.287l-3.553-4.92c-0.069-0.096-6.967-9.566-13.701-11.867c-0.218-0.063-6.549-1.834-13.988,3.033l-2.492,1.623
				l0.403-2.938c0.048-0.34,5.08-34.031,40.917-41.369l0.541,2.652c-28.293,5.801-36.23,28.207-38.192,36.246
				c7.37-3.617,13.362-1.91,13.637-1.836c4.693,1.602,9.216,5.961,12.068,9.164c-1.167-20.924,16.543-34.02,16.734-34.158
				l1.591,2.205c-0.191,0.139-19.2,14.232-15.08,36.193L95.014,87.287z"/>
		</g>
		<g>
			<path d="M69.064,50.086c-10.059,0-12.174-6.564-12.27-6.893l-0.059-0.371c-0.223-12.217,8.203-32.863,8.558-33.744
				C68.82,3.203,75.91,3.596,79.187,4.572c12.571,3.998,26.755,15.025,27.354,15.492l1.745,1.369l-2.01,0.934
				c-2.593,1.197-2.863,7.623-2.751,9.787l0.058,1.23l-1.225,0.18C86.8,35.781,75.719,48.877,75.612,49.006l-0.307,0.371
				l-0.472,0.094C72.67,49.896,70.756,50.086,69.064,50.086z M59.446,42.557c0.403,0.998,3.155,6.385,14.401,4.338
				c1.967-2.227,12.317-13.244,26.94-15.832c0.011-2.355,0.334-7.297,2.683-9.904C99.579,18.283,88.258,10.299,78.386,7.17
				c-0.287-0.096-7.492-2.152-10.674,3.129C67.723,10.32,59.34,30.861,59.446,42.557z"/>
		</g>
		<g>
			<path d="M139.166,133.979H92.352l-1.135-44.75l12.678-41.635l3.945-4.93h17.598l3.803,5.971l12.449,40.455l-0.01,0.244
				L139.166,133.979z M95.003,131.264H136.6l2.354-41.834L126.7,49.619l-2.736-4.24h-14.82l-2.964,3.711L93.942,89.588
				L95.003,131.264z"/>
		</g>
		<g>
			<path d="M118.068,45.379h-3.235c-7.747,0-14.046-6.299-14.046-14.041c0-12.449,7.508-14.041,14.046-14.041h3.235
				c3.981,0,8.043,0.383,10.795,3.172c2.248,2.27,3.309,5.832,3.245,10.891C132.108,39.08,125.809,45.379,118.068,45.379z
				 M114.833,20.012c-6.803,0-11.331,1.93-11.331,11.326c0,6.246,5.085,11.326,11.331,11.326h3.235
				c6.246,0,11.325-5.08,11.325-11.326c0.054-4.305-0.753-7.232-2.46-8.961c-2.053-2.078-5.473-2.365-8.865-2.365H114.833z"/>
		</g>
		<path d="M132.055,208.18H97.087l-2.126-74.963h43.055L132.055,208.18z M99.728,205.465h29.825l5.525-69.535H97.75L99.728,205.465z
			"/>
		<g>
			<path fill="#D55431" d="M130.871,25.525c0,0,4.924-3.383,10.877-3.951"/>
			<path d="M131.488,26.58c3.188-2.111,6.825-3.293,10.585-3.828c1.551-0.221,0.892-2.574-0.649-2.355
				c-3.947,0.561-7.823,1.857-11.169,4.074C128.95,25.336,130.172,27.451,131.488,26.58L131.488,26.58z"/>
		</g>
		<g>
			<path fill="#D55431" d="M131.533,28.506c0,0,6.405-3.412,12.384-3.598"/>
			<path d="M132.15,29.561c3.652-1.893,7.663-3.115,11.767-3.432c1.558-0.119,1.571-2.563,0-2.443
				c-4.546,0.35-8.95,1.668-13.001,3.766C129.52,28.176,130.754,30.283,132.15,29.561L132.15,29.561z"/>
		</g>
		<g>
			<path d="M130.578,38.082c5.115,1.018,12.411,2.648,15.502,7.209c0.877,1.293,2.995,0.072,2.109-1.234
				c-3.523-5.197-11.123-7.17-16.963-8.33C129.691,35.422,129.034,37.775,130.578,38.082L130.578,38.082z"/>
		</g>
		<g>
			<path fill="#D55431" d="M128.716,39.17c0,0,4.093,1.82,7.485,5.988"/>
			<path d="M128.1,40.227c2.848,1.338,5.174,3.459,7.237,5.795c1.042,1.182,2.765-0.551,1.728-1.727
				c-2.184-2.475-4.713-4.76-7.732-6.18C127.918,37.451,126.676,39.557,128.1,40.227L128.1,40.227z"/>
		</g>
		<g>
			<path fill="#D55431" d="M101.624,25.525c0,0-4.923-3.383-10.877-3.951"/>
			<path d="M102.241,24.471c-3.347-2.217-7.22-3.514-11.169-4.074c-1.538-0.219-2.203,2.135-0.649,2.355
				c3.759,0.535,7.399,1.717,10.585,3.828C102.322,27.451,103.547,25.336,102.241,24.471L102.241,24.471z"/>
		</g>
		<g>
			<path fill="#D55431" d="M100.575,28.152c0,0-5.129-1.959-11.108-2.145"/>
			<path d="M100.9,26.975c-3.672-1.346-7.546-1.945-11.433-2.189c-1.57-0.098-1.564,2.346,0,2.443
				c3.672,0.23,7.318,0.832,10.783,2.102C101.729,29.873,102.367,27.512,100.9,26.975L100.9,26.975z"/>
		</g>
		<g>
			<path d="M101.774,35.727c-5.832,1.158-13.442,3.137-16.963,8.33c-0.885,1.305,1.231,2.529,2.109,1.232
				c3.104-4.578,10.359-6.184,15.503-7.207C103.964,37.775,103.312,35.42,101.774,35.727L101.774,35.727z"/>
		</g>
		<g>
			<path fill="#D55431" d="M103.779,39.17c0,0-4.093,1.82-7.484,5.988"/>
			<path d="M103.163,38.115c-3.02,1.42-5.548,3.705-7.732,6.18c-1.037,1.174,0.685,2.908,1.728,1.727
				c2.063-2.336,4.39-4.457,7.237-5.795C105.818,39.557,104.579,37.451,103.163,38.115L103.163,38.115z"/>
		</g>
		<g>
			<line fill="#D55431" x1="15.541" y1="89.258" x2="217.359" y2="89.258"/>
			<path d="M15.541,90.344c67.273,0,134.546,0,201.819,0c1.398,0,1.4-2.172,0-2.172c-67.272,0-134.546,0-201.819,0
				C14.143,88.172,14.141,90.344,15.541,90.344L15.541,90.344z"/>
		</g>
	</g>
</g>
</svg>
