<?xml version="1.0" encoding="utf-8"?>
<!-- Generator: Adobe Illustrator 16.0.0, SVG Export Plug-In . SVG Version: 6.00 Build 0)  -->
<!DOCTYPE svg PUBLIC "-//W3C//DTD SVG 1.1//EN" "http://www.w3.org/Graphics/SVG/1.1/DTD/svg11.dtd">
<svg version="1.1" id="Layer_1" xmlns="http://www.w3.org/2000/svg" xmlns:xlink="http://www.w3.org/1999/xlink" x="0px" y="0px"
	 width="232.44px" height="212.6px" viewBox="0 0 232.44 212.6" enable-background="new 0 0 232.44 212.6" xml:space="preserve">
<g>
	<g>
		<g>
			<path fill="#F0DEC7" d="M227.262,95.399c0.715-6.727-0.912-13.826-5.631-20.031l-25.58-33.647
				c-5.371-7.063-13.734-19.044-22.607-19.044H59.38c-9.185,0-17.803,12.274-23.132,19.756L12.284,76.081
				c-4.313,6.057-5.598,12.83-4.917,19.281c-0.117,0.67-0.4,1.279-0.4,1.984v24.219c0,6.107,4.951,11.057,11.057,11.057h198.395
				c6.105,0,11.055-4.949,11.055-11.057V96.452C227.473,96.079,227.297,95.765,227.262,95.399z"/>
			<path d="M216.418,135.335H18.023c-7.593,0-13.77-6.172-13.77-13.764V97.349c0-0.816,0.186-1.484,0.318-1.982
				c-0.716-7.443,1.151-14.762,5.504-20.869l23.961-33.638c6.061-8.516,14.889-20.901,25.345-20.901h114.063
				c9.607,0,17.699,10.742,23.609,18.579l26.74,35.185c4.793,6.301,6.936,13.744,6.209,21.527l0.186,1.199v25.123
				C230.188,129.163,224.01,135.335,216.418,135.335z M59.381,25.387c-7.657,0-15.822,11.463-20.7,18.303L14.497,77.646
				c-3.574,5.018-5.106,11.039-4.433,17.436l0.042,0.381l-0.069,0.371c-0.058,0.328-0.143,0.658-0.228,0.977l-0.127,24.762
				c0,4.592,3.743,8.334,8.34,8.334h198.395c4.598,0,8.34-3.742,8.34-8.334V96.448c-0.09-0.148-0.164-0.457-0.195-0.773
				l-0.033-0.277l0.033-0.285c0.693-6.543-1.066-12.811-5.09-18.102l-26.756-35.208c-4.926-6.533-12.371-16.416-19.273-16.416
				H59.381z"/>
		</g>
		<path fill="#FFFFFF" d="M36.812,204.308"/>
		<g>
			<path fill="#F0DEC7" d="M34.607,197.368l-15.076-64.746H212.5l-14.701,64.674c-1.275,5.613-5.787,9.541-10.957,9.541H45.547
				C40.402,206.837,35.906,202.946,34.607,197.368z"/>
			<path d="M186.842,209.556H45.547c-6.41,0-11.994-4.76-13.584-11.568l-15.848-68.082h199.784l-15.457,67.996
				C198.889,204.763,193.295,209.556,186.842,209.556z M37.254,196.757c1.007,4.338,4.422,7.369,8.292,7.369h141.295
				c3.896,0,7.316-3.053,8.309-7.434l13.949-61.357H22.954L37.254,196.757z"/>
		</g>
	</g>
	<g>
		<path fill="#794B9E" d="M119.066,43.066h-3.234c-6.977,0-12.685-5.709-12.685-12.686l0,0c0-10.695,5.708-12.686,12.685-12.686
			h3.234c6.977,0,12.83,1.244,12.686,12.686l0,0C131.752,37.357,126.043,43.066,119.066,43.066z"/>
		<g>
			<g>
				<polygon fill="#794B9E" points="97.354,133.614 99.405,205.868 131.805,205.868 137.547,133.614 				"/>
			</g>
			<polygon fill="#794B9E" points="94.679,131.669 93.58,88.448 105.958,47.486 109.494,43.066 125.701,43.066 128.943,48.076 
				141.32,88.302 138.883,131.669 			"/>
			<path fill="#794B9E" d="M106.706,20.176c0,0-14.445-11.306-26.91-15.253c0,0-8.458-2.554-12.242,3.715
				c0,0-8.681,21.129-8.458,33.202c0,0,2.449,8.127,16.472,5.341c0,0,11.352-13.599,27.601-15.921
				C103.167,31.26,102.699,22.034,106.706,20.176z"/>
			<path fill="#794B9E" d="M109.183,43.066c0,0-19.952,14.438-15.619,37.546c0,0-7.133-9.879-14.365-12.348
				c0,0-7.056-2.117-15.17,3.176c0,0,4.535-32.988,39.84-40.22"/>
			<path fill="#794B9E" d="M125.701,43.066c0,0,19.953,14.438,15.619,37.546c0,0,7.133-9.879,14.365-12.348
				c0,0,7.057-2.117,15.17,3.176c0,0-4.535-32.988-39.84-40.22"/>
			<path fill="#794B9E" d="M128.043,19.723c0,0,13.879-9.967,26.344-13.751c0,0,8.459-2.448,12.242,3.562
				c0,0,8.68,20.255,8.459,31.83c0,0-2.449,7.79-16.473,5.119c0,0-10.615-13.877-26.863-16.103
				C131.752,30.38,132.049,21.503,128.043,19.723z"/>
		</g>
	</g>
	<g id="bow_outline_3_">
		<g>
			<path d="M164.105,48.399c-1.686,0-3.59-0.181-5.742-0.583l-0.51-0.096l-0.313-0.414c-0.105-0.138-10.492-13.457-25.975-15.578
				l-1.209-0.169l0.037-1.22c0.068-2.068-0.324-8.229-2.9-9.375L125.33,20l1.926-1.378c0.572-0.414,14.199-10.139,26.738-13.945
				c0.408-0.116,9.512-2.651,13.787,4.136c0.455,1.028,8.891,20.849,8.662,32.577l-0.063,0.382
				C176.285,42.089,174.158,48.399,164.105,48.399z M159.365,45.239c11.123,1.898,13.93-3.118,14.369-4.125
				c0.09-11.198-8.266-30.849-8.352-31.051c-3.111-4.898-10.541-2.82-10.619-2.789c-9.725,2.948-20.504,9.873-24.406,12.503
				c2.289,2.535,2.697,7.18,2.752,9.438C147.664,31.718,157.441,42.884,159.365,45.239z"/>
		</g>
		<g>
			<path d="M138.873,86.331l1.113-5.971c4.119-21.961-14.889-36.055-15.08-36.193l1.59-2.206
				c0.191,0.139,17.896,13.235,16.734,34.157c2.848-3.201,7.359-7.549,12.016-9.141c0.318-0.115,6.32-1.844,13.689,1.814
				c-1.961-8.039-9.898-30.447-38.191-36.247l0.541-2.651c35.838,7.338,40.869,41.029,40.916,41.369l0.404,2.938l-2.492-1.623
				c-7.439-4.857-13.781-3.096-14.045-3.012c-6.676,2.279-13.574,11.75-13.645,11.846L138.873,86.331z"/>
		</g>
		<g>
			<path d="M96.014,86.331l-3.553-4.92c-0.069-0.096-6.967-9.566-13.701-11.867c-0.217-0.063-6.548-1.834-13.987,3.033L62.281,74.2
				l0.403-2.938c0.047-0.34,5.08-34.031,40.917-41.369l0.541,2.651c-28.293,5.8-36.23,28.208-38.192,36.247
				c7.37-3.617,13.362-1.91,13.638-1.836c4.692,1.602,9.215,5.961,12.068,9.162C90.489,55.197,108.199,42.1,108.39,41.961
				l1.591,2.206c-0.191,0.138-19.2,14.231-15.08,36.193L96.014,86.331z"/>
		</g>
		<g>
			<path d="M70.065,49.13c-10.059,0-12.174-6.564-12.27-6.893l-0.059-0.371C57.514,29.65,65.939,9.002,66.295,8.123
				C69.821,2.248,76.91,2.64,80.187,3.616c12.572,3.998,26.756,15.026,27.355,15.493l1.744,1.368l-2.009,0.934
				c-2.593,1.198-2.863,7.624-2.752,9.788l0.058,1.229l-1.225,0.181c-15.557,2.216-26.639,15.313-26.745,15.44l-0.308,0.371
				l-0.472,0.095C73.67,48.94,71.756,49.13,70.065,49.13z M60.446,41.601c0.403,0.997,3.155,6.384,14.401,4.338
				c1.967-2.228,12.317-13.245,26.941-15.833c0.011-2.354,0.334-7.296,2.683-9.904C100.58,17.328,89.259,9.342,79.386,6.214
				C79.1,6.119,71.894,4.061,68.713,9.342C68.723,9.364,60.34,29.905,60.446,41.601z"/>
		</g>
		<g>
			<path d="M140.166,133.022H93.353l-1.135-44.75l12.678-41.634l3.945-4.931h17.597l3.803,5.971l12.449,40.456l-0.01,0.244
				L140.166,133.022z M96.003,130.308H137.6l2.354-41.834l-12.252-39.81l-2.736-4.241h-14.82l-2.964,3.712L94.943,88.632
				L96.003,130.308z"/>
		</g>
		<g>
			<path d="M119.068,44.422h-3.234c-7.747,0-14.046-6.3-14.046-14.041c0-12.449,7.508-14.04,14.046-14.04h3.234
				c3.982,0,8.043,0.382,10.795,3.171c2.248,2.27,3.309,5.832,3.246,10.891C133.109,38.123,126.809,44.422,119.068,44.422z
				 M115.834,19.056c-6.803,0-11.331,1.93-11.331,11.325c0,6.246,5.085,11.326,11.331,11.326h3.234
				c6.246,0,11.326-5.08,11.326-11.326c0.053-4.305-0.754-7.232-2.461-8.96c-2.053-2.079-5.473-2.365-8.865-2.365H115.834z"/>
		</g>
		<path d="M133.055,207.224H98.087l-2.126-74.965h43.055L133.055,207.224z M100.728,204.509h29.825l5.525-69.535H98.75
			L100.728,204.509z"/>
		<g>
			<path fill="#D55431" d="M131.871,24.569c0,0,4.924-3.382,10.877-3.95"/>
			<path d="M132.488,25.625c3.188-2.112,6.826-3.294,10.586-3.828c1.551-0.221,0.891-2.575-0.65-2.356
				c-3.947,0.562-7.822,1.857-11.168,4.074C129.951,24.379,131.172,26.496,132.488,25.625L132.488,25.625z"/>
		</g>
		<g>
			<path fill="#D55431" d="M132.533,27.55c0,0,6.406-3.413,12.385-3.599"/>
			<path d="M133.15,28.605c3.652-1.894,7.664-3.116,11.768-3.432c1.557-0.12,1.57-2.564,0-2.443
				c-4.547,0.35-8.951,1.667-13.002,3.766C130.52,27.218,131.754,29.328,133.15,28.605L133.15,28.605z"/>
		</g>
		<g>
			<path d="M131.578,37.126c5.115,1.017,12.412,2.648,15.502,7.207c0.877,1.295,2.996,0.073,2.109-1.232
				c-3.521-5.197-11.123-7.17-16.963-8.33C130.691,34.465,130.035,36.82,131.578,37.126L131.578,37.126z"/>
		</g>
		<g>
			<path fill="#D55431" d="M129.717,38.214c0,0,4.092,1.82,7.484,5.988"/>
			<path d="M129.1,39.27c2.848,1.338,5.174,3.459,7.238,5.796c1.041,1.182,2.764-0.553,1.727-1.728
				c-2.184-2.475-4.713-4.76-7.732-6.179C128.918,36.495,127.676,38.601,129.1,39.27L129.1,39.27z"/>
		</g>
		<g>
			<path fill="#D55431" d="M102.625,24.569c0,0-4.923-3.382-10.877-3.95"/>
			<path d="M103.241,23.514c-3.347-2.217-7.22-3.513-11.169-4.074c-1.538-0.218-2.203,2.136-0.65,2.356
				c3.76,0.534,7.4,1.717,10.585,3.828C103.322,26.496,104.547,24.38,103.241,23.514L103.241,23.514z"/>
		</g>
		<g>
			<path fill="#D55431" d="M101.576,27.197c0,0-5.129-1.96-11.108-2.146"/>
			<path d="M101.9,26.018c-3.672-1.345-7.546-1.945-11.433-2.188c-1.57-0.099-1.564,2.346,0,2.443
				c3.672,0.229,7.318,0.832,10.783,2.102C102.73,28.917,103.367,26.556,101.9,26.018L101.9,26.018z"/>
		</g>
		<g>
			<path d="M102.774,34.77c-5.832,1.159-13.442,3.138-16.963,8.331c-0.885,1.305,1.231,2.528,2.11,1.232
				c3.104-4.578,10.359-6.185,15.502-7.207C104.965,36.82,104.313,34.464,102.774,34.77L102.774,34.77z"/>
		</g>
		<g>
			<path fill="#D55431" d="M104.78,38.214c0,0-4.093,1.82-7.485,5.988"/>
			<path d="M104.164,37.16c-3.02,1.419-5.548,3.704-7.732,6.179c-1.037,1.175,0.685,2.909,1.728,1.728
				c2.063-2.337,4.39-4.458,7.237-5.796C106.819,38.601,105.58,36.495,104.164,37.16L104.164,37.16z"/>
		</g>
		<g>
			<line fill="#D55431" x1="16.541" y1="88.302" x2="218.359" y2="88.302"/>
			<path d="M16.541,89.388c67.273,0,134.547,0,201.818,0c1.398,0,1.4-2.172,0-2.172c-67.271,0-134.545,0-201.818,0
				C15.144,87.216,15.142,89.388,16.541,89.388L16.541,89.388z"/>
		</g>
	</g>
</g>
</svg>
