<?xml version="1.0" encoding="utf-8"?>
<!-- Generator: Adobe Illustrator 16.0.0, SVG Export Plug-In . SVG Version: 6.00 Build 0)  -->
<!DOCTYPE svg PUBLIC "-//W3C//DTD SVG 1.1//EN" "http://www.w3.org/Graphics/SVG/1.1/DTD/svg11.dtd">
<svg version="1.1" id="Layer_1" xmlns="http://www.w3.org/2000/svg" xmlns:xlink="http://www.w3.org/1999/xlink" x="0px" y="0px"
	 width="311.81px" height="212.6px" viewBox="0 0 311.81 212.6" enable-background="new 0 0 311.81 212.6" xml:space="preserve">
<g>
	<g>
		<path fill="#F0DEC7" d="M270.452,60.797H144.161l-30.781,54.145l15.009,78.803c1.293,6.789,5.77,11.525,10.892,11.525h140.661
			c5.146,0,9.638-4.781,10.907-11.613l14.635-78.715L270.452,60.797z"/>
	</g>
	<path d="M279.94,207.979H139.281c-6.442,0-12.015-5.641-13.558-13.723l-15.196-79.787l32.052-56.385h129.354l36.416,56.299
		l-14.835,79.768C292.008,202.295,286.425,207.979,279.94,207.979z M116.232,115.422l14.825,77.816
		c1.045,5.482,4.428,9.311,8.224,9.311H279.94c3.765,0,7.227-3.943,8.239-9.395l14.434-77.646l-33.638-51.994H145.739
		L116.232,115.422z"/>
	<g>
		<path fill="#F0DEC7" d="M163.921,13.091c-4.955-4.277-11.496-6.897-19.031-6.567L104.036,8.31
			c-8.577,0.375-22.713,0.419-27.605,7.474l-62.888,90.687c-5.064,7.303-0.057,20.922,2.953,29.283l13.539,37.604
			c2.437,6.768,7.114,11.523,12.619,14.539c0.468,0.463,0.797,1.025,1.356,1.412l19.256,13.354c4.855,3.367,11.52,2.16,14.886-2.695
			L187.535,42.235c3.366-4.855,2.16-11.52-2.694-14.886l-19.967-13.847C164.577,13.297,164.229,13.263,163.921,13.091z"/>
	</g>
	<path d="M69.339,207.279c-2.635,0-5.292-0.773-7.619-2.387l-19.258-13.361c-0.647-0.445-1.087-0.965-1.411-1.357
		c-6.304-3.51-11.103-9.045-13.574-15.896l-13.537-37.604c-3.42-9.49-8.431-23.395-2.63-31.75l62.886-90.69
		c5.323-7.667,18.335-8.187,27.836-8.559l42.742-1.866c7.693-0.402,14.788,2.068,20.6,6.946l1.023,0.498l19.989,13.871
		c2.942,2.036,4.915,5.101,5.552,8.621c0.642,3.532-0.127,7.084-2.169,10.032L80.384,201.521
		C77.78,205.264,73.591,207.279,69.339,207.279z M146.163,9.208c-0.381,0-0.768,0.01-1.155,0.031l-42.757,1.855
		c-7.891,0.318-19.815,0.796-23.591,6.236L15.775,108.02c-4.205,6.057,0.408,18.867,3.166,26.512l13.648,37.9
		c2.015,5.59,5.944,10.117,11.368,13.076l0.604,0.457c0.238,0.232,0.451,0.486,0.657,0.73l19.597,13.744
		c3.606,2.48,8.589,1.59,11.109-2.016L185.306,40.681c1.214-1.749,1.675-3.87,1.293-5.97c-0.381-2.09-1.553-3.913-3.303-5.133
		l-19.969-13.85c-0.026,0.074-0.397-0.074-0.779-0.297l-0.398-0.286C157.638,11.253,152.129,9.208,146.163,9.208z"/>
	<g id="bow_12_">
		<g>
			<g>
				<polygon fill="#794B9E" points="190.854,116.148 192.896,204.09 225.15,204.09 230.866,116.148 				"/>
			</g>
			<g>
				<path fill="#794B9E" d="M49.051,50.252c0,0-0.272-16.531,3.592-28.527c0,0,2.717-8.074,9.581-7.77
					c0,0,20.891,4.266,29.97,10.824c0,0,4.844,6.242-5.011,15.918c0,0-16.887,0.79-27.614,12.482
					C59.568,53.18,52.675,48.047,49.051,50.252z"/>
			</g>
			<g>
				<path fill="#794B9E" d="M66.318,64.982c0,0,22.479-7.902,38.463,8.283c0,0-3.921-11.117-1.897-18.229
					c0,0,2.207-6.777,10.889-10.311c0,0-28.728-14.582-53.942,9.5"/>
			</g>
			<g>
				<path fill="#794B9E" d="M57.211,78.115c0,0,0.479,23.824,21.24,33.119c0,0-11.786,0.225-17.737,4.613
					c0,0-5.573,4.441-5.84,13.811c0,0-23.726-21.793-10.011-53.85"/>
			</g>
			<g>
				<path fill="#794B9E" d="M37.647,67.465c0,0-16.953,5.252-26.963,12.986c0,0-6.694,5.316-3.796,11.781
					c0,0,12.012,18.551,21.734,25.029c0,0,7.811,2.535,13.327-10.15c0,0-4.553-16.523,2.56-30.721
					C44.508,76.391,36.915,71.676,37.647,67.465z"/>
			</g>
			<g>
				<polygon fill="#794B9E" points="119.657,138.498 84.69,115.541 58.947,83.117 57.382,77.869 66.318,64.982 72.089,65.166 
					110.895,77.504 144.028,103.354 				"/>
			</g>
			<g>
				<path fill="#794B9E" d="M62.66,70.258l-1.783,2.57c-3.847,5.547-11.532,6.939-17.079,3.092l0,0
					c-8.503-5.896-6.938-11.531-3.092-17.078l1.783-2.572c3.847-5.547,8.063-9.514,17.079-3.09l0,0
					C65.115,57.025,66.506,64.711,62.66,70.258z"/>
			</g>
		</g>
	</g>
	<g>
		<path fill="#D55431" d="M55.015,49.879c0,0,0.025-5.779,2.856-10.826"/>
		<path d="M56.236,49.879c0.083-3.58,1.104-7.015,2.689-10.209c0.696-1.404-1.41-2.644-2.11-1.233
			c-1.775,3.58-2.929,7.423-3.022,11.443C53.757,51.451,56.2,51.451,56.236,49.879L56.236,49.879z"/>
	</g>
	<g>
		<path fill="#D55431" d="M57.749,50.996c0,0,0.818-6.974,3.967-11.83"/>
		<path d="M58.971,50.996c0.507-3.932,1.802-7.8,3.8-11.212c0.796-1.36-1.315-2.591-2.11-1.233
			c-2.238,3.823-3.567,8.055-4.134,12.446C56.327,52.551,58.772,52.537,58.971,50.996L58.971,50.996z"/>
	</g>
	<g>
		<path d="M65.02,58.863c3.642-3.516,8.915-8.299,14.263-8.264c1.572,0.01,1.574-2.434,0-2.443
			c-6.086-0.041-11.833,4.965-15.99,8.98C62.159,58.23,63.888,59.957,65.02,58.863L65.02,58.863z"/>
	</g>
	<g>
		<path fill="#D55431" d="M64.675,59.115c0,0,3.704-2.25,8.887-2.648"/>
		<path d="M65.292,60.17c2.53-1.457,5.395-2.131,8.27-2.482c1.541-0.188,1.561-2.633,0-2.443c-3.309,0.404-6.585,1.137-9.503,2.816
			C62.696,58.846,63.925,60.957,65.292,60.17L65.292,60.17z"/>
	</g>
	<g>
		<path fill="#D55431" d="M38.889,73.133c0,0-5.403,2.049-9.138,6.469"/>
		<path d="M38.564,71.955c-3.731,1.486-6.958,3.85-9.677,6.783c-1.067,1.152,0.656,2.883,1.728,1.727
			c2.411-2.6,5.277-4.83,8.599-6.154C40.657,73.734,40.028,71.371,38.564,71.955L38.564,71.955z"/>
	</g>
	<g>
		<path fill="#D55431" d="M40.4,75.414c0,0-4.386,2.998-7.83,7.648"/>
		<path d="M39.783,74.359c-3.093,2.178-5.738,4.881-8.077,7.84c-0.964,1.221,0.753,2.961,1.728,1.729
			c2.205-2.791,4.66-5.402,7.583-7.459C42.292,75.57,41.073,73.451,39.783,74.359L39.783,74.359z"/>
	</g>
	<g>
		<path d="M47.269,78.23c-2.285,5.258-5.061,12.459-2.896,18.129c0.555,1.455,2.918,0.824,2.356-0.648
			c-1.911-5.006,0.612-11.557,2.65-16.248C49.999,78.035,47.895,76.789,47.269,78.23L47.269,78.23z"/>
	</g>
	<g>
		<path fill="#D55431" d="M50.927,78.941c0,0-0.81,4.258,0.633,9.252"/>
		<path d="M49.749,78.617c-0.553,3.336-0.152,6.641,0.634,9.9c0.368,1.529,2.725,0.881,2.356-0.648
			c-0.67-2.781-1.108-5.744-0.634-8.604C52.36,77.729,50.005,77.066,49.749,78.617L49.749,78.617z"/>
	</g>
	<g>
		<line fill="#D55431" x1="42.099" y1="176.711" x2="153.369" y2="16.254"/>
		<path d="M43.036,177.258c37.09-53.484,74.18-106.971,111.271-160.455c0.798-1.151-1.083-2.238-1.876-1.097
			c-37.09,53.485-74.18,106.971-111.27,160.456C40.363,177.313,42.244,178.4,43.036,177.258L43.036,177.258z"/>
	</g>
	<g>
		<line fill="#FFFFFF" x1="305.483" y1="114.941" x2="137.116" y2="114.941"/>
		<rect x="137.118" y="112.23" width="168.363" height="5.43"/>
	</g>
	<path d="M50.744,79.463c-2.752,0-5.424-0.838-7.72-2.43c-9.926-6.881-7.047-13.754-3.431-18.971l1.781-2.566
		c2.201-3.172,4.756-6.203,8.505-6.852c3.107-0.52,6.49,0.605,10.478,3.438c2.964,2.047,4.963,5.164,5.615,8.758
		c0.652,3.596-0.133,7.213-2.201,10.191l-1.781,2.566c-2.063,2.98-5.175,4.984-8.77,5.643
		C52.393,79.389,51.566,79.463,50.744,79.463z M51.385,51.232c-0.355,0-0.705,0.021-1.039,0.086
		c-2.768,0.477-4.878,3.033-6.745,5.727l-1.781,2.566c-3.733,5.387-4.693,10.031,2.751,15.195c2.381,1.654,5.287,2.279,8.166,1.76
		c2.879-0.529,5.372-2.131,7.021-4.518l1.787-2.566c1.654-2.385,2.275-5.279,1.755-8.164c-0.52-2.875-2.121-5.367-4.507-7.021
		C55.903,52.24,53.469,51.232,51.385,51.232z"/>
	<path d="M30.335,118.838c-1.225,0-2.025-0.244-2.131-0.277l-0.334-0.158c-9.846-6.564-21.623-24.666-22.121-25.43
		c-2.736-6.055,1.49-11.518,4.094-13.584c10.101-7.805,26.702-13.002,27.402-13.215l2.121-0.656l-0.382,2.184
		c-0.414,2.396,3.605,5.896,6.241,7.529l1.05,0.658l-0.551,1.104c-6.787,13.553-2.508,29.596-2.465,29.756l0.127,0.467l-0.191,0.434
		C38.973,117.363,33.358,118.838,30.335,118.838z M29.19,116.016c1.044,0.234,6.798,1.008,11.326-9.023
		c-0.694-2.832-3.717-17.096,2.259-30.129c-1.872-1.314-5.567-4.262-6.373-7.549c-4.47,1.516-16.989,6.107-24.889,12.205
		c-0.217,0.18-5.811,4.75-3.383,10.158C8.146,91.678,19.848,109.654,29.19,116.016z"/>
	<path d="M120.019,140.354l-1.108-0.721l-35.282-23.246l-25.98-32.873l-1.75-5.875l9.725-14.031l6.883,0.266l39.221,12.557
		l34.146,26.648L120.019,140.354z M85.617,114.521l33.68,22.121l22.885-33.012l-31.931-24.91L71.857,66.514l-4.846-0.148
		l-8.144,11.74l1.304,4.379L85.617,114.521z"/>
	<path d="M56.147,132.666l-2.19-2.016c-0.244-0.223-24.274-22.82-10.339-55.367l2.492,1.061
		c-10.791,25.219,2.412,44.053,7.688,50.182c1.22-7.783,5.849-11.57,6.066-11.74c3.828-2.82,9.713-4.029,13.833-4.537
		C56.497,99.6,55.86,78.369,55.855,78.146l2.714-0.063c0.005,0.232,0.732,23.096,20.441,31.908l5.535,2.482l-6.066,0.117
		c-0.116,0-11.431,0.264-16.961,4.348c-0.165,0.137-5.042,4.188-5.287,12.756L56.147,132.666z"/>
	<path d="M108.067,78.539l-4.253-4.316c-15.181-15.354-36.83-8.037-37.047-7.953l-0.901-2.566
		c0.223-0.074,20.323-6.924,36.326,5.463c-0.965-4.041-1.904-9.959-0.61-14.498c0.101-0.307,2.021-6.002,8.924-9.873
		c-7.545-2.883-29.63-8.8-49.735,10.414l-1.877-1.973c25.615-24.443,55.191-9.872,55.494-9.723l2.65,1.346l-2.752,1.125
		c-7.942,3.234-10.026,9.225-10.111,9.48c-1.866,6.553,1.846,17.242,1.883,17.359L108.067,78.539z"/>
	<path d="M59.742,55.008l-0.986-0.73c-1.606-1.189-6.691-4.221-8.998-2.875l-2.025,1.23l-0.037-2.365
		c-0.011-0.678-0.233-16.882,3.653-28.96c0.127-0.382,3.022-8.717,10.478-8.717c0.154,0,0.302,0,0.456,0.01
		c1.076,0.202,21.496,4.423,30.706,11.071l0.275,0.276c0.229,0.286,5.467,7.316-5.133,17.72l-0.365,0.371l-0.52,0.021
		c-0.164,0.011-16.464,0.912-26.676,12.047L59.742,55.008z M51.21,48.348c3.075,0,6.485,1.951,8.176,3.055
		C69.392,41.244,83.612,39.61,86.582,39.377c7.667-7.742,5.19-12.726,4.624-13.638c-8.845-6.235-29.052-10.414-29.253-10.456
		c-0.09,0-0.181,0-0.265,0c-5.35,0-7.736,6.797-7.763,6.871c-3.001,9.322-3.452,21.645-3.51,26.236
		C50.675,48.359,50.94,48.348,51.21,48.348z"/>
	<path d="M151.384,111.748c0-16.02,0-2.041,0-18.061c0-1.398-2.172-1.4-2.172,0c0,16.02,0,2.041,0,18.061
		C149.212,113.146,151.384,113.148,151.384,111.748L151.384,111.748z"/>
	<path d="M269.653,111.748c0.629-16.982,1.257-33.967,1.885-50.951c0.052-1.396-2.12-1.395-2.172,0
		c-0.628,16.984-1.256,33.969-1.885,50.951C267.43,113.146,269.602,113.145,269.653,111.748L269.653,111.748z"/>
	<path d="M226.425,205.445h-34.853l-2.104-90.648h42.848L226.425,205.445z M194.224,202.73h29.656l5.541-85.219h-37.175
		L194.224,202.73z"/>
	<g>
		<line fill="#D55431" x1="268.567" y1="111.748" x2="270.452" y2="60.797"/>
	</g>
	<g>
		<line fill="#D55431" x1="150.298" y1="111.748" x2="150.298" y2="96.482"/>
	</g>
</g>
</svg>
