<?xml version="1.0" encoding="utf-8"?>
<!-- Generator: Adobe Illustrator 16.0.0, SVG Export Plug-In . SVG Version: 6.00 Build 0)  -->
<!DOCTYPE svg PUBLIC "-//W3C//DTD SVG 1.1//EN" "http://www.w3.org/Graphics/SVG/1.1/DTD/svg11.dtd">
<svg version="1.1" id="Layer_1" xmlns="http://www.w3.org/2000/svg" xmlns:xlink="http://www.w3.org/1999/xlink" x="0px" y="0px"
	 width="311.81px" height="212.6px" viewBox="0 0 311.81 212.6" enable-background="new 0 0 311.81 212.6" xml:space="preserve">
<g>
	<g>
		<path fill="#F0DEC7" d="M271.437,61.727h-126.29l-30.78,54.144l15.008,78.803c1.293,6.789,5.77,11.525,10.891,11.525h140.662
			c5.146,0,9.637-4.781,10.908-11.611l14.633-78.717L271.437,61.727z"/>
	</g>
	<path d="M280.925,208.908H140.267c-6.442,0-12.016-5.641-13.559-13.721l-15.195-79.789l32.052-56.384h129.354l36.416,56.298
		l-14.836,79.768C292.993,203.225,287.409,208.908,280.925,208.908z M117.218,116.352l14.824,77.816
		c1.045,5.484,4.428,9.313,8.225,9.313h140.658c3.766,0,7.229-3.945,8.24-9.396l14.434-77.646L269.96,64.443H146.725
		L117.218,116.352z"/>
	<g>
		<path fill="#F0DEC7" d="M164.905,14.022c-4.954-4.278-11.495-6.897-19.03-6.568L105.021,9.24
			c-8.577,0.375-22.714,0.42-27.606,7.475L14.528,107.4c-5.064,7.303-0.056,20.922,2.954,29.283l13.539,37.604
			c2.437,6.77,7.114,11.525,12.618,14.541c0.469,0.461,0.798,1.023,1.356,1.412l19.256,13.354c4.855,3.365,11.52,2.158,14.887-2.695
			L188.521,43.165c3.366-4.854,2.16-11.519-2.695-14.886l-19.966-13.846C165.563,14.227,165.214,14.194,164.905,14.022z"/>
	</g>
	<path d="M70.324,208.209c-2.636,0-5.292-0.773-7.62-2.385l-19.258-13.363c-0.646-0.445-1.086-0.965-1.41-1.357
		c-6.305-3.51-11.103-9.045-13.574-15.896l-13.536-37.604c-3.42-9.49-8.431-23.393-2.63-31.75l62.885-90.69
		c5.324-7.667,18.336-8.187,27.838-8.558L145.76,4.74c7.693-0.403,14.788,2.067,20.599,6.945l1.023,0.499l19.99,13.871
		c2.943,2.035,4.915,5.101,5.551,8.621c0.643,3.531-0.127,7.084-2.168,10.032L81.368,202.451
		C78.765,206.195,74.577,208.209,70.324,208.209z M147.149,10.137c-0.383,0-0.77,0.011-1.156,0.032l-42.758,1.855
		c-7.89,0.318-19.814,0.795-23.59,6.235L16.76,108.951c-4.205,6.055,0.409,18.865,3.166,26.512l13.647,37.9
		c2.016,5.588,5.945,10.115,11.369,13.074l0.604,0.457c0.239,0.232,0.451,0.488,0.658,0.73l19.598,13.744
		c3.605,2.482,8.59,1.59,11.107-2.016L186.29,41.612c1.215-1.75,1.676-3.871,1.294-5.971c-0.382-2.089-1.554-3.913-3.304-5.133
		l-19.968-13.85c-0.026,0.074-0.397-0.074-0.78-0.297l-0.396-0.286C158.623,12.184,153.114,10.137,147.149,10.137z"/>
	<g id="bow_2_">
		<g>
			<g>
				<polygon fill="#E03C35" points="191.84,117.08 193.881,205.02 226.136,205.02 231.852,117.08 				"/>
			</g>
			<g>
				<path fill="#E03C35" d="M50.036,51.181c0,0-0.271-16.529,3.592-28.525c0,0,2.717-8.075,9.581-7.77c0,0,20.89,4.266,29.97,10.823
					c0,0,4.844,6.242-5.012,15.919c0,0-16.885,0.789-27.613,12.48C60.554,54.109,53.661,48.978,50.036,51.181z"/>
			</g>
			<g>
				<path fill="#E03C35" d="M67.304,65.913c0,0,22.48-7.902,38.463,8.283c0,0-3.922-11.117-1.897-18.229
					c0,0,2.207-6.777,10.888-10.311c0,0-28.727-14.582-53.941,9.5"/>
			</g>
			<g>
				<path fill="#E03C35" d="M58.196,79.045c0,0,0.479,23.824,21.24,33.119c0,0-11.787,0.225-17.737,4.613
					c0,0-5.573,4.443-5.839,13.811c0,0-23.727-21.793-10.012-53.848"/>
			</g>
			<g>
				<path fill="#E03C35" d="M38.632,68.396c0,0-16.953,5.251-26.963,12.985c0,0-6.694,5.316-3.796,11.781
					c0,0,12.012,18.55,21.734,25.031c0,0,7.811,2.533,13.327-10.152c0,0-4.553-16.522,2.56-30.72
					C45.493,77.321,37.899,72.605,38.632,68.396z"/>
			</g>
			<g>
				<polygon fill="#E03C35" points="120.643,139.428 85.675,116.473 59.933,84.047 58.367,78.798 67.304,65.913 73.073,66.097 
					111.88,78.435 145.015,104.283 				"/>
			</g>
			<g>
				<path fill="#E03C35" d="M63.646,71.188l-1.783,2.571c-3.847,5.547-11.532,6.938-17.08,3.091l0,0
					c-8.502-5.896-6.938-11.532-3.091-17.079l1.782-2.57c3.848-5.547,8.063-9.516,17.08-3.092l0,0
					C66.101,57.956,67.491,65.641,63.646,71.188z"/>
			</g>
		</g>
	</g>
	<g>
		<path fill="#D55431" d="M55.999,50.809c0,0,0.025-5.778,2.856-10.826"/>
		<path d="M57.222,50.809c0.082-3.58,1.104-7.015,2.689-10.209c0.695-1.404-1.411-2.644-2.11-1.233
			c-1.776,3.58-2.93,7.423-3.022,11.442C54.741,52.382,57.185,52.381,57.222,50.809L57.222,50.809z"/>
	</g>
	<g>
		<path fill="#D55431" d="M58.734,51.926c0,0,0.818-6.974,3.967-11.829"/>
		<path d="M59.956,51.926c0.508-3.932,1.802-7.8,3.8-11.213c0.796-1.359-1.314-2.591-2.109-1.233
			c-2.238,3.823-3.567,8.057-4.134,12.446C57.312,53.482,59.757,53.467,59.956,51.926L59.956,51.926z"/>
	</g>
	<g>
		<path d="M66.005,59.794c3.642-3.518,8.914-8.3,14.262-8.265c1.572,0.01,1.574-2.434,0-2.443c-6.086-0.04-11.832,4.965-15.99,8.98
			C63.144,59.161,64.872,60.887,66.005,59.794L66.005,59.794z"/>
	</g>
	<g>
		<path fill="#D55431" d="M65.66,60.046c0,0,3.704-2.251,8.887-2.649"/>
		<path d="M66.276,61.101c2.53-1.457,5.396-2.132,8.271-2.483c1.541-0.188,1.56-2.634,0-2.442c-3.308,0.403-6.585,1.136-9.503,2.816
			C63.681,59.776,64.91,61.888,66.276,61.101L66.276,61.101z"/>
	</g>
	<g>
		<path fill="#D55431" d="M39.874,74.062c0,0-5.402,2.05-9.138,6.47"/>
		<path d="M39.55,72.884c-3.73,1.487-6.957,3.85-9.678,6.784c-1.067,1.151,0.656,2.884,1.729,1.728
			c2.41-2.602,5.277-4.831,8.599-6.155C41.642,74.666,41.013,72.301,39.55,72.884L39.55,72.884z"/>
	</g>
	<g>
		<path fill="#D55431" d="M41.386,76.344c0,0-4.387,2.998-7.83,7.649"/>
		<path d="M40.769,75.29c-3.094,2.178-5.738,4.881-8.077,7.84c-0.965,1.221,0.753,2.961,1.728,1.728
			c2.205-2.79,4.66-5.4,7.582-7.458C43.278,76.501,42.058,74.382,40.769,75.29L40.769,75.29z"/>
	</g>
	<g>
		<path d="M48.255,79.16c-2.285,5.259-5.063,12.459-2.896,18.131c0.555,1.454,2.918,0.823,2.355-0.649
			c-1.91-5.006,0.612-11.557,2.65-16.248C50.984,78.965,48.88,77.72,48.255,79.16L48.255,79.16z"/>
	</g>
	<g>
		<path fill="#D55431" d="M51.911,79.872c0,0-0.809,4.258,0.635,9.252"/>
		<path d="M50.733,79.547c-0.553,3.336-0.152,6.641,0.634,9.901c0.368,1.527,2.726,0.881,2.356-0.649
			c-0.671-2.781-1.107-5.744-0.634-8.603C53.345,78.659,50.991,77.997,50.733,79.547L50.733,79.547z"/>
	</g>
	<g>
		<line fill="#D55431" x1="43.083" y1="177.641" x2="154.354" y2="17.185"/>
		<path d="M44.021,178.189c37.091-53.486,74.182-106.971,111.271-160.457c0.798-1.151-1.084-2.238-1.875-1.096
			c-37.091,53.485-74.181,106.97-111.271,160.455C41.348,178.244,43.229,179.33,44.021,178.189L44.021,178.189z"/>
	</g>
	<g>
		<line fill="#FFFFFF" x1="306.468" y1="115.871" x2="138.101" y2="115.871"/>
		<rect x="138.103" y="113.16" width="168.363" height="5.43"/>
	</g>
	<path d="M51.729,80.392c-2.752,0-5.425-0.837-7.721-2.428c-9.926-6.883-7.047-13.755-3.431-18.972l1.782-2.566
		c2.199-3.171,4.756-6.204,8.504-6.851c3.107-0.52,6.49,0.604,10.479,3.436c2.963,2.047,4.963,5.165,5.614,8.76
		c0.652,3.595-0.132,7.211-2.2,10.19l-1.781,2.566c-2.063,2.98-5.176,4.984-8.771,5.642C53.378,80.318,52.551,80.392,51.729,80.392z
		 M52.37,52.163c-0.355,0-0.705,0.021-1.039,0.085c-2.768,0.478-4.878,3.033-6.744,5.727l-1.781,2.566
		c-3.733,5.388-4.693,10.032,2.752,15.196c2.381,1.654,5.286,2.28,8.165,1.761c2.879-0.53,5.371-2.132,7.021-4.518l1.787-2.566
		c1.654-2.386,2.273-5.281,1.754-8.165c-0.52-2.874-2.12-5.366-4.506-7.021C56.888,53.17,54.454,52.163,52.37,52.163z"/>
	<path d="M31.32,119.768c-1.225,0-2.025-0.244-2.132-0.275l-0.334-0.16c-9.846-6.564-21.622-24.666-22.121-25.429
		c-2.736-6.056,1.49-11.517,4.093-13.585c10.101-7.805,26.702-13.001,27.402-13.213l2.121-0.657l-0.382,2.185
		c-0.413,2.396,3.605,5.896,6.241,7.529l1.049,0.657l-0.551,1.103c-6.787,13.553-2.508,29.598-2.466,29.756l0.128,0.467
		l-0.191,0.436C39.958,118.293,34.343,119.768,31.32,119.768z M30.175,116.947c1.045,0.232,6.798,1.006,11.326-9.025
		c-0.695-2.832-3.717-17.094,2.259-30.127c-1.872-1.315-5.567-4.263-6.374-7.551c-4.469,1.517-16.988,6.108-24.888,12.206
		c-0.217,0.181-5.812,4.751-3.383,10.159C9.13,92.609,20.833,110.584,30.175,116.947z"/>
	<path d="M121.003,141.283l-1.107-0.721l-35.281-23.244L58.632,84.444l-1.749-5.875l9.724-14.03l6.883,0.266L112.71,77.36
		l34.147,26.648L121.003,141.283z M86.603,115.451l33.68,22.121l22.885-33.012l-31.931-24.91L72.843,67.444l-4.846-0.148
		l-8.145,11.739l1.304,4.38L86.603,115.451z"/>
	<path d="M57.132,133.596l-2.189-2.016c-0.244-0.223-24.273-22.82-10.34-55.366l2.492,1.061c-10.79,25.218,2.412,44.051,7.688,50.18
		c1.22-7.783,5.849-11.568,6.065-11.738c3.828-2.822,9.714-4.031,13.834-4.539c-17.201-10.647-17.837-31.877-17.842-32.1
		l2.715-0.063c0.005,0.233,0.73,23.097,20.439,31.91l5.536,2.48l-6.065,0.117c-0.117,0-11.432,0.266-16.963,4.348
		c-0.164,0.139-5.042,4.189-5.286,12.758L57.132,133.596z"/>
	<path d="M109.052,79.47l-4.252-4.316c-15.181-15.355-36.83-8.038-37.047-7.953l-0.902-2.566c0.223-0.074,20.324-6.925,36.326,5.461
		c-0.965-4.04-1.903-9.958-0.609-14.496c0.101-0.308,2.02-6.002,8.924-9.873c-7.545-2.885-29.629-8.802-49.735,10.414l-1.878-1.973
		c25.616-24.443,55.191-9.873,55.494-9.725l2.651,1.347l-2.752,1.124c-7.942,3.234-10.026,9.227-10.111,9.48
		c-1.866,6.554,1.845,17.243,1.882,17.36L109.052,79.47z"/>
	<path d="M60.728,55.938l-0.986-0.731c-1.607-1.188-6.691-4.221-8.998-2.874l-2.025,1.23l-0.037-2.365
		c-0.012-0.679-0.234-16.882,3.652-28.961c0.128-0.382,3.023-8.717,10.478-8.717c0.153,0,0.302,0,0.456,0.011
		c1.076,0.201,21.496,4.422,30.705,11.071l0.276,0.275c0.228,0.286,5.467,7.317-5.133,17.721l-0.366,0.371l-0.52,0.021
		C88.065,43,71.767,43.902,61.554,55.037L60.728,55.938z M52.196,49.279c3.074,0,6.484,1.951,8.176,3.054
		c10.005-10.159,24.226-11.792,27.195-12.025c7.667-7.741,5.19-12.726,4.623-13.638c-8.844-6.235-29.051-10.413-29.252-10.456
		c-0.091,0-0.181,0-0.266,0c-5.35,0-7.736,6.798-7.763,6.872c-3.001,9.321-3.452,21.644-3.51,26.235
		C51.66,49.29,51.925,49.279,52.196,49.279z"/>
	<path d="M152.368,112.68c0-16.021,0-2.043,0-18.063c0-1.397-2.172-1.399-2.172,0c0,16.02,0,2.042,0,18.063
		C150.196,114.076,152.368,114.078,152.368,112.68L152.368,112.68z"/>
	<path d="M270.64,112.68c0.627-16.985,1.256-33.968,1.885-50.952c0.051-1.397-2.121-1.396-2.172,0
		c-0.629,16.983-1.258,33.967-1.885,50.952C268.415,114.076,270.587,114.074,270.64,112.68L270.64,112.68z"/>
	<path d="M227.409,206.375h-34.852l-2.105-90.648H233.3L227.409,206.375z M195.208,203.66h29.656l5.541-85.219h-37.174
		L195.208,203.66z"/>
	<g>
		<line fill="#D55431" x1="269.554" y1="112.68" x2="271.438" y2="61.728"/>
	</g>
	<g>
		<line fill="#D55431" x1="151.282" y1="112.68" x2="151.282" y2="97.413"/>
	</g>
</g>
</svg>
