<?xml version="1.0" encoding="utf-8"?>
<!-- Generator: Adobe Illustrator 16.0.0, SVG Export Plug-In . SVG Version: 6.00 Build 0)  -->
<!DOCTYPE svg PUBLIC "-//W3C//DTD SVG 1.1//EN" "http://www.w3.org/Graphics/SVG/1.1/DTD/svg11.dtd">
<svg version="1.1" id="Layer_1" xmlns="http://www.w3.org/2000/svg" xmlns:xlink="http://www.w3.org/1999/xlink" x="0px" y="0px"
	 width="184.25px" height="184.25px" viewBox="0 0 184.25 184.25" enable-background="new 0 0 184.25 184.25" xml:space="preserve">
<g>
	<circle fill="#00814A" cx="92.58" cy="92.125" r="87.13"/>
	<circle fill="#00A35B" cx="92.027" cy="90.982" r="82.575"/>
	<g>
		<path fill="#FFFFFF" d="M18.879,98.281c0-45.848,37.167-83.015,83.015-83.015c16.093,0,31.065,4.655,43.787,12.582
			C131.211,15.576,112.511,8.141,92.051,8.141c-45.849,0-83.016,37.166-83.016,83.015c0,29.754,15.706,55.777,39.228,70.434
			C30.306,146.361,18.879,123.67,18.879,98.281z"/>
	</g>
	
		<ellipse transform="matrix(0.759 -0.6511 0.6511 0.759 -18.7825 39.7495)" fill="#FFFFFF" cx="44.304" cy="45.247" rx="21.268" ry="15.055"/>
	<g opacity="0.35">
		<path fill="#FFFFFF" d="M45.344,51.016c27.665-31.656,77.06-37.964,107.651-5.219c10.737,11.493,18.41,23.569,21.237,37.944
			c-0.891-18.523-9.278-36.098-22.93-50.71c-30.591-32.745-80.12-17.634-109.936,1.373c-24.523,15.633-25.986,57.066-20.758,83.644
			C19.503,95.063,29.015,69.701,45.344,51.016z"/>
	</g>
	<g>
		<path fill="#FEFFFF" d="M142.794,68.268c-3.252,1.65-6.584,3.076-10.172,3.855c-0.738,0.16-1.197,0.035-1.74-0.48
			c-5.608-5.322-14.14-6.52-21.042-2.99c-7.108,3.637-10.943,11.215-9.613,19.09c0.147,0.875-0.076,1.115-0.905,1.01
			c-1.267-0.164-2.545-0.252-3.808-0.441c-12.729-1.908-23.343-7.721-31.89-17.326c-0.946-1.063-0.922-1.084-1.54,0.168
			c-3.721,7.541-1.705,16.488,4.925,21.914c0.292,0.238,0.732,0.371,0.852,0.904c-2.784-0.068-5.275-0.934-7.786-2.168
			c0.053,3.529,0.875,6.633,2.608,9.471c2.667,4.365,6.565,7.08,11.488,8.451c-2.502,0.727-5.008,0.701-7.729,0.316
			c3.069,7.783,8.688,11.844,16.998,12.615c-5.497,4.119-11.417,6.48-17.965,7.34c-2.82,0.369-5.643,0.172-8.465,0.205
			c-0.031-0.037-0.063-0.074-0.093-0.109c0.005,0.023,0.003,0.059,0.017,0.066c0.027,0.016,0.063,0.018,0.096,0.023
			c0.047,0.328,0.347,0.389,0.568,0.523c2.024,1.225,4.13,2.295,6.305,3.223c9.514,4.059,19.392,5.076,29.577,3.52
			c10.253-1.568,19.278-5.773,26.729-12.988c10.954-10.605,16.436-23.615,16.361-38.904c-0.004-0.764,0.162-1.27,0.822-1.738
			c1.808-1.277,3.424-2.791,4.906-4.436c1.122-1.242,2.235-2.498,3.225-4.184c-3.304,1.295-6.424,2.281-9.896,2.648
			c4.917-4.389,6.544-6.49,7.341-9.418c0.016-0.084,0.03-0.168,0.046-0.254C142.941,68.205,142.867,68.236,142.794,68.268z"/>
		<path fill="#00ADE8" d="M57.01,130.201c2.822-0.033,5.645,0.164,8.465-0.205c6.548-0.859,12.468-3.221,17.965-7.34
			c-8.31-0.771-13.929-4.832-16.998-12.615c2.721,0.385,5.227,0.41,7.729-0.316c-4.922-1.371-8.821-4.086-11.488-8.451
			c-1.733-2.838-2.555-5.941-2.608-9.471c2.511,1.234,5.002,2.1,7.786,2.168c-0.12-0.533-0.56-0.666-0.852-0.904
			c-6.63-5.426-8.646-14.373-4.925-21.914c0.618-1.252,0.594-1.23,1.54-0.168c8.546,9.605,19.161,15.418,31.89,17.326
			c1.263,0.189,2.541,0.277,3.808,0.441c0.829,0.105,1.053-0.135,0.905-1.01c-1.33-7.875,2.505-15.453,9.613-19.09
			c6.902-3.529,15.434-2.332,21.042,2.99c0.543,0.516,1.002,0.641,1.74,0.48c3.588-0.779,6.92-2.205,10.172-3.855
			c0.059,0.055,0.117,0.107,0.177,0.162c-0.799,2.926-2.426,5.027-7.343,9.416c3.472-0.367,6.592-1.354,9.896-2.648
			c-0.989,1.686-2.103,2.941-3.225,4.184c-1.482,1.645-3.099,3.158-4.906,4.436c-0.66,0.469-0.826,0.975-0.822,1.738
			c0.074,15.289-5.407,28.299-16.361,38.904c-7.451,7.215-16.477,11.42-26.729,12.988c-10.185,1.557-20.063,0.539-29.577-3.52
			c-2.175-0.928-4.281-1.998-6.305-3.223c-0.222-0.135-0.521-0.195-0.568-0.523L57.01,130.201z"/>
		<path fill="#00ADE8" d="M142.794,68.268c0.073-0.031,0.147-0.063,0.221-0.094c-0.016,0.086-0.03,0.17-0.045,0.254
			C142.911,68.375,142.853,68.322,142.794,68.268z"/>
		<path fill="#00ADE8" d="M57.029,130.182c-0.032-0.006-0.068-0.008-0.096-0.023c-0.014-0.008-0.012-0.043-0.017-0.066
			c0.031,0.035,0.062,0.072,0.093,0.109L57.029,130.182z"/>
	</g>
</g>
</svg>
