<?xml version="1.0" encoding="utf-8"?>
<!-- Generator: Adobe Illustrator 16.0.0, SVG Export Plug-In . SVG Version: 6.00 Build 0)  -->
<!DOCTYPE svg PUBLIC "-//W3C//DTD SVG 1.1//EN" "http://www.w3.org/Graphics/SVG/1.1/DTD/svg11.dtd">
<svg version="1.1" id="Layer_1" xmlns="http://www.w3.org/2000/svg" xmlns:xlink="http://www.w3.org/1999/xlink" x="0px" y="0px"
	 width="311.81px" height="212.6px" viewBox="0 0 311.81 212.6" enable-background="new 0 0 311.81 212.6" xml:space="preserve">
<g>
	<g>
		<path fill="#F0DEC7" d="M269.752,60.135H143.461l-30.78,54.142l15.008,78.804c1.293,6.789,5.77,11.525,10.891,11.525h140.662
			c5.146,0,9.638-4.781,10.907-11.611l14.635-78.718L269.752,60.135z"/>
	</g>
	<path d="M279.24,207.317H138.581c-6.442,0-12.016-5.643-13.558-13.723l-15.196-79.79l32.052-56.383h129.354l36.416,56.299
		l-14.836,79.767C291.309,201.632,285.725,207.317,279.24,207.317z M115.532,114.76l14.825,77.815
		c1.044,5.484,4.427,9.313,8.224,9.313H279.24c3.765,0,7.227-3.945,8.239-9.396l14.433-77.646l-33.637-51.995H145.039
		L115.532,114.76z"/>
	<g>
		<path fill="#F0DEC7" d="M163.22,12.429c-4.953-4.278-11.495-6.897-19.03-6.568l-40.854,1.786
			c-8.577,0.376-22.714,0.42-27.605,7.475l-62.888,90.687c-5.064,7.301-0.057,20.922,2.953,29.283l13.539,37.604
			c2.438,6.77,7.114,11.525,12.619,14.541c0.468,0.461,0.797,1.023,1.355,1.412l19.256,13.354c4.855,3.365,11.52,2.158,14.887-2.695
			L186.835,41.573c3.366-4.855,2.16-11.52-2.695-14.887L164.174,12.84C163.877,12.634,163.528,12.601,163.22,12.429z"/>
	</g>
	<path d="M68.639,206.616c-2.636,0-5.292-0.773-7.619-2.385l-19.259-13.363c-0.646-0.445-1.086-0.965-1.41-1.357
		c-6.305-3.51-11.103-9.045-13.573-15.895L13.24,136.011c-3.42-9.491-8.431-23.394-2.63-31.75l62.885-90.689
		c5.324-7.668,18.336-8.188,27.838-8.559l42.741-1.866c7.694-0.403,14.788,2.067,20.6,6.946l1.023,0.498l19.989,13.871
		c2.943,2.036,4.915,5.101,5.552,8.621c0.642,3.531-0.128,7.084-2.169,10.032L79.683,200.858
		C77.08,204.603,72.892,206.616,68.639,206.616z M145.464,8.544c-0.383,0-0.77,0.011-1.156,0.032l-42.758,1.855
		c-7.89,0.318-19.814,0.796-23.59,6.235l-62.885,90.69c-4.205,6.057,0.408,18.865,3.166,26.513l13.647,37.9
		c2.015,5.588,5.944,10.117,11.368,13.074l0.604,0.457c0.238,0.232,0.45,0.488,0.657,0.73l19.598,13.744
		c3.605,2.482,8.59,1.592,11.107-2.014L184.604,40.019c1.215-1.75,1.676-3.871,1.295-5.971c-0.383-2.089-1.555-3.913-3.305-5.133
		l-19.968-13.85c-0.026,0.074-0.397-0.074-0.779-0.297l-0.397-0.286C156.938,10.591,151.429,8.544,145.464,8.544z"/>
	<g id="bow_5_">
		<g>
			<g>
				<polygon fill="#F6E95E" points="190.154,115.486 192.196,203.427 224.45,203.427 230.167,115.486 				"/>
			</g>
			<g>
				<path fill="#F6E95E" d="M48.351,49.589c0,0-0.271-16.53,3.592-28.526c0,0,2.717-8.075,9.581-7.77c0,0,20.89,4.266,29.97,10.824
					c0,0,4.844,6.241-5.012,15.918c0,0-16.885,0.79-27.613,12.48C58.868,52.516,51.976,47.385,48.351,49.589z"/>
			</g>
			<g>
				<path fill="#F6E95E" d="M65.618,64.32c0,0,22.48-7.902,38.463,8.283c0,0-3.922-11.117-1.897-18.229
					c0,0,2.208-6.777,10.889-10.311c0,0-28.728-14.582-53.942,9.5"/>
			</g>
			<g>
				<path fill="#F6E95E" d="M56.511,77.453c0,0,0.479,23.824,21.24,33.12c0,0-11.786,0.225-17.737,4.613
					c0,0-5.573,4.441-5.839,13.811c0,0-23.727-21.793-10.012-53.849"/>
			</g>
			<g>
				<path fill="#F6E95E" d="M36.946,66.803c0,0-16.953,5.252-26.963,12.985c0,0-6.693,5.316-3.796,11.781
					c0,0,12.012,18.551,21.733,25.03c0,0,7.811,2.535,13.327-10.151c0,0-4.553-16.522,2.56-30.721
					C43.808,75.728,36.214,71.012,36.946,66.803z"/>
			</g>
			<g>
				<polygon fill="#F6E95E" points="118.957,137.835 83.99,114.879 58.247,82.455 56.683,77.207 65.618,64.32 71.389,64.504 
					110.194,76.842 143.329,102.69 				"/>
			</g>
			<g>
				<path fill="#F6E95E" d="M61.96,69.596l-1.783,2.57c-3.847,5.547-11.532,6.938-17.079,3.092l0,0
					c-8.503-5.897-6.938-11.532-3.092-17.079l1.783-2.571c3.847-5.547,8.063-9.515,17.079-3.092l0,0
					C64.415,56.363,65.806,64.048,61.96,69.596z"/>
			</g>
		</g>
	</g>
	<g>
		<path fill="#D55431" d="M54.314,49.216c0,0,0.025-5.778,2.856-10.826"/>
		<path d="M55.536,49.216c0.083-3.58,1.104-7.015,2.689-10.209c0.695-1.404-1.41-2.644-2.11-1.233
			c-1.775,3.58-2.929,7.423-3.022,11.442C53.056,50.79,55.499,50.789,55.536,49.216L55.536,49.216z"/>
	</g>
	<g>
		<path fill="#D55431" d="M57.049,50.333c0,0,0.818-6.974,3.967-11.829"/>
		<path d="M58.271,50.333c0.508-3.932,1.802-7.8,3.801-11.213c0.795-1.359-1.315-2.591-2.11-1.232
			c-2.238,3.822-3.567,8.056-4.134,12.445C55.627,51.889,58.071,51.875,58.271,50.333L58.271,50.333z"/>
	</g>
	<g>
		<path d="M64.319,58.202c3.642-3.517,8.915-8.3,14.262-8.265c1.573,0.01,1.574-2.434,0-2.443c-6.086-0.04-11.832,4.965-15.989,8.98
			C61.458,57.568,63.188,59.294,64.319,58.202L64.319,58.202z"/>
	</g>
	<g>
		<path fill="#D55431" d="M63.975,58.454c0,0,3.704-2.25,8.888-2.649"/>
		<path d="M64.591,59.508c2.531-1.457,5.396-2.132,8.271-2.482c1.54-0.188,1.559-2.634,0-2.443
			c-3.309,0.404-6.586,1.136-9.504,2.816C61.995,58.183,63.226,60.295,64.591,59.508L64.591,59.508z"/>
	</g>
	<g>
		<path fill="#D55431" d="M38.188,72.47c0,0-5.402,2.049-9.138,6.469"/>
		<path d="M37.864,71.292c-3.73,1.487-6.957,3.85-9.678,6.784c-1.066,1.151,0.656,2.884,1.729,1.728
			c2.41-2.602,5.277-4.831,8.599-6.155C39.957,73.073,39.327,70.708,37.864,71.292L37.864,71.292z"/>
	</g>
	<g>
		<path fill="#D55431" d="M39.7,74.751c0,0-4.387,2.998-7.83,7.649"/>
		<path d="M39.083,73.697c-3.094,2.178-5.738,4.881-8.077,7.84c-0.965,1.221,0.753,2.961,1.728,1.728
			c2.206-2.79,4.66-5.4,7.583-7.457C41.593,74.909,40.373,72.79,39.083,73.697L39.083,73.697z"/>
	</g>
	<g>
		<path d="M46.569,77.568c-2.285,5.258-5.063,12.459-2.896,18.13c0.555,1.454,2.918,0.823,2.355-0.649
			c-1.91-5.006,0.612-11.557,2.65-16.248C49.299,77.373,47.194,76.127,46.569,77.568L46.569,77.568z"/>
	</g>
	<g>
		<path fill="#D55431" d="M50.227,78.279c0,0-0.81,4.258,0.634,9.252"/>
		<path d="M49.048,77.955c-0.553,3.336-0.152,6.642,0.635,9.901c0.367,1.528,2.725,0.881,2.355-0.649
			c-0.67-2.781-1.107-5.744-0.634-8.603C51.659,77.066,49.306,76.405,49.048,77.955L49.048,77.955z"/>
	</g>
	<g>
		<line fill="#D55431" x1="41.398" y1="176.048" x2="152.669" y2="15.592"/>
		<path d="M42.336,176.597c37.09-53.485,74.181-106.971,111.271-160.457c0.799-1.15-1.084-2.237-1.875-1.096
			C114.642,68.53,77.551,122.016,40.46,175.499C39.662,176.651,41.544,177.737,42.336,176.597L42.336,176.597z"/>
	</g>
	<g>
		<line fill="#FFFFFF" x1="304.783" y1="114.277" x2="136.415" y2="114.277"/>
		<rect x="136.418" y="111.568" width="168.363" height="5.43"/>
	</g>
	<path d="M50.044,78.8c-2.752,0-5.424-0.838-7.721-2.429c-9.926-6.883-7.047-13.754-3.43-18.972l1.781-2.566
		c2.2-3.171,4.756-6.203,8.504-6.851c3.107-0.52,6.49,0.604,10.479,3.437c2.963,2.046,4.963,5.164,5.614,8.759
		c0.652,3.595-0.132,7.211-2.2,10.191l-1.781,2.565c-2.063,2.98-5.176,4.984-8.77,5.643C51.692,78.726,50.865,78.8,50.044,78.8z
		 M50.685,50.571c-0.354,0-0.705,0.021-1.039,0.085c-2.768,0.477-4.878,3.032-6.744,5.727l-1.781,2.565
		c-3.732,5.388-4.693,10.032,2.752,15.196c2.381,1.654,5.286,2.28,8.165,1.761c2.88-0.53,5.372-2.132,7.021-4.518l1.787-2.566
		c1.654-2.386,2.274-5.281,1.755-8.165c-0.521-2.874-2.121-5.366-4.507-7.021C55.202,51.578,52.769,50.571,50.685,50.571z"/>
	<path d="M29.636,118.174c-1.226,0-2.026-0.242-2.133-0.275l-0.334-0.158c-9.846-6.564-21.622-24.667-22.121-25.43
		c-2.735-6.055,1.49-11.517,4.094-13.584c10.102-7.806,26.703-13.002,27.402-13.214l2.121-0.657l-0.382,2.185
		c-0.413,2.396,3.605,5.896,6.241,7.529l1.049,0.657l-0.551,1.103c-6.787,13.553-2.508,29.598-2.466,29.757l0.128,0.467
		l-0.191,0.435C38.272,116.701,32.657,118.174,29.636,118.174z M28.489,115.354c1.045,0.234,6.798,1.008,11.326-9.024
		c-0.694-2.832-3.717-17.095,2.259-30.128c-1.872-1.314-5.567-4.263-6.374-7.55c-4.469,1.516-16.988,6.107-24.889,12.205
		c-0.217,0.181-5.811,4.751-3.383,10.159C7.444,91.016,19.147,108.99,28.489,115.354z"/>
	<path d="M119.317,139.69l-1.107-0.721l-35.281-23.245L56.947,82.851l-1.75-5.875l9.725-14.03l6.882,0.266l39.221,12.556
		l34.147,26.649L119.317,139.69z M84.917,113.859l33.68,22.12l22.885-33.012l-31.93-24.91L71.157,65.852l-4.846-0.148l-8.145,11.739
		l1.305,4.379L84.917,113.859z"/>
	<path d="M55.446,132.004l-2.189-2.016c-0.244-0.223-24.273-22.82-10.34-55.367l2.492,1.061
		c-10.79,25.218,2.412,44.052,7.688,50.181c1.22-7.783,5.849-11.57,6.065-11.74c3.828-2.82,9.715-4.029,13.834-4.537
		C55.796,98.938,55.16,77.708,55.155,77.485l2.715-0.063c0.005,0.233,0.731,23.097,20.439,31.909l5.536,2.482l-6.065,0.115
		c-0.117,0-11.432,0.266-16.963,4.35c-0.164,0.137-5.042,4.188-5.286,12.756L55.446,132.004z"/>
	<path d="M107.366,77.877l-4.252-4.316c-15.181-15.355-36.83-8.038-37.047-7.953l-0.902-2.566
		c0.223-0.074,20.324-6.925,36.326,5.461c-0.965-4.04-1.903-9.957-0.609-14.496c0.101-0.308,2.02-6.002,8.924-9.873
		c-7.545-2.884-29.629-8.802-49.735,10.414l-1.877-1.973c25.615-24.443,55.191-9.873,55.493-9.725l2.651,1.347l-2.752,1.125
		c-7.942,3.234-10.026,9.226-10.111,9.48c-1.866,6.553,1.845,17.242,1.882,17.359L107.366,77.877z"/>
	<path d="M59.042,54.346l-0.986-0.732c-1.607-1.188-6.691-4.221-8.998-2.874l-2.025,1.23l-0.037-2.364
		c-0.011-0.679-0.233-16.883,3.652-28.962c0.128-0.382,3.023-8.717,10.479-8.717c0.153,0,0.302,0,0.455,0.011
		c1.076,0.201,21.496,4.422,30.706,11.071l0.275,0.275c0.228,0.287,5.467,7.317-5.132,17.721l-0.367,0.371l-0.52,0.021
		c-0.164,0.01-16.463,0.912-26.676,12.047L59.042,54.346z M50.511,47.686c3.074,0,6.484,1.951,8.176,3.054
		c10.006-10.158,24.227-11.792,27.195-12.025c7.667-7.741,5.191-12.726,4.623-13.637c-8.844-6.236-29.051-10.414-29.252-10.457
		c-0.09,0-0.181,0-0.266,0c-5.35,0-7.736,6.798-7.762,6.872c-3.002,9.321-3.452,21.645-3.511,26.235
		C49.975,47.697,50.239,47.686,50.511,47.686z"/>
	<path d="M150.683,111.086c0-16.02,0-2.041,0-18.062c0-1.397-2.172-1.399-2.172,0c0,16.021,0,2.042,0,18.062
		C148.511,112.484,150.683,112.486,150.683,111.086L150.683,111.086z"/>
	<path d="M268.953,111.086c0.629-16.983,1.257-33.967,1.885-50.951c0.052-1.397-2.12-1.396-2.172,0
		c-0.628,16.983-1.256,33.968-1.885,50.951C266.729,112.484,268.901,112.482,268.953,111.086L268.953,111.086z"/>
	<path d="M225.724,204.782h-34.852l-2.105-90.647h42.849L225.724,204.782z M193.523,202.067h29.655l5.541-85.218h-37.174
		L193.523,202.067z"/>
	<g>
		<line fill="#D55431" x1="267.867" y1="111.086" x2="269.752" y2="60.135"/>
	</g>
	<g>
		<line fill="#D55431" x1="149.597" y1="111.086" x2="149.597" y2="95.82"/>
	</g>
</g>
</svg>
