<?xml version="1.0" encoding="utf-8"?>
<!-- Generator: Adobe Illustrator 16.0.0, SVG Export Plug-In . SVG Version: 6.00 Build 0)  -->
<!DOCTYPE svg PUBLIC "-//W3C//DTD SVG 1.1//EN" "http://www.w3.org/Graphics/SVG/1.1/DTD/svg11.dtd">
<svg version="1.1" id="Layer_1" xmlns="http://www.w3.org/2000/svg" xmlns:xlink="http://www.w3.org/1999/xlink" x="0px" y="0px"
	 width="232.44px" height="212.6px" viewBox="0 0 232.44 212.6" enable-background="new 0 0 232.44 212.6" xml:space="preserve">
<g>
	<g>
		<g>
			<path fill="#F0DEC7" d="M226.262,95.399c0.716-6.727-0.912-13.826-5.63-20.031l-25.58-33.647
				c-5.37-7.063-13.734-19.044-22.607-19.044H58.38c-9.185,0-17.803,12.275-23.132,19.756L11.284,76.081
				c-4.313,6.057-5.598,12.83-4.917,19.281c-0.117,0.67-0.4,1.279-0.4,1.984v24.218c0,6.107,4.951,11.057,11.057,11.057h198.395
				c6.106,0,11.056-4.949,11.056-11.057V96.452C226.474,96.079,226.298,95.764,226.262,95.399z"/>
			<path d="M215.419,135.334H17.023c-7.593,0-13.77-6.172-13.77-13.764V97.35c0-0.818,0.186-1.486,0.318-1.984
				c-0.716-7.443,1.15-14.762,5.503-20.869l23.961-33.638c6.06-8.516,14.889-20.901,25.345-20.901h114.063
				c9.608,0,17.699,10.742,23.611,18.579l26.739,35.185c4.793,6.301,6.936,13.744,6.209,21.529l0.186,1.197v25.123
				C229.188,129.162,223.011,135.334,215.419,135.334z M58.381,25.387c-7.657,0-15.822,11.464-20.7,18.304L13.497,77.645
				c-3.574,5.018-5.106,11.041-4.433,17.436l0.042,0.381l-0.069,0.371c-0.058,0.328-0.143,0.658-0.228,0.977L8.683,121.57
				c0,4.592,3.743,8.334,8.34,8.334h198.396c4.597,0,8.34-3.742,8.34-8.334V96.448c-0.09-0.148-0.164-0.455-0.195-0.773
				l-0.032-0.277l0.032-0.285c0.693-6.543-1.066-12.811-5.091-18.102l-26.755-35.208c-4.926-6.532-12.371-16.416-19.274-16.416
				H58.381z"/>
		</g>
		<path fill="#FFFFFF" d="M35.813,204.307"/>
		<g>
			<path fill="#F0DEC7" d="M33.607,197.367l-15.076-64.746H211.5l-14.7,64.674c-1.276,5.613-5.787,9.541-10.957,9.541H44.547
				C39.402,206.836,34.906,202.945,33.607,197.367z"/>
			<path d="M185.843,209.555H44.547c-6.41,0-11.994-4.76-13.584-11.568l-15.849-68.082h199.785L199.442,197.9
				C197.89,204.762,192.296,209.555,185.843,209.555z M36.254,196.756c1.007,4.338,4.422,7.371,8.292,7.371h141.296
				c3.896,0,7.316-3.055,8.309-7.436l13.95-61.357H21.954L36.254,196.756z"/>
		</g>
	</g>
	<path fill="#F6E95E" d="M118.066,43.065h-3.233c-6.977,0-12.686-5.708-12.686-12.686l0,0c0-10.695,5.708-12.685,12.686-12.685
		h3.233c6.977,0,12.83,1.243,12.686,12.685l0,0C130.752,37.357,125.043,43.065,118.066,43.065z"/>
	<g>
		<g>
			<g>
				<polygon fill="#F6E95E" points="96.354,133.615 98.405,205.867 130.805,205.867 136.547,133.615 				"/>
			</g>
			<polygon fill="#F6E95E" points="93.679,131.668 92.581,88.448 104.958,47.485 108.494,43.065 124.702,43.065 127.943,48.075 
				140.321,88.301 137.883,131.668 			"/>
			<path fill="#F6E95E" d="M105.706,20.176c0,0-14.445-11.306-26.91-15.253c0,0-8.458-2.554-12.242,3.715
				c0,0-8.681,21.129-8.458,33.203c0,0,2.448,8.126,16.471,5.34c0,0,11.352-13.599,27.601-15.92
				C102.167,31.261,101.699,22.033,105.706,20.176z"/>
			<path fill="#F6E95E" d="M108.184,43.065c0,0-19.952,14.438-15.619,37.546c0,0-7.132-9.879-14.365-12.348
				c0,0-7.056-2.117-15.17,3.176c0,0,4.536-32.988,39.84-40.22"/>
			<path fill="#F6E95E" d="M124.702,43.065c0,0,19.952,14.438,15.619,37.546c0,0,7.132-9.879,14.364-12.348
				c0,0,7.057-2.117,15.171,3.176c0,0-4.536-32.988-39.841-40.22"/>
			<path fill="#F6E95E" d="M127.043,19.723c0,0,13.88-9.967,26.344-13.751c0,0,8.459-2.448,12.242,3.562
				c0,0,8.682,20.255,8.459,31.83c0,0-2.448,7.79-16.471,5.119c0,0-10.617-13.876-26.865-16.103
				C130.752,30.38,131.05,21.503,127.043,19.723z"/>
		</g>
		<g id="bow_outline_11_">
			<g>
				<path d="M163.106,48.398c-1.687,0-3.59-0.181-5.743-0.583l-0.508-0.096l-0.313-0.413c-0.106-0.138-10.493-13.458-25.976-15.578
					l-1.209-0.17l0.037-1.22c0.068-2.068-0.324-8.229-2.9-9.374L124.33,20l1.926-1.379c0.572-0.414,14.199-10.138,26.738-13.945
					c0.408-0.116,9.513-2.651,13.787,4.136c0.455,1.029,8.892,20.849,8.663,32.577l-0.063,0.382
					C175.286,42.089,173.159,48.398,163.106,48.398z M158.366,45.238c11.124,1.898,13.929-3.118,14.369-4.125
					c0.09-11.198-8.267-30.849-8.352-31.05c-3.112-4.899-10.54-2.821-10.62-2.789c-9.725,2.947-20.504,9.872-24.406,12.502
					c2.29,2.535,2.699,7.18,2.752,9.438C146.664,31.718,156.441,42.884,158.366,45.238z"/>
			</g>
			<g>
				<path d="M137.873,86.331l1.113-5.971c4.119-21.961-14.889-36.054-15.08-36.193l1.591-2.205
					c0.19,0.138,17.896,13.234,16.733,34.158c2.848-3.203,7.36-7.551,12.016-9.143c0.318-0.115,6.32-1.844,13.69,1.814
					c-1.962-8.039-9.899-30.446-38.192-36.247l0.541-2.651c35.838,7.338,40.87,41.029,40.917,41.369l0.404,2.938l-2.492-1.623
					c-7.439-4.857-13.781-3.096-14.046-3.012c-6.676,2.279-13.574,11.75-13.643,11.846L137.873,86.331z"/>
			</g>
			<g>
				<path d="M95.014,86.331l-3.552-4.92c-0.069-0.096-6.967-9.566-13.701-11.867c-0.217-0.063-6.548-1.834-13.987,3.033L61.281,74.2
					l0.403-2.938c0.048-0.34,5.08-34.031,40.917-41.369l0.541,2.651C74.85,38.346,66.912,60.753,64.95,68.792
					c7.37-3.617,13.362-1.91,13.638-1.836c4.692,1.602,9.215,5.961,12.068,9.164c-1.167-20.923,16.543-34.02,16.734-34.158
					l1.591,2.205c-0.191,0.139-19.2,14.231-15.08,36.193L95.014,86.331z"/>
			</g>
			<g>
				<path d="M69.065,49.13c-10.059,0-12.174-6.563-12.27-6.893l-0.058-0.371C56.515,29.649,64.94,9.003,65.295,8.122
					C68.821,2.247,75.91,2.64,79.187,3.615c12.572,3.998,26.755,15.026,27.354,15.493l1.745,1.368l-2.01,0.934
					c-2.593,1.198-2.863,7.624-2.752,9.788l0.059,1.229l-1.225,0.181c-15.557,2.216-26.639,15.313-26.745,15.44l-0.308,0.371
					l-0.472,0.095C72.67,48.939,70.756,49.13,69.065,49.13z M59.447,41.601c0.403,0.997,3.155,6.385,14.401,4.338
					c1.967-2.228,12.317-13.245,26.941-15.833c0.011-2.354,0.334-7.296,2.683-9.904C99.58,17.327,88.259,9.342,78.386,6.214
					C78.1,6.118,70.894,4.061,67.713,9.342C67.724,9.363,59.34,29.904,59.447,41.601z"/>
			</g>
			<g>
				<path d="M139.166,133.021H92.353l-1.135-44.75l12.678-41.634l3.945-4.931h17.599l3.801,5.971l12.45,40.456l-0.011,0.244
					L139.166,133.021z M95.004,130.309H136.6l2.354-41.835l-12.253-39.81l-2.736-4.241h-14.82l-2.964,3.712L93.943,88.631
					L95.004,130.309z"/>
			</g>
			<g>
				<path d="M118.068,44.422h-3.234c-7.747,0-14.045-6.299-14.045-14.04c0-12.45,7.508-14.041,14.045-14.041h3.234
					c3.982,0,8.044,0.382,10.795,3.171c2.249,2.27,3.31,5.833,3.246,10.891C132.109,38.123,125.811,44.422,118.068,44.422z
					 M114.834,19.056c-6.803,0-11.331,1.93-11.331,11.326c0,6.246,5.084,11.325,11.331,11.325h3.234
					c6.246,0,11.326-5.079,11.326-11.325c0.053-4.306-0.753-7.232-2.461-8.961c-2.052-2.079-5.472-2.365-8.865-2.365H114.834z"/>
			</g>
			<path d="M132.057,207.223H97.087l-2.126-74.963h43.054L132.057,207.223z M99.728,204.508h29.825l5.525-69.533H97.75
				L99.728,204.508z"/>
			<g>
				<path fill="#D55431" d="M130.872,24.569c0,0,4.923-3.383,10.878-3.951"/>
				<path d="M131.488,25.624c3.188-2.112,6.826-3.294,10.586-3.828c1.551-0.22,0.891-2.574-0.65-2.355
					c-3.947,0.561-7.822,1.857-11.168,4.073C128.951,24.379,130.173,26.495,131.488,25.624L131.488,25.624z"/>
			</g>
			<g>
				<path fill="#D55431" d="M131.533,27.55c0,0,6.406-3.413,12.385-3.599"/>
				<path d="M132.15,28.604c3.653-1.893,7.664-3.116,11.768-3.432c1.558-0.119,1.57-2.563,0-2.443
					c-4.546,0.35-8.951,1.667-13.001,3.766C129.521,27.219,130.755,29.327,132.15,28.604L132.15,28.604z"/>
			</g>
			<g>
				<path d="M130.578,37.126c5.115,1.017,12.412,2.648,15.502,7.208c0.878,1.294,2.996,0.073,2.11-1.233
					c-3.522-5.197-11.124-7.17-16.963-8.33C129.691,34.465,129.035,36.819,130.578,37.126L130.578,37.126z"/>
			</g>
			<g>
				<path fill="#D55431" d="M128.717,38.214c0,0,4.093,1.82,7.484,5.988"/>
				<path d="M128.1,39.27c2.848,1.338,5.175,3.459,7.238,5.796c1.043,1.182,2.766-0.552,1.728-1.728
					c-2.185-2.474-4.714-4.76-7.732-6.179C127.918,36.495,126.676,38.601,128.1,39.27L128.1,39.27z"/>
			</g>
			<g>
				<path fill="#D55431" d="M101.625,24.569c0,0-4.923-3.383-10.877-3.951"/>
				<path d="M102.241,23.514c-3.347-2.217-7.22-3.513-11.169-4.073c-1.538-0.219-2.202,2.135-0.649,2.355
					c3.76,0.534,7.399,1.717,10.585,3.828C102.322,26.495,103.547,24.38,102.241,23.514L102.241,23.514z"/>
			</g>
			<g>
				<path fill="#D55431" d="M100.576,27.196c0,0-5.13-1.96-11.108-2.146"/>
				<path d="M100.901,26.019c-3.672-1.346-7.547-1.946-11.433-2.189c-1.57-0.098-1.564,2.346,0,2.443
					c3.672,0.23,7.319,0.832,10.783,2.102C101.73,28.916,102.368,26.556,100.901,26.019L100.901,26.019z"/>
			</g>
			<g>
				<path d="M101.774,34.771c-5.832,1.158-13.442,3.137-16.963,8.33c-0.885,1.305,1.231,2.528,2.11,1.233
					c3.104-4.579,10.359-6.186,15.502-7.208C103.965,36.819,103.313,34.464,101.774,34.771L101.774,34.771z"/>
			</g>
			<g>
				<path fill="#D55431" d="M103.78,38.214c0,0-4.093,1.82-7.485,5.988"/>
				<path d="M103.164,37.159c-3.019,1.419-5.548,3.704-7.732,6.179c-1.037,1.175,0.685,2.909,1.728,1.728
					c2.063-2.337,4.39-4.458,7.238-5.796C105.819,38.601,104.58,36.494,103.164,37.159L103.164,37.159z"/>
			</g>
			<g>
				<line fill="#D55431" x1="15.542" y1="88.301" x2="217.36" y2="88.301"/>
				<path d="M15.542,89.387c67.273,0,134.546,0,201.819,0c1.397,0,1.4-2.172,0-2.172c-67.272,0-134.546,0-201.819,0
					C14.144,87.215,14.142,89.387,15.542,89.387L15.542,89.387z"/>
			</g>
		</g>
	</g>
</g>
</svg>
